G04 #@! TF.FileFunction,Copper,L2,Bot,Signal*
%FSLAX46Y46*%
G04 Gerber Fmt 4.6, Leading zero omitted, Abs format (unit mm)*
G04 Created by KiCad (PCBNEW 4.0.6-e0-6349~53~ubuntu14.04.1) date Mon Mar 27 23:58:06 2017*
%MOMM*%
%LPD*%
G01*
G04 APERTURE LIST*
%ADD10C,0.100000*%
%ADD11C,0.650240*%
%ADD12R,0.650240X4.599940*%
%ADD13R,0.650240X3.599180*%
%ADD14R,2.032000X3.657600*%
%ADD15R,2.032000X1.016000*%
%ADD16R,0.750000X0.800000*%
%ADD17R,2.032000X1.727200*%
%ADD18O,2.032000X1.727200*%
%ADD19R,1.500000X0.450000*%
%ADD20C,0.600000*%
%ADD21C,0.150000*%
%ADD22C,0.300000*%
%ADD23C,1.000000*%
%ADD24C,0.500000*%
%ADD25C,0.400000*%
%ADD26C,1.500000*%
%ADD27C,0.200000*%
G04 APERTURE END LIST*
D10*
D11*
X140500400Y-102301240D03*
D12*
X159499600Y-100000000D03*
X158498840Y-100000000D03*
X157500620Y-100000000D03*
X156499860Y-100000000D03*
X155499100Y-100000000D03*
X154500880Y-100000000D03*
X153500120Y-100000000D03*
X152499360Y-100000000D03*
X151501140Y-100000000D03*
X150500380Y-100000000D03*
X149499620Y-100000000D03*
X144500900Y-100000000D03*
X143500140Y-100000000D03*
X142499380Y-100000000D03*
D13*
X141501160Y-99499620D03*
D12*
X140500400Y-100000000D03*
X146499880Y-100000000D03*
X145499120Y-100000000D03*
D11*
X157500620Y-102301240D03*
X156499860Y-102301240D03*
X155499100Y-102301240D03*
X154500880Y-102301240D03*
X153500120Y-102301240D03*
X152499360Y-102301240D03*
X151501140Y-102301240D03*
X150500380Y-102301240D03*
X149499620Y-102301240D03*
X159499600Y-102301240D03*
X146499880Y-102301240D03*
X145499120Y-102301240D03*
X144500900Y-102301240D03*
X143500140Y-102301240D03*
X142499380Y-102301240D03*
X158498840Y-102301240D03*
D14*
X158702000Y-85200000D03*
D15*
X152098000Y-85200000D03*
X152098000Y-82914000D03*
X152098000Y-87486000D03*
D14*
X147702000Y-85200000D03*
D15*
X141098000Y-85200000D03*
X141098000Y-82914000D03*
X141098000Y-87486000D03*
D14*
X147702000Y-74400000D03*
D15*
X141098000Y-74400000D03*
X141098000Y-72114000D03*
X141098000Y-76686000D03*
D14*
X158702000Y-74400000D03*
D15*
X152098000Y-74400000D03*
X152098000Y-72114000D03*
X152098000Y-76686000D03*
D16*
X135000000Y-79150000D03*
X135000000Y-77650000D03*
X129000000Y-79150000D03*
X129000000Y-77650000D03*
D17*
X167540000Y-78190000D03*
D18*
X167540000Y-80730000D03*
X167540000Y-83270000D03*
X167540000Y-85810000D03*
D17*
X165000000Y-78190000D03*
D18*
X165000000Y-80730000D03*
X165000000Y-83270000D03*
X165000000Y-85810000D03*
D19*
X134950000Y-81225000D03*
X134950000Y-81875000D03*
X134950000Y-82525000D03*
X134950000Y-83175000D03*
X134950000Y-83825000D03*
X134950000Y-84475000D03*
X134950000Y-85125000D03*
X134950000Y-85775000D03*
X129050000Y-85775000D03*
X129050000Y-85125000D03*
X129050000Y-84475000D03*
X129050000Y-83825000D03*
X129050000Y-83175000D03*
X129050000Y-82525000D03*
X129050000Y-81875000D03*
X129050000Y-81225000D03*
D20*
X137050000Y-86200000D03*
X154175000Y-72125000D03*
X143050000Y-72125000D03*
X143125000Y-82925000D03*
X154150000Y-82925000D03*
X135500000Y-87800000D03*
X135600000Y-89200000D03*
X149500000Y-93100000D03*
X136575000Y-83825000D03*
X136500000Y-82525000D03*
X129050000Y-86775000D03*
X142650000Y-93175000D03*
X146475000Y-93150000D03*
X136475000Y-85125000D03*
D21*
X140500400Y-102301240D02*
X140500400Y-100000000D01*
D22*
X134950000Y-85775000D02*
X136625000Y-85775000D01*
X136625000Y-85775000D02*
X137050000Y-86200000D01*
D23*
X152098000Y-72114000D02*
X154164000Y-72114000D01*
X154164000Y-72114000D02*
X154175000Y-72125000D01*
X141098000Y-72114000D02*
X143039000Y-72114000D01*
X143039000Y-72114000D02*
X143050000Y-72125000D01*
X141098000Y-82914000D02*
X143114000Y-82914000D01*
X143114000Y-82914000D02*
X143125000Y-82925000D01*
X152098000Y-82914000D02*
X154139000Y-82914000D01*
X154139000Y-82914000D02*
X154150000Y-82925000D01*
D24*
X152499360Y-100000000D02*
X153500120Y-100000000D01*
X153500120Y-100000000D02*
X154500880Y-100000000D01*
X154500880Y-100000000D02*
X155499100Y-100000000D01*
X155499100Y-100000000D02*
X156499860Y-100000000D01*
X156499860Y-100000000D02*
X157500620Y-100000000D01*
X157500620Y-100000000D02*
X158498840Y-100000000D01*
X158498840Y-100000000D02*
X159499600Y-100000000D01*
D21*
X159499600Y-102301240D02*
X159499600Y-100000000D01*
X158498840Y-102301240D02*
X158498840Y-100000000D01*
X157500620Y-102301240D02*
X157500620Y-100000000D01*
X156499860Y-102301240D02*
X156499860Y-100000000D01*
X155499100Y-102301240D02*
X155499100Y-100000000D01*
X154500880Y-102301240D02*
X154500880Y-100000000D01*
X153500120Y-102301240D02*
X153500120Y-100000000D01*
X152499360Y-102301240D02*
X152499360Y-100000000D01*
D24*
X150500380Y-100000000D02*
X150500380Y-92500380D01*
X133575000Y-81225000D02*
X134950000Y-81225000D01*
X133000000Y-81800000D02*
X133575000Y-81225000D01*
X133000000Y-86800000D02*
X133000000Y-81800000D01*
X134000000Y-87800000D02*
X133000000Y-86800000D01*
X135500000Y-87800000D02*
X134000000Y-87800000D01*
X135824998Y-88975002D02*
X135600000Y-89200000D01*
X146975002Y-88975002D02*
X135824998Y-88975002D01*
X150500380Y-92500380D02*
X146975002Y-88975002D01*
D25*
X135000000Y-79150000D02*
X135000000Y-81175000D01*
X135000000Y-81175000D02*
X134950000Y-81225000D01*
X151501140Y-100000000D02*
X150500380Y-100000000D01*
X150500380Y-100000000D02*
X149499620Y-100000000D01*
D21*
X151501140Y-102301240D02*
X151501140Y-100000000D01*
X150500380Y-102301240D02*
X150500380Y-100000000D01*
X149499620Y-102301240D02*
X149499620Y-100000000D01*
X144500900Y-102301240D02*
X144500900Y-100000000D01*
X143500140Y-102301240D02*
X143500140Y-100000000D01*
X142499380Y-102301240D02*
X142499380Y-100000000D01*
X146499880Y-102301240D02*
X146499880Y-100000000D01*
X145499120Y-102301240D02*
X145499120Y-100000000D01*
D24*
X126875000Y-81225000D02*
X129050000Y-81225000D01*
X126300000Y-81800000D02*
X126875000Y-81225000D01*
X126300000Y-87500000D02*
X126300000Y-81800000D01*
X128800000Y-90000000D02*
X126300000Y-87500000D01*
X136000000Y-90000000D02*
X128800000Y-90000000D01*
X136374996Y-89625004D02*
X136000000Y-90000000D01*
X146705762Y-89625004D02*
X136374996Y-89625004D01*
X149290379Y-92209621D02*
X146705762Y-89625004D01*
X149290379Y-92890379D02*
X149290379Y-92209621D01*
X149500000Y-93100000D02*
X149290379Y-92890379D01*
D25*
X129000000Y-79150000D02*
X129000000Y-81175000D01*
X129000000Y-81175000D02*
X129050000Y-81225000D01*
D21*
X136575000Y-83825000D02*
X134950000Y-83825000D01*
X136500000Y-82525000D02*
X134950000Y-82525000D01*
X129050000Y-86775000D02*
X129050000Y-85775000D01*
X146450000Y-93175000D02*
X142650000Y-93175000D01*
X146475000Y-93150000D02*
X146450000Y-93175000D01*
X136475000Y-85125000D02*
X134950000Y-85125000D01*
X152098000Y-87486000D02*
X151264000Y-87486000D01*
X151264000Y-87486000D02*
X150250000Y-88500000D01*
X150250000Y-88500000D02*
X132000000Y-88500000D01*
X132000000Y-88500000D02*
X131000000Y-87500000D01*
X131000000Y-87500000D02*
X131000000Y-85750000D01*
X131000000Y-85750000D02*
X130375000Y-85125000D01*
X130375000Y-85125000D02*
X129050000Y-85125000D01*
X141098000Y-87486000D02*
X138986000Y-87486000D01*
X137725000Y-84475000D02*
X134950000Y-84475000D01*
X138250000Y-85000000D02*
X137725000Y-84475000D01*
X138250000Y-86750000D02*
X138250000Y-85000000D01*
X138986000Y-87486000D02*
X138250000Y-86750000D01*
X134950000Y-83175000D02*
X137825000Y-83175000D01*
X139314000Y-76686000D02*
X141098000Y-76686000D01*
X138750000Y-77250000D02*
X139314000Y-76686000D01*
X138750000Y-82250000D02*
X138750000Y-77250000D01*
X137825000Y-83175000D02*
X138750000Y-82250000D01*
X134950000Y-81875000D02*
X138000000Y-81875000D01*
X149811000Y-76686000D02*
X152098000Y-76686000D01*
X149575000Y-76450000D02*
X149811000Y-76686000D01*
X149575000Y-72550000D02*
X149575000Y-76450000D01*
X149125000Y-72100000D02*
X149575000Y-72550000D01*
X145775000Y-72100000D02*
X149125000Y-72100000D01*
X144625000Y-73250000D02*
X145775000Y-72100000D01*
X139125000Y-73250000D02*
X144625000Y-73250000D01*
X138449998Y-73925002D02*
X139125000Y-73250000D01*
X138449998Y-81425002D02*
X138449998Y-73925002D01*
X138000000Y-81875000D02*
X138449998Y-81425002D01*
D26*
X158702000Y-74400000D02*
X163150000Y-74400000D01*
X165000000Y-76250000D02*
X165000000Y-78190000D01*
X163150000Y-74400000D02*
X165000000Y-76250000D01*
D23*
X152098000Y-74400000D02*
X158702000Y-74400000D01*
D26*
X147702000Y-74400000D02*
X147702000Y-77702000D01*
X162730000Y-80730000D02*
X165000000Y-80730000D01*
X161250000Y-79250000D02*
X162730000Y-80730000D01*
X149250000Y-79250000D02*
X161250000Y-79250000D01*
X147702000Y-77702000D02*
X149250000Y-79250000D01*
D23*
X141098000Y-74400000D02*
X147702000Y-74400000D01*
D26*
X147702000Y-85200000D02*
X147702000Y-82798000D01*
X162520000Y-83270000D02*
X165000000Y-83270000D01*
X160500000Y-81250000D02*
X162520000Y-83270000D01*
X149250000Y-81250000D02*
X160500000Y-81250000D01*
X147702000Y-82798000D02*
X149250000Y-81250000D01*
D23*
X141098000Y-85200000D02*
X147702000Y-85200000D01*
D26*
X158702000Y-85200000D02*
X159312000Y-85810000D01*
X159312000Y-85810000D02*
X165000000Y-85810000D01*
D23*
X152098000Y-85200000D02*
X158702000Y-85200000D01*
D27*
G36*
X169597716Y-70402284D02*
X169605000Y-70438903D01*
X169605000Y-93061097D01*
X169597716Y-93097716D01*
X169561098Y-93105000D01*
X161100000Y-93105000D01*
X161061843Y-93112590D01*
X161022939Y-93112590D01*
X160659391Y-93184904D01*
X160659390Y-93184904D01*
X160517000Y-93243884D01*
X160208798Y-93449819D01*
X160154309Y-93504309D01*
X160099819Y-93558798D01*
X159893884Y-93867000D01*
X159834904Y-94009390D01*
X159834904Y-94009391D01*
X159762590Y-94372940D01*
X159762590Y-94411843D01*
X159755000Y-94450000D01*
X159755000Y-97600030D01*
X159549600Y-97600030D01*
X159524600Y-97625030D01*
X159524600Y-99975000D01*
X159544600Y-99975000D01*
X159544600Y-100025000D01*
X159524600Y-100025000D01*
X159524600Y-100045000D01*
X159474600Y-100045000D01*
X159474600Y-100025000D01*
X159099480Y-100025000D01*
X159074480Y-100050000D01*
X159074480Y-102220746D01*
X159072993Y-102224532D01*
X159074480Y-102305174D01*
X159074480Y-102319861D01*
X159074763Y-102320545D01*
X159076111Y-102393626D01*
X159134821Y-102535365D01*
X159193647Y-102571838D01*
X159365515Y-102399970D01*
X159436225Y-102399970D01*
X159229002Y-102607193D01*
X159265475Y-102666019D01*
X159422892Y-102727847D01*
X159591986Y-102724729D01*
X159733725Y-102666019D01*
X159755000Y-102631705D01*
X159755000Y-102861097D01*
X159747716Y-102897716D01*
X159711098Y-102905000D01*
X151729269Y-102905000D01*
X151866094Y-102848465D01*
X152047728Y-102667148D01*
X152118535Y-102496626D01*
X152134581Y-102535365D01*
X152193407Y-102571838D01*
X152365275Y-102399970D01*
X152435985Y-102399970D01*
X152228762Y-102607193D01*
X152265235Y-102666019D01*
X152422652Y-102727847D01*
X152591746Y-102724729D01*
X152733485Y-102666019D01*
X152769958Y-102607193D01*
X152562735Y-102399970D01*
X152633445Y-102399970D01*
X152805313Y-102571838D01*
X152864139Y-102535365D01*
X152925967Y-102377948D01*
X152924480Y-102297306D01*
X152924480Y-102224532D01*
X153073513Y-102224532D01*
X153075000Y-102305174D01*
X153075000Y-102319861D01*
X153075283Y-102320545D01*
X153076631Y-102393626D01*
X153135341Y-102535365D01*
X153194167Y-102571838D01*
X153366035Y-102399970D01*
X153436745Y-102399970D01*
X153229522Y-102607193D01*
X153265995Y-102666019D01*
X153423412Y-102727847D01*
X153592506Y-102724729D01*
X153734245Y-102666019D01*
X153770718Y-102607193D01*
X153563495Y-102399970D01*
X153634205Y-102399970D01*
X153806073Y-102571838D01*
X153864899Y-102535365D01*
X153926727Y-102377948D01*
X153925240Y-102297306D01*
X153925240Y-102224532D01*
X154074273Y-102224532D01*
X154075760Y-102305174D01*
X154075760Y-102319861D01*
X154076043Y-102320545D01*
X154077391Y-102393626D01*
X154136101Y-102535365D01*
X154194927Y-102571838D01*
X154366795Y-102399970D01*
X154437505Y-102399970D01*
X154230282Y-102607193D01*
X154266755Y-102666019D01*
X154424172Y-102727847D01*
X154593266Y-102724729D01*
X154735005Y-102666019D01*
X154771478Y-102607193D01*
X154564255Y-102399970D01*
X154634965Y-102399970D01*
X154806833Y-102571838D01*
X154865659Y-102535365D01*
X154927487Y-102377948D01*
X154926000Y-102297306D01*
X154926000Y-102224532D01*
X155072493Y-102224532D01*
X155073980Y-102305174D01*
X155073980Y-102319861D01*
X155074263Y-102320545D01*
X155075611Y-102393626D01*
X155134321Y-102535365D01*
X155193147Y-102571838D01*
X155365015Y-102399970D01*
X155435725Y-102399970D01*
X155228502Y-102607193D01*
X155264975Y-102666019D01*
X155422392Y-102727847D01*
X155591486Y-102724729D01*
X155733225Y-102666019D01*
X155769698Y-102607193D01*
X155562475Y-102399970D01*
X155633185Y-102399970D01*
X155805053Y-102571838D01*
X155863879Y-102535365D01*
X155925707Y-102377948D01*
X155924220Y-102297306D01*
X155924220Y-102224532D01*
X156073253Y-102224532D01*
X156074740Y-102305174D01*
X156074740Y-102319861D01*
X156075023Y-102320545D01*
X156076371Y-102393626D01*
X156135081Y-102535365D01*
X156193907Y-102571838D01*
X156365775Y-102399970D01*
X156436485Y-102399970D01*
X156229262Y-102607193D01*
X156265735Y-102666019D01*
X156423152Y-102727847D01*
X156592246Y-102724729D01*
X156733985Y-102666019D01*
X156770458Y-102607193D01*
X156563235Y-102399970D01*
X156633945Y-102399970D01*
X156805813Y-102571838D01*
X156864639Y-102535365D01*
X156926467Y-102377948D01*
X156924980Y-102297306D01*
X156924980Y-102224532D01*
X157074013Y-102224532D01*
X157075500Y-102305174D01*
X157075500Y-102319861D01*
X157075783Y-102320545D01*
X157077131Y-102393626D01*
X157135841Y-102535365D01*
X157194667Y-102571838D01*
X157366535Y-102399970D01*
X157437245Y-102399970D01*
X157230022Y-102607193D01*
X157266495Y-102666019D01*
X157423912Y-102727847D01*
X157593006Y-102724729D01*
X157734745Y-102666019D01*
X157771218Y-102607193D01*
X157563995Y-102399970D01*
X157634705Y-102399970D01*
X157806573Y-102571838D01*
X157865399Y-102535365D01*
X157927227Y-102377948D01*
X157925740Y-102297306D01*
X157925740Y-102224532D01*
X158072233Y-102224532D01*
X158073720Y-102305174D01*
X158073720Y-102319861D01*
X158074003Y-102320545D01*
X158075351Y-102393626D01*
X158134061Y-102535365D01*
X158192887Y-102571838D01*
X158364755Y-102399970D01*
X158435465Y-102399970D01*
X158228242Y-102607193D01*
X158264715Y-102666019D01*
X158422132Y-102727847D01*
X158591226Y-102724729D01*
X158732965Y-102666019D01*
X158769438Y-102607193D01*
X158562215Y-102399970D01*
X158632925Y-102399970D01*
X158804793Y-102571838D01*
X158863619Y-102535365D01*
X158925447Y-102377948D01*
X158923960Y-102297306D01*
X158923960Y-100050000D01*
X158898960Y-100025000D01*
X158523840Y-100025000D01*
X158523840Y-100045000D01*
X158473840Y-100045000D01*
X158473840Y-100025000D01*
X158098720Y-100025000D01*
X158073720Y-100050000D01*
X158073720Y-102220746D01*
X158072233Y-102224532D01*
X157925740Y-102224532D01*
X157925740Y-100050000D01*
X157900740Y-100025000D01*
X157525620Y-100025000D01*
X157525620Y-100045000D01*
X157475620Y-100045000D01*
X157475620Y-100025000D01*
X157100500Y-100025000D01*
X157075500Y-100050000D01*
X157075500Y-102220746D01*
X157074013Y-102224532D01*
X156924980Y-102224532D01*
X156924980Y-100050000D01*
X156899980Y-100025000D01*
X156524860Y-100025000D01*
X156524860Y-100045000D01*
X156474860Y-100045000D01*
X156474860Y-100025000D01*
X156099740Y-100025000D01*
X156074740Y-100050000D01*
X156074740Y-102220746D01*
X156073253Y-102224532D01*
X155924220Y-102224532D01*
X155924220Y-100050000D01*
X155899220Y-100025000D01*
X155524100Y-100025000D01*
X155524100Y-100045000D01*
X155474100Y-100045000D01*
X155474100Y-100025000D01*
X155098980Y-100025000D01*
X155073980Y-100050000D01*
X155073980Y-102220746D01*
X155072493Y-102224532D01*
X154926000Y-102224532D01*
X154926000Y-100050000D01*
X154901000Y-100025000D01*
X154525880Y-100025000D01*
X154525880Y-100045000D01*
X154475880Y-100045000D01*
X154475880Y-100025000D01*
X154100760Y-100025000D01*
X154075760Y-100050000D01*
X154075760Y-102220746D01*
X154074273Y-102224532D01*
X153925240Y-102224532D01*
X153925240Y-100050000D01*
X153900240Y-100025000D01*
X153525120Y-100025000D01*
X153525120Y-100045000D01*
X153475120Y-100045000D01*
X153475120Y-100025000D01*
X153100000Y-100025000D01*
X153075000Y-100050000D01*
X153075000Y-102220746D01*
X153073513Y-102224532D01*
X152924480Y-102224532D01*
X152924480Y-100050000D01*
X152899480Y-100025000D01*
X152524360Y-100025000D01*
X152524360Y-100045000D01*
X152474360Y-100045000D01*
X152474360Y-100025000D01*
X152454360Y-100025000D01*
X152454360Y-99975000D01*
X152474360Y-99975000D01*
X152474360Y-97625030D01*
X152524360Y-97625030D01*
X152524360Y-99975000D01*
X152899480Y-99975000D01*
X152924480Y-99950000D01*
X152924480Y-97680139D01*
X153075000Y-97680139D01*
X153075000Y-99950000D01*
X153100000Y-99975000D01*
X153475120Y-99975000D01*
X153475120Y-97625030D01*
X153525120Y-97625030D01*
X153525120Y-99975000D01*
X153900240Y-99975000D01*
X153925240Y-99950000D01*
X153925240Y-97680139D01*
X154075760Y-97680139D01*
X154075760Y-99950000D01*
X154100760Y-99975000D01*
X154475880Y-99975000D01*
X154475880Y-97625030D01*
X154525880Y-97625030D01*
X154525880Y-99975000D01*
X154901000Y-99975000D01*
X154926000Y-99950000D01*
X154926000Y-97680139D01*
X155073980Y-97680139D01*
X155073980Y-99950000D01*
X155098980Y-99975000D01*
X155474100Y-99975000D01*
X155474100Y-97625030D01*
X155524100Y-97625030D01*
X155524100Y-99975000D01*
X155899220Y-99975000D01*
X155924220Y-99950000D01*
X155924220Y-97680139D01*
X156074740Y-97680139D01*
X156074740Y-99950000D01*
X156099740Y-99975000D01*
X156474860Y-99975000D01*
X156474860Y-97625030D01*
X156524860Y-97625030D01*
X156524860Y-99975000D01*
X156899980Y-99975000D01*
X156924980Y-99950000D01*
X156924980Y-97680139D01*
X157075500Y-97680139D01*
X157075500Y-99950000D01*
X157100500Y-99975000D01*
X157475620Y-99975000D01*
X157475620Y-97625030D01*
X157525620Y-97625030D01*
X157525620Y-99975000D01*
X157900740Y-99975000D01*
X157925740Y-99950000D01*
X157925740Y-97680139D01*
X158073720Y-97680139D01*
X158073720Y-99950000D01*
X158098720Y-99975000D01*
X158473840Y-99975000D01*
X158473840Y-97625030D01*
X158523840Y-97625030D01*
X158523840Y-99975000D01*
X158898960Y-99975000D01*
X158923960Y-99950000D01*
X158923960Y-97680139D01*
X159074480Y-97680139D01*
X159074480Y-99950000D01*
X159099480Y-99975000D01*
X159474600Y-99975000D01*
X159474600Y-97625030D01*
X159449600Y-97600030D01*
X159154589Y-97600030D01*
X159117835Y-97615254D01*
X159089704Y-97643384D01*
X159074480Y-97680139D01*
X158923960Y-97680139D01*
X158908736Y-97643384D01*
X158880605Y-97615254D01*
X158843851Y-97600030D01*
X158548840Y-97600030D01*
X158523840Y-97625030D01*
X158473840Y-97625030D01*
X158448840Y-97600030D01*
X158153829Y-97600030D01*
X158117075Y-97615254D01*
X158088944Y-97643384D01*
X158073720Y-97680139D01*
X157925740Y-97680139D01*
X157910516Y-97643384D01*
X157882385Y-97615254D01*
X157845631Y-97600030D01*
X157550620Y-97600030D01*
X157525620Y-97625030D01*
X157475620Y-97625030D01*
X157450620Y-97600030D01*
X157155609Y-97600030D01*
X157118855Y-97615254D01*
X157090724Y-97643384D01*
X157075500Y-97680139D01*
X156924980Y-97680139D01*
X156909756Y-97643384D01*
X156881625Y-97615254D01*
X156844871Y-97600030D01*
X156549860Y-97600030D01*
X156524860Y-97625030D01*
X156474860Y-97625030D01*
X156449860Y-97600030D01*
X156154849Y-97600030D01*
X156118095Y-97615254D01*
X156089964Y-97643384D01*
X156074740Y-97680139D01*
X155924220Y-97680139D01*
X155908996Y-97643384D01*
X155880865Y-97615254D01*
X155844111Y-97600030D01*
X155549100Y-97600030D01*
X155524100Y-97625030D01*
X155474100Y-97625030D01*
X155449100Y-97600030D01*
X155154089Y-97600030D01*
X155117335Y-97615254D01*
X155089204Y-97643384D01*
X155073980Y-97680139D01*
X154926000Y-97680139D01*
X154910776Y-97643384D01*
X154882645Y-97615254D01*
X154845891Y-97600030D01*
X154550880Y-97600030D01*
X154525880Y-97625030D01*
X154475880Y-97625030D01*
X154450880Y-97600030D01*
X154155869Y-97600030D01*
X154119115Y-97615254D01*
X154090984Y-97643384D01*
X154075760Y-97680139D01*
X153925240Y-97680139D01*
X153910016Y-97643384D01*
X153881885Y-97615254D01*
X153845131Y-97600030D01*
X153550120Y-97600030D01*
X153525120Y-97625030D01*
X153475120Y-97625030D01*
X153450120Y-97600030D01*
X153155109Y-97600030D01*
X153118355Y-97615254D01*
X153090224Y-97643384D01*
X153075000Y-97680139D01*
X152924480Y-97680139D01*
X152909256Y-97643384D01*
X152881125Y-97615254D01*
X152844371Y-97600030D01*
X152549360Y-97600030D01*
X152524360Y-97625030D01*
X152474360Y-97625030D01*
X152449360Y-97600030D01*
X152154349Y-97600030D01*
X152135205Y-97607960D01*
X152130216Y-97581445D01*
X152060132Y-97472532D01*
X151953197Y-97399466D01*
X151826260Y-97373761D01*
X151176020Y-97373761D01*
X151070380Y-97393638D01*
X151070380Y-92500380D01*
X151026991Y-92282250D01*
X150903431Y-92097329D01*
X147701102Y-88895000D01*
X150250000Y-88895000D01*
X150401160Y-88864932D01*
X150529307Y-88779307D01*
X151004117Y-88304497D01*
X151082000Y-88320269D01*
X153114000Y-88320269D01*
X153232585Y-88297956D01*
X153341498Y-88227872D01*
X153414564Y-88120937D01*
X153440269Y-87994000D01*
X153440269Y-86978000D01*
X153417956Y-86859415D01*
X153347872Y-86750502D01*
X153240937Y-86677436D01*
X153114000Y-86651731D01*
X151082000Y-86651731D01*
X150963415Y-86674044D01*
X150854502Y-86744128D01*
X150781436Y-86851063D01*
X150755731Y-86978000D01*
X150755731Y-87435655D01*
X150086386Y-88105000D01*
X142417791Y-88105000D01*
X142440269Y-87994000D01*
X142440269Y-86978000D01*
X142417956Y-86859415D01*
X142347872Y-86750502D01*
X142240937Y-86677436D01*
X142114000Y-86651731D01*
X140082000Y-86651731D01*
X139963415Y-86674044D01*
X139854502Y-86744128D01*
X139781436Y-86851063D01*
X139755731Y-86978000D01*
X139755731Y-87091000D01*
X139149614Y-87091000D01*
X138645000Y-86586386D01*
X138645000Y-85000000D01*
X138614932Y-84848840D01*
X138529307Y-84720693D01*
X138004307Y-84195693D01*
X137876160Y-84110068D01*
X137725000Y-84080000D01*
X137140441Y-84080000D01*
X137194893Y-83948867D01*
X137195108Y-83702215D01*
X137140477Y-83570000D01*
X137825000Y-83570000D01*
X137976160Y-83539932D01*
X138104307Y-83454307D01*
X139029308Y-82529307D01*
X139093612Y-82433068D01*
X139114932Y-82401160D01*
X139145000Y-82250000D01*
X139145000Y-77413614D01*
X139477614Y-77081000D01*
X139755731Y-77081000D01*
X139755731Y-77194000D01*
X139778044Y-77312585D01*
X139848128Y-77421498D01*
X139955063Y-77494564D01*
X140082000Y-77520269D01*
X142114000Y-77520269D01*
X142232585Y-77497956D01*
X142341498Y-77427872D01*
X142414564Y-77320937D01*
X142440269Y-77194000D01*
X142440269Y-76178000D01*
X142417956Y-76059415D01*
X142347872Y-75950502D01*
X142240937Y-75877436D01*
X142114000Y-75851731D01*
X140082000Y-75851731D01*
X139963415Y-75874044D01*
X139854502Y-75944128D01*
X139781436Y-76051063D01*
X139755731Y-76178000D01*
X139755731Y-76291000D01*
X139314000Y-76291000D01*
X139162840Y-76321068D01*
X139034693Y-76406693D01*
X138844998Y-76596388D01*
X138844998Y-74088616D01*
X139288614Y-73645000D01*
X139874903Y-73645000D01*
X139854502Y-73658128D01*
X139781436Y-73765063D01*
X139755731Y-73892000D01*
X139755731Y-74908000D01*
X139778044Y-75026585D01*
X139848128Y-75135498D01*
X139955063Y-75208564D01*
X140082000Y-75234269D01*
X142114000Y-75234269D01*
X142189834Y-75220000D01*
X146359731Y-75220000D01*
X146359731Y-76228800D01*
X146382044Y-76347385D01*
X146452128Y-76456298D01*
X146559063Y-76529364D01*
X146632000Y-76544134D01*
X146632000Y-77702000D01*
X146713449Y-78111471D01*
X146945396Y-78458604D01*
X148493396Y-80006605D01*
X148840529Y-80238551D01*
X148898087Y-80250000D01*
X148840529Y-80261449D01*
X148493396Y-80493395D01*
X146945396Y-82041396D01*
X146713449Y-82388529D01*
X146632000Y-82798000D01*
X146632000Y-83055092D01*
X146567415Y-83067244D01*
X146458502Y-83137328D01*
X146385436Y-83244263D01*
X146359731Y-83371200D01*
X146359731Y-84380000D01*
X142184463Y-84380000D01*
X142114000Y-84365731D01*
X140082000Y-84365731D01*
X139963415Y-84388044D01*
X139854502Y-84458128D01*
X139781436Y-84565063D01*
X139755731Y-84692000D01*
X139755731Y-85708000D01*
X139778044Y-85826585D01*
X139848128Y-85935498D01*
X139955063Y-86008564D01*
X140082000Y-86034269D01*
X142114000Y-86034269D01*
X142189834Y-86020000D01*
X146359731Y-86020000D01*
X146359731Y-87028800D01*
X146382044Y-87147385D01*
X146452128Y-87256298D01*
X146559063Y-87329364D01*
X146686000Y-87355069D01*
X148718000Y-87355069D01*
X148836585Y-87332756D01*
X148945498Y-87262672D01*
X149018564Y-87155737D01*
X149044269Y-87028800D01*
X149044269Y-84692000D01*
X150755731Y-84692000D01*
X150755731Y-85708000D01*
X150778044Y-85826585D01*
X150848128Y-85935498D01*
X150955063Y-86008564D01*
X151082000Y-86034269D01*
X153114000Y-86034269D01*
X153189834Y-86020000D01*
X157359731Y-86020000D01*
X157359731Y-87028800D01*
X157382044Y-87147385D01*
X157452128Y-87256298D01*
X157559063Y-87329364D01*
X157686000Y-87355069D01*
X159718000Y-87355069D01*
X159836585Y-87332756D01*
X159945498Y-87262672D01*
X160018564Y-87155737D01*
X160044269Y-87028800D01*
X160044269Y-86880000D01*
X164333306Y-86880000D01*
X164368482Y-86903504D01*
X164821426Y-86993600D01*
X165178574Y-86993600D01*
X165631518Y-86903504D01*
X166015506Y-86646932D01*
X166270000Y-86266054D01*
X166524494Y-86646932D01*
X166908482Y-86903504D01*
X167361426Y-86993600D01*
X167718574Y-86993600D01*
X168171518Y-86903504D01*
X168555506Y-86646932D01*
X168812078Y-86262944D01*
X168902174Y-85810000D01*
X168812078Y-85357056D01*
X168555506Y-84973068D01*
X168171518Y-84716496D01*
X167718574Y-84626400D01*
X167361426Y-84626400D01*
X166908482Y-84716496D01*
X166524494Y-84973068D01*
X166270000Y-85353946D01*
X166015506Y-84973068D01*
X165631518Y-84716496D01*
X165178574Y-84626400D01*
X164821426Y-84626400D01*
X164368482Y-84716496D01*
X164333306Y-84740000D01*
X160044269Y-84740000D01*
X160044269Y-83371200D01*
X160021956Y-83252615D01*
X159951872Y-83143702D01*
X159844937Y-83070636D01*
X159718000Y-83044931D01*
X157686000Y-83044931D01*
X157567415Y-83067244D01*
X157458502Y-83137328D01*
X157385436Y-83244263D01*
X157359731Y-83371200D01*
X157359731Y-84380000D01*
X153184463Y-84380000D01*
X153114000Y-84365731D01*
X151082000Y-84365731D01*
X150963415Y-84388044D01*
X150854502Y-84458128D01*
X150781436Y-84565063D01*
X150755731Y-84692000D01*
X149044269Y-84692000D01*
X149044269Y-83371200D01*
X149021956Y-83252615D01*
X148951872Y-83143702D01*
X148902940Y-83110268D01*
X149693209Y-82320000D01*
X160056792Y-82320000D01*
X161763395Y-84026604D01*
X162110528Y-84258551D01*
X162178464Y-84272064D01*
X162520000Y-84340000D01*
X164333306Y-84340000D01*
X164368482Y-84363504D01*
X164821426Y-84453600D01*
X165178574Y-84453600D01*
X165631518Y-84363504D01*
X166015506Y-84106932D01*
X166270000Y-83726054D01*
X166524494Y-84106932D01*
X166908482Y-84363504D01*
X167361426Y-84453600D01*
X167718574Y-84453600D01*
X168171518Y-84363504D01*
X168555506Y-84106932D01*
X168812078Y-83722944D01*
X168902174Y-83270000D01*
X168812078Y-82817056D01*
X168555506Y-82433068D01*
X168171518Y-82176496D01*
X167718574Y-82086400D01*
X167361426Y-82086400D01*
X166908482Y-82176496D01*
X166524494Y-82433068D01*
X166270000Y-82813946D01*
X166015506Y-82433068D01*
X165631518Y-82176496D01*
X165178574Y-82086400D01*
X164821426Y-82086400D01*
X164368482Y-82176496D01*
X164333306Y-82200000D01*
X162963209Y-82200000D01*
X162521794Y-81758585D01*
X162730000Y-81800000D01*
X164333306Y-81800000D01*
X164368482Y-81823504D01*
X164821426Y-81913600D01*
X165178574Y-81913600D01*
X165631518Y-81823504D01*
X166015506Y-81566932D01*
X166270000Y-81186054D01*
X166524494Y-81566932D01*
X166908482Y-81823504D01*
X167361426Y-81913600D01*
X167718574Y-81913600D01*
X168171518Y-81823504D01*
X168555506Y-81566932D01*
X168812078Y-81182944D01*
X168902174Y-80730000D01*
X168812078Y-80277056D01*
X168555506Y-79893068D01*
X168171518Y-79636496D01*
X167718574Y-79546400D01*
X167361426Y-79546400D01*
X166908482Y-79636496D01*
X166524494Y-79893068D01*
X166270000Y-80273946D01*
X166015506Y-79893068D01*
X165631518Y-79636496D01*
X165178574Y-79546400D01*
X164821426Y-79546400D01*
X164368482Y-79636496D01*
X164333306Y-79660000D01*
X163173208Y-79660000D01*
X162006604Y-78493396D01*
X161659471Y-78261449D01*
X161250000Y-78180000D01*
X149693209Y-78180000D01*
X148772000Y-77258792D01*
X148772000Y-76544908D01*
X148836585Y-76532756D01*
X148945498Y-76462672D01*
X149018564Y-76355737D01*
X149044269Y-76228800D01*
X149044269Y-72577883D01*
X149180000Y-72713614D01*
X149180000Y-76450000D01*
X149210068Y-76601160D01*
X149295693Y-76729307D01*
X149531693Y-76965307D01*
X149659840Y-77050932D01*
X149811000Y-77081000D01*
X150755731Y-77081000D01*
X150755731Y-77194000D01*
X150778044Y-77312585D01*
X150848128Y-77421498D01*
X150955063Y-77494564D01*
X151082000Y-77520269D01*
X153114000Y-77520269D01*
X153232585Y-77497956D01*
X153341498Y-77427872D01*
X153414564Y-77320937D01*
X153440269Y-77194000D01*
X153440269Y-76178000D01*
X153417956Y-76059415D01*
X153347872Y-75950502D01*
X153240937Y-75877436D01*
X153114000Y-75851731D01*
X151082000Y-75851731D01*
X150963415Y-75874044D01*
X150854502Y-75944128D01*
X150781436Y-76051063D01*
X150755731Y-76178000D01*
X150755731Y-76291000D01*
X149974614Y-76291000D01*
X149970000Y-76286386D01*
X149970000Y-73892000D01*
X150755731Y-73892000D01*
X150755731Y-74908000D01*
X150778044Y-75026585D01*
X150848128Y-75135498D01*
X150955063Y-75208564D01*
X151082000Y-75234269D01*
X153114000Y-75234269D01*
X153189834Y-75220000D01*
X157359731Y-75220000D01*
X157359731Y-76228800D01*
X157382044Y-76347385D01*
X157452128Y-76456298D01*
X157559063Y-76529364D01*
X157686000Y-76555069D01*
X159718000Y-76555069D01*
X159836585Y-76532756D01*
X159945498Y-76462672D01*
X160018564Y-76355737D01*
X160044269Y-76228800D01*
X160044269Y-75470000D01*
X162706792Y-75470000D01*
X163930000Y-76693208D01*
X163930000Y-77010292D01*
X163865415Y-77022444D01*
X163756502Y-77092528D01*
X163683436Y-77199463D01*
X163657731Y-77326400D01*
X163657731Y-79053600D01*
X163680044Y-79172185D01*
X163750128Y-79281098D01*
X163857063Y-79354164D01*
X163984000Y-79379869D01*
X166016000Y-79379869D01*
X166134585Y-79357556D01*
X166243498Y-79287472D01*
X166269624Y-79249235D01*
X166290128Y-79281098D01*
X166397063Y-79354164D01*
X166524000Y-79379869D01*
X168556000Y-79379869D01*
X168674585Y-79357556D01*
X168783498Y-79287472D01*
X168856564Y-79180537D01*
X168882269Y-79053600D01*
X168882269Y-77326400D01*
X168859956Y-77207815D01*
X168789872Y-77098902D01*
X168682937Y-77025836D01*
X168556000Y-77000131D01*
X166524000Y-77000131D01*
X166405415Y-77022444D01*
X166296502Y-77092528D01*
X166270376Y-77130765D01*
X166249872Y-77098902D01*
X166142937Y-77025836D01*
X166070000Y-77011066D01*
X166070000Y-76250000D01*
X165988551Y-75840529D01*
X165756604Y-75493396D01*
X163906604Y-73643396D01*
X163559471Y-73411449D01*
X163150000Y-73330000D01*
X160044269Y-73330000D01*
X160044269Y-72571200D01*
X160021956Y-72452615D01*
X159951872Y-72343702D01*
X159844937Y-72270636D01*
X159718000Y-72244931D01*
X157686000Y-72244931D01*
X157567415Y-72267244D01*
X157458502Y-72337328D01*
X157385436Y-72444263D01*
X157359731Y-72571200D01*
X157359731Y-73580000D01*
X153184463Y-73580000D01*
X153114000Y-73565731D01*
X151082000Y-73565731D01*
X150963415Y-73588044D01*
X150854502Y-73658128D01*
X150781436Y-73765063D01*
X150755731Y-73892000D01*
X149970000Y-73892000D01*
X149970000Y-72550000D01*
X149939932Y-72398840D01*
X149854307Y-72270693D01*
X149404307Y-71820693D01*
X149276160Y-71735068D01*
X149125000Y-71705000D01*
X145775000Y-71705000D01*
X145623840Y-71735068D01*
X145495693Y-71820693D01*
X144461386Y-72855000D01*
X139125000Y-72855000D01*
X138973840Y-72885068D01*
X138845693Y-72970693D01*
X138170691Y-73645695D01*
X138085066Y-73773842D01*
X138054998Y-73925002D01*
X138054998Y-81261388D01*
X137836386Y-81480000D01*
X136020194Y-81480000D01*
X136026269Y-81450000D01*
X136026269Y-81000000D01*
X136003956Y-80881415D01*
X135933872Y-80772502D01*
X135826937Y-80699436D01*
X135700000Y-80673731D01*
X135520000Y-80673731D01*
X135520000Y-79836958D01*
X135602498Y-79783872D01*
X135675564Y-79676937D01*
X135701269Y-79550000D01*
X135701269Y-78750000D01*
X135678956Y-78631415D01*
X135608872Y-78522502D01*
X135501937Y-78449436D01*
X135375000Y-78423731D01*
X134625000Y-78423731D01*
X134506415Y-78446044D01*
X134397502Y-78516128D01*
X134324436Y-78623063D01*
X134298731Y-78750000D01*
X134298731Y-79550000D01*
X134321044Y-79668585D01*
X134391128Y-79777498D01*
X134480000Y-79838222D01*
X134480000Y-80655000D01*
X133575000Y-80655000D01*
X133356871Y-80698388D01*
X133171949Y-80821949D01*
X132596949Y-81396949D01*
X132473389Y-81581870D01*
X132430000Y-81800000D01*
X132430000Y-86800000D01*
X132473389Y-87018130D01*
X132558161Y-87145000D01*
X132596949Y-87203051D01*
X133498898Y-88105000D01*
X132163614Y-88105000D01*
X131395000Y-87336386D01*
X131395000Y-85750000D01*
X131364932Y-85598840D01*
X131332298Y-85550000D01*
X131279307Y-85470692D01*
X130654307Y-84845693D01*
X130526160Y-84760068D01*
X130375000Y-84730000D01*
X130070871Y-84730000D01*
X130033872Y-84672502D01*
X129926937Y-84599436D01*
X129900000Y-84593981D01*
X129900000Y-84525000D01*
X129875000Y-84500000D01*
X129075000Y-84500000D01*
X129075000Y-84520000D01*
X129025000Y-84520000D01*
X129025000Y-84500000D01*
X128225000Y-84500000D01*
X128200000Y-84525000D01*
X128200000Y-84592547D01*
X128181415Y-84596044D01*
X128072502Y-84666128D01*
X127999436Y-84773063D01*
X127973731Y-84900000D01*
X127973731Y-85350000D01*
X127993238Y-85453671D01*
X127973731Y-85550000D01*
X127973731Y-86000000D01*
X127996044Y-86118585D01*
X128066128Y-86227498D01*
X128173063Y-86300564D01*
X128300000Y-86326269D01*
X128621936Y-86326269D01*
X128524696Y-86423339D01*
X128430107Y-86651133D01*
X128429892Y-86897785D01*
X128524083Y-87125743D01*
X128698339Y-87300304D01*
X128926133Y-87394893D01*
X129172785Y-87395108D01*
X129400743Y-87300917D01*
X129575304Y-87126661D01*
X129669893Y-86898867D01*
X129670108Y-86652215D01*
X129575917Y-86424257D01*
X129478100Y-86326269D01*
X129800000Y-86326269D01*
X129918585Y-86303956D01*
X130027498Y-86233872D01*
X130100564Y-86126937D01*
X130126269Y-86000000D01*
X130126269Y-85550000D01*
X130120624Y-85520000D01*
X130211386Y-85520000D01*
X130605000Y-85913615D01*
X130605000Y-87500000D01*
X130635068Y-87651160D01*
X130720693Y-87779307D01*
X131720693Y-88779307D01*
X131848840Y-88864932D01*
X132000000Y-88895000D01*
X135055321Y-88895000D01*
X134980107Y-89076133D01*
X134979892Y-89322785D01*
X135024193Y-89430000D01*
X129036102Y-89430000D01*
X126870000Y-87263898D01*
X126870000Y-83600000D01*
X127973731Y-83600000D01*
X127973731Y-84050000D01*
X127996044Y-84168585D01*
X128066128Y-84277498D01*
X128173063Y-84350564D01*
X128200000Y-84356019D01*
X128200000Y-84425000D01*
X128225000Y-84450000D01*
X129025000Y-84450000D01*
X129025000Y-84430000D01*
X129075000Y-84430000D01*
X129075000Y-84450000D01*
X129875000Y-84450000D01*
X129900000Y-84425000D01*
X129900000Y-84357453D01*
X129918585Y-84353956D01*
X130027498Y-84283872D01*
X130100564Y-84176937D01*
X130126269Y-84050000D01*
X130126269Y-83600000D01*
X130103956Y-83481415D01*
X130033872Y-83372502D01*
X129926937Y-83299436D01*
X129900000Y-83293981D01*
X129900000Y-83225000D01*
X129875000Y-83200000D01*
X129075000Y-83200000D01*
X129075000Y-83220000D01*
X129025000Y-83220000D01*
X129025000Y-83200000D01*
X128225000Y-83200000D01*
X128200000Y-83225000D01*
X128200000Y-83292547D01*
X128181415Y-83296044D01*
X128072502Y-83366128D01*
X127999436Y-83473063D01*
X127973731Y-83600000D01*
X126870000Y-83600000D01*
X126870000Y-82575000D01*
X128200000Y-82575000D01*
X128200000Y-82769891D01*
X128215224Y-82806646D01*
X128243355Y-82834776D01*
X128280109Y-82850000D01*
X128243355Y-82865224D01*
X128215224Y-82893354D01*
X128200000Y-82930109D01*
X128200000Y-83125000D01*
X128225000Y-83150000D01*
X129025000Y-83150000D01*
X129025000Y-82875000D01*
X129000000Y-82850000D01*
X129025000Y-82825000D01*
X129025000Y-82550000D01*
X129075000Y-82550000D01*
X129075000Y-82825000D01*
X129100000Y-82850000D01*
X129075000Y-82875000D01*
X129075000Y-83150000D01*
X129875000Y-83150000D01*
X129900000Y-83125000D01*
X129900000Y-82930109D01*
X129884776Y-82893354D01*
X129856645Y-82865224D01*
X129819891Y-82850000D01*
X129856645Y-82834776D01*
X129884776Y-82806646D01*
X129900000Y-82769891D01*
X129900000Y-82575000D01*
X129875000Y-82550000D01*
X129075000Y-82550000D01*
X129025000Y-82550000D01*
X128225000Y-82550000D01*
X128200000Y-82575000D01*
X126870000Y-82575000D01*
X126870000Y-82036102D01*
X127111102Y-81795000D01*
X127973731Y-81795000D01*
X127973731Y-82100000D01*
X127996044Y-82218585D01*
X128066128Y-82327498D01*
X128173063Y-82400564D01*
X128200000Y-82406019D01*
X128200000Y-82475000D01*
X128225000Y-82500000D01*
X129025000Y-82500000D01*
X129025000Y-82480000D01*
X129075000Y-82480000D01*
X129075000Y-82500000D01*
X129875000Y-82500000D01*
X129900000Y-82475000D01*
X129900000Y-82407453D01*
X129918585Y-82403956D01*
X130027498Y-82333872D01*
X130100564Y-82226937D01*
X130126269Y-82100000D01*
X130126269Y-81650000D01*
X130106762Y-81546329D01*
X130126269Y-81450000D01*
X130126269Y-81000000D01*
X130103956Y-80881415D01*
X130033872Y-80772502D01*
X129926937Y-80699436D01*
X129800000Y-80673731D01*
X129520000Y-80673731D01*
X129520000Y-79836958D01*
X129602498Y-79783872D01*
X129675564Y-79676937D01*
X129701269Y-79550000D01*
X129701269Y-78750000D01*
X129678956Y-78631415D01*
X129608872Y-78522502D01*
X129501937Y-78449436D01*
X129375000Y-78423731D01*
X128625000Y-78423731D01*
X128506415Y-78446044D01*
X128397502Y-78516128D01*
X128324436Y-78623063D01*
X128298731Y-78750000D01*
X128298731Y-79550000D01*
X128321044Y-79668585D01*
X128391128Y-79777498D01*
X128480000Y-79838222D01*
X128480000Y-80655000D01*
X126875000Y-80655000D01*
X126656871Y-80698388D01*
X126471949Y-80821949D01*
X125896949Y-81396949D01*
X125773389Y-81581870D01*
X125730000Y-81800000D01*
X125730000Y-87500000D01*
X125773389Y-87718130D01*
X125828093Y-87800000D01*
X125896949Y-87903051D01*
X128396949Y-90403051D01*
X128581870Y-90526611D01*
X128800000Y-90570000D01*
X136000000Y-90570000D01*
X136218130Y-90526611D01*
X136403051Y-90403051D01*
X136611098Y-90195004D01*
X146469660Y-90195004D01*
X148720379Y-92445723D01*
X148720379Y-92890379D01*
X148763768Y-93108509D01*
X148878722Y-93280550D01*
X148887328Y-93293430D01*
X148924400Y-93330502D01*
X148974083Y-93450743D01*
X149148339Y-93625304D01*
X149376133Y-93719893D01*
X149622785Y-93720108D01*
X149850743Y-93625917D01*
X149930380Y-93546419D01*
X149930380Y-97395153D01*
X149824740Y-97373761D01*
X149345000Y-97373761D01*
X149345000Y-94450000D01*
X149337410Y-94411843D01*
X149337410Y-94372939D01*
X149265096Y-94009391D01*
X149265096Y-94009390D01*
X149206116Y-93867000D01*
X149000181Y-93558798D01*
X148945691Y-93504309D01*
X148891202Y-93449819D01*
X148583000Y-93243884D01*
X148440610Y-93184904D01*
X148440609Y-93184904D01*
X148077062Y-93112590D01*
X147922939Y-93112590D01*
X147559391Y-93184904D01*
X147559390Y-93184904D01*
X147417000Y-93243884D01*
X147108798Y-93449819D01*
X147054309Y-93504309D01*
X146999819Y-93558798D01*
X146793884Y-93867000D01*
X146734904Y-94009390D01*
X146734904Y-94009391D01*
X146662590Y-94372940D01*
X146662590Y-94411843D01*
X146655000Y-94450000D01*
X146655000Y-97373761D01*
X146174760Y-97373761D01*
X146056175Y-97396074D01*
X145999545Y-97432515D01*
X145951177Y-97399466D01*
X145824240Y-97373761D01*
X145174000Y-97373761D01*
X145055415Y-97396074D01*
X145000093Y-97431673D01*
X144952957Y-97399466D01*
X144826020Y-97373761D01*
X144175780Y-97373761D01*
X144057195Y-97396074D01*
X144000565Y-97432515D01*
X143952197Y-97399466D01*
X143825260Y-97373761D01*
X143175020Y-97373761D01*
X143056435Y-97396074D01*
X142999805Y-97432515D01*
X142951437Y-97399466D01*
X142824500Y-97373761D01*
X142174260Y-97373761D01*
X142055675Y-97396074D01*
X142000353Y-97431673D01*
X141953217Y-97399466D01*
X141826280Y-97373761D01*
X141176040Y-97373761D01*
X141057455Y-97396074D01*
X141000825Y-97432515D01*
X140952457Y-97399466D01*
X140825520Y-97373761D01*
X140245000Y-97373761D01*
X140245000Y-94450000D01*
X140237410Y-94411843D01*
X140237410Y-94372939D01*
X140165096Y-94009391D01*
X140165096Y-94009390D01*
X140106116Y-93867000D01*
X139900181Y-93558798D01*
X139845691Y-93504309D01*
X139791202Y-93449819D01*
X139563669Y-93297785D01*
X142029892Y-93297785D01*
X142124083Y-93525743D01*
X142298339Y-93700304D01*
X142526133Y-93794893D01*
X142772785Y-93795108D01*
X143000743Y-93700917D01*
X143131889Y-93570000D01*
X146018219Y-93570000D01*
X146123339Y-93675304D01*
X146351133Y-93769893D01*
X146597785Y-93770108D01*
X146825743Y-93675917D01*
X147000304Y-93501661D01*
X147094893Y-93273867D01*
X147095108Y-93027215D01*
X147000917Y-92799257D01*
X146826661Y-92624696D01*
X146598867Y-92530107D01*
X146352215Y-92529892D01*
X146124257Y-92624083D01*
X145968067Y-92780000D01*
X143131737Y-92780000D01*
X143001661Y-92649696D01*
X142773867Y-92555107D01*
X142527215Y-92554892D01*
X142299257Y-92649083D01*
X142124696Y-92823339D01*
X142030107Y-93051133D01*
X142029892Y-93297785D01*
X139563669Y-93297785D01*
X139483000Y-93243884D01*
X139340610Y-93184904D01*
X139340609Y-93184904D01*
X138977060Y-93112590D01*
X138938157Y-93112590D01*
X138900000Y-93105000D01*
X127038903Y-93105000D01*
X126388755Y-92975677D01*
X125870565Y-92629435D01*
X125524323Y-92111245D01*
X125395000Y-91461096D01*
X125395000Y-77700000D01*
X128525000Y-77700000D01*
X128525000Y-78069891D01*
X128540224Y-78106645D01*
X128568354Y-78134776D01*
X128605109Y-78150000D01*
X128950000Y-78150000D01*
X128975000Y-78125000D01*
X128975000Y-77675000D01*
X129025000Y-77675000D01*
X129025000Y-78125000D01*
X129050000Y-78150000D01*
X129394891Y-78150000D01*
X129431646Y-78134776D01*
X129459776Y-78106645D01*
X129475000Y-78069891D01*
X129475000Y-77700000D01*
X134525000Y-77700000D01*
X134525000Y-78069891D01*
X134540224Y-78106645D01*
X134568354Y-78134776D01*
X134605109Y-78150000D01*
X134950000Y-78150000D01*
X134975000Y-78125000D01*
X134975000Y-77675000D01*
X135025000Y-77675000D01*
X135025000Y-78125000D01*
X135050000Y-78150000D01*
X135394891Y-78150000D01*
X135431646Y-78134776D01*
X135459776Y-78106645D01*
X135475000Y-78069891D01*
X135475000Y-77700000D01*
X135450000Y-77675000D01*
X135025000Y-77675000D01*
X134975000Y-77675000D01*
X134550000Y-77675000D01*
X134525000Y-77700000D01*
X129475000Y-77700000D01*
X129450000Y-77675000D01*
X129025000Y-77675000D01*
X128975000Y-77675000D01*
X128550000Y-77675000D01*
X128525000Y-77700000D01*
X125395000Y-77700000D01*
X125395000Y-77230109D01*
X128525000Y-77230109D01*
X128525000Y-77600000D01*
X128550000Y-77625000D01*
X128975000Y-77625000D01*
X128975000Y-77175000D01*
X129025000Y-77175000D01*
X129025000Y-77625000D01*
X129450000Y-77625000D01*
X129475000Y-77600000D01*
X129475000Y-77230109D01*
X134525000Y-77230109D01*
X134525000Y-77600000D01*
X134550000Y-77625000D01*
X134975000Y-77625000D01*
X134975000Y-77175000D01*
X135025000Y-77175000D01*
X135025000Y-77625000D01*
X135450000Y-77625000D01*
X135475000Y-77600000D01*
X135475000Y-77230109D01*
X135459776Y-77193355D01*
X135431646Y-77165224D01*
X135394891Y-77150000D01*
X135050000Y-77150000D01*
X135025000Y-77175000D01*
X134975000Y-77175000D01*
X134950000Y-77150000D01*
X134605109Y-77150000D01*
X134568354Y-77165224D01*
X134540224Y-77193355D01*
X134525000Y-77230109D01*
X129475000Y-77230109D01*
X129459776Y-77193355D01*
X129431646Y-77165224D01*
X129394891Y-77150000D01*
X129050000Y-77150000D01*
X129025000Y-77175000D01*
X128975000Y-77175000D01*
X128950000Y-77150000D01*
X128605109Y-77150000D01*
X128568354Y-77165224D01*
X128540224Y-77193355D01*
X128525000Y-77230109D01*
X125395000Y-77230109D01*
X125395000Y-72038904D01*
X125524323Y-71388755D01*
X125870565Y-70870565D01*
X126388755Y-70524323D01*
X127038903Y-70395000D01*
X169561098Y-70395000D01*
X169597716Y-70402284D01*
X169597716Y-70402284D01*
G37*
X169597716Y-70402284D02*
X169605000Y-70438903D01*
X169605000Y-93061097D01*
X169597716Y-93097716D01*
X169561098Y-93105000D01*
X161100000Y-93105000D01*
X161061843Y-93112590D01*
X161022939Y-93112590D01*
X160659391Y-93184904D01*
X160659390Y-93184904D01*
X160517000Y-93243884D01*
X160208798Y-93449819D01*
X160154309Y-93504309D01*
X160099819Y-93558798D01*
X159893884Y-93867000D01*
X159834904Y-94009390D01*
X159834904Y-94009391D01*
X159762590Y-94372940D01*
X159762590Y-94411843D01*
X159755000Y-94450000D01*
X159755000Y-97600030D01*
X159549600Y-97600030D01*
X159524600Y-97625030D01*
X159524600Y-99975000D01*
X159544600Y-99975000D01*
X159544600Y-100025000D01*
X159524600Y-100025000D01*
X159524600Y-100045000D01*
X159474600Y-100045000D01*
X159474600Y-100025000D01*
X159099480Y-100025000D01*
X159074480Y-100050000D01*
X159074480Y-102220746D01*
X159072993Y-102224532D01*
X159074480Y-102305174D01*
X159074480Y-102319861D01*
X159074763Y-102320545D01*
X159076111Y-102393626D01*
X159134821Y-102535365D01*
X159193647Y-102571838D01*
X159365515Y-102399970D01*
X159436225Y-102399970D01*
X159229002Y-102607193D01*
X159265475Y-102666019D01*
X159422892Y-102727847D01*
X159591986Y-102724729D01*
X159733725Y-102666019D01*
X159755000Y-102631705D01*
X159755000Y-102861097D01*
X159747716Y-102897716D01*
X159711098Y-102905000D01*
X151729269Y-102905000D01*
X151866094Y-102848465D01*
X152047728Y-102667148D01*
X152118535Y-102496626D01*
X152134581Y-102535365D01*
X152193407Y-102571838D01*
X152365275Y-102399970D01*
X152435985Y-102399970D01*
X152228762Y-102607193D01*
X152265235Y-102666019D01*
X152422652Y-102727847D01*
X152591746Y-102724729D01*
X152733485Y-102666019D01*
X152769958Y-102607193D01*
X152562735Y-102399970D01*
X152633445Y-102399970D01*
X152805313Y-102571838D01*
X152864139Y-102535365D01*
X152925967Y-102377948D01*
X152924480Y-102297306D01*
X152924480Y-102224532D01*
X153073513Y-102224532D01*
X153075000Y-102305174D01*
X153075000Y-102319861D01*
X153075283Y-102320545D01*
X153076631Y-102393626D01*
X153135341Y-102535365D01*
X153194167Y-102571838D01*
X153366035Y-102399970D01*
X153436745Y-102399970D01*
X153229522Y-102607193D01*
X153265995Y-102666019D01*
X153423412Y-102727847D01*
X153592506Y-102724729D01*
X153734245Y-102666019D01*
X153770718Y-102607193D01*
X153563495Y-102399970D01*
X153634205Y-102399970D01*
X153806073Y-102571838D01*
X153864899Y-102535365D01*
X153926727Y-102377948D01*
X153925240Y-102297306D01*
X153925240Y-102224532D01*
X154074273Y-102224532D01*
X154075760Y-102305174D01*
X154075760Y-102319861D01*
X154076043Y-102320545D01*
X154077391Y-102393626D01*
X154136101Y-102535365D01*
X154194927Y-102571838D01*
X154366795Y-102399970D01*
X154437505Y-102399970D01*
X154230282Y-102607193D01*
X154266755Y-102666019D01*
X154424172Y-102727847D01*
X154593266Y-102724729D01*
X154735005Y-102666019D01*
X154771478Y-102607193D01*
X154564255Y-102399970D01*
X154634965Y-102399970D01*
X154806833Y-102571838D01*
X154865659Y-102535365D01*
X154927487Y-102377948D01*
X154926000Y-102297306D01*
X154926000Y-102224532D01*
X155072493Y-102224532D01*
X155073980Y-102305174D01*
X155073980Y-102319861D01*
X155074263Y-102320545D01*
X155075611Y-102393626D01*
X155134321Y-102535365D01*
X155193147Y-102571838D01*
X155365015Y-102399970D01*
X155435725Y-102399970D01*
X155228502Y-102607193D01*
X155264975Y-102666019D01*
X155422392Y-102727847D01*
X155591486Y-102724729D01*
X155733225Y-102666019D01*
X155769698Y-102607193D01*
X155562475Y-102399970D01*
X155633185Y-102399970D01*
X155805053Y-102571838D01*
X155863879Y-102535365D01*
X155925707Y-102377948D01*
X155924220Y-102297306D01*
X155924220Y-102224532D01*
X156073253Y-102224532D01*
X156074740Y-102305174D01*
X156074740Y-102319861D01*
X156075023Y-102320545D01*
X156076371Y-102393626D01*
X156135081Y-102535365D01*
X156193907Y-102571838D01*
X156365775Y-102399970D01*
X156436485Y-102399970D01*
X156229262Y-102607193D01*
X156265735Y-102666019D01*
X156423152Y-102727847D01*
X156592246Y-102724729D01*
X156733985Y-102666019D01*
X156770458Y-102607193D01*
X156563235Y-102399970D01*
X156633945Y-102399970D01*
X156805813Y-102571838D01*
X156864639Y-102535365D01*
X156926467Y-102377948D01*
X156924980Y-102297306D01*
X156924980Y-102224532D01*
X157074013Y-102224532D01*
X157075500Y-102305174D01*
X157075500Y-102319861D01*
X157075783Y-102320545D01*
X157077131Y-102393626D01*
X157135841Y-102535365D01*
X157194667Y-102571838D01*
X157366535Y-102399970D01*
X157437245Y-102399970D01*
X157230022Y-102607193D01*
X157266495Y-102666019D01*
X157423912Y-102727847D01*
X157593006Y-102724729D01*
X157734745Y-102666019D01*
X157771218Y-102607193D01*
X157563995Y-102399970D01*
X157634705Y-102399970D01*
X157806573Y-102571838D01*
X157865399Y-102535365D01*
X157927227Y-102377948D01*
X157925740Y-102297306D01*
X157925740Y-102224532D01*
X158072233Y-102224532D01*
X158073720Y-102305174D01*
X158073720Y-102319861D01*
X158074003Y-102320545D01*
X158075351Y-102393626D01*
X158134061Y-102535365D01*
X158192887Y-102571838D01*
X158364755Y-102399970D01*
X158435465Y-102399970D01*
X158228242Y-102607193D01*
X158264715Y-102666019D01*
X158422132Y-102727847D01*
X158591226Y-102724729D01*
X158732965Y-102666019D01*
X158769438Y-102607193D01*
X158562215Y-102399970D01*
X158632925Y-102399970D01*
X158804793Y-102571838D01*
X158863619Y-102535365D01*
X158925447Y-102377948D01*
X158923960Y-102297306D01*
X158923960Y-100050000D01*
X158898960Y-100025000D01*
X158523840Y-100025000D01*
X158523840Y-100045000D01*
X158473840Y-100045000D01*
X158473840Y-100025000D01*
X158098720Y-100025000D01*
X158073720Y-100050000D01*
X158073720Y-102220746D01*
X158072233Y-102224532D01*
X157925740Y-102224532D01*
X157925740Y-100050000D01*
X157900740Y-100025000D01*
X157525620Y-100025000D01*
X157525620Y-100045000D01*
X157475620Y-100045000D01*
X157475620Y-100025000D01*
X157100500Y-100025000D01*
X157075500Y-100050000D01*
X157075500Y-102220746D01*
X157074013Y-102224532D01*
X156924980Y-102224532D01*
X156924980Y-100050000D01*
X156899980Y-100025000D01*
X156524860Y-100025000D01*
X156524860Y-100045000D01*
X156474860Y-100045000D01*
X156474860Y-100025000D01*
X156099740Y-100025000D01*
X156074740Y-100050000D01*
X156074740Y-102220746D01*
X156073253Y-102224532D01*
X155924220Y-102224532D01*
X155924220Y-100050000D01*
X155899220Y-100025000D01*
X155524100Y-100025000D01*
X155524100Y-100045000D01*
X155474100Y-100045000D01*
X155474100Y-100025000D01*
X155098980Y-100025000D01*
X155073980Y-100050000D01*
X155073980Y-102220746D01*
X155072493Y-102224532D01*
X154926000Y-102224532D01*
X154926000Y-100050000D01*
X154901000Y-100025000D01*
X154525880Y-100025000D01*
X154525880Y-100045000D01*
X154475880Y-100045000D01*
X154475880Y-100025000D01*
X154100760Y-100025000D01*
X154075760Y-100050000D01*
X154075760Y-102220746D01*
X154074273Y-102224532D01*
X153925240Y-102224532D01*
X153925240Y-100050000D01*
X153900240Y-100025000D01*
X153525120Y-100025000D01*
X153525120Y-100045000D01*
X153475120Y-100045000D01*
X153475120Y-100025000D01*
X153100000Y-100025000D01*
X153075000Y-100050000D01*
X153075000Y-102220746D01*
X153073513Y-102224532D01*
X152924480Y-102224532D01*
X152924480Y-100050000D01*
X152899480Y-100025000D01*
X152524360Y-100025000D01*
X152524360Y-100045000D01*
X152474360Y-100045000D01*
X152474360Y-100025000D01*
X152454360Y-100025000D01*
X152454360Y-99975000D01*
X152474360Y-99975000D01*
X152474360Y-97625030D01*
X152524360Y-97625030D01*
X152524360Y-99975000D01*
X152899480Y-99975000D01*
X152924480Y-99950000D01*
X152924480Y-97680139D01*
X153075000Y-97680139D01*
X153075000Y-99950000D01*
X153100000Y-99975000D01*
X153475120Y-99975000D01*
X153475120Y-97625030D01*
X153525120Y-97625030D01*
X153525120Y-99975000D01*
X153900240Y-99975000D01*
X153925240Y-99950000D01*
X153925240Y-97680139D01*
X154075760Y-97680139D01*
X154075760Y-99950000D01*
X154100760Y-99975000D01*
X154475880Y-99975000D01*
X154475880Y-97625030D01*
X154525880Y-97625030D01*
X154525880Y-99975000D01*
X154901000Y-99975000D01*
X154926000Y-99950000D01*
X154926000Y-97680139D01*
X155073980Y-97680139D01*
X155073980Y-99950000D01*
X155098980Y-99975000D01*
X155474100Y-99975000D01*
X155474100Y-97625030D01*
X155524100Y-97625030D01*
X155524100Y-99975000D01*
X155899220Y-99975000D01*
X155924220Y-99950000D01*
X155924220Y-97680139D01*
X156074740Y-97680139D01*
X156074740Y-99950000D01*
X156099740Y-99975000D01*
X156474860Y-99975000D01*
X156474860Y-97625030D01*
X156524860Y-97625030D01*
X156524860Y-99975000D01*
X156899980Y-99975000D01*
X156924980Y-99950000D01*
X156924980Y-97680139D01*
X157075500Y-97680139D01*
X157075500Y-99950000D01*
X157100500Y-99975000D01*
X157475620Y-99975000D01*
X157475620Y-97625030D01*
X157525620Y-97625030D01*
X157525620Y-99975000D01*
X157900740Y-99975000D01*
X157925740Y-99950000D01*
X157925740Y-97680139D01*
X158073720Y-97680139D01*
X158073720Y-99950000D01*
X158098720Y-99975000D01*
X158473840Y-99975000D01*
X158473840Y-97625030D01*
X158523840Y-97625030D01*
X158523840Y-99975000D01*
X158898960Y-99975000D01*
X158923960Y-99950000D01*
X158923960Y-97680139D01*
X159074480Y-97680139D01*
X159074480Y-99950000D01*
X159099480Y-99975000D01*
X159474600Y-99975000D01*
X159474600Y-97625030D01*
X159449600Y-97600030D01*
X159154589Y-97600030D01*
X159117835Y-97615254D01*
X159089704Y-97643384D01*
X159074480Y-97680139D01*
X158923960Y-97680139D01*
X158908736Y-97643384D01*
X158880605Y-97615254D01*
X158843851Y-97600030D01*
X158548840Y-97600030D01*
X158523840Y-97625030D01*
X158473840Y-97625030D01*
X158448840Y-97600030D01*
X158153829Y-97600030D01*
X158117075Y-97615254D01*
X158088944Y-97643384D01*
X158073720Y-97680139D01*
X157925740Y-97680139D01*
X157910516Y-97643384D01*
X157882385Y-97615254D01*
X157845631Y-97600030D01*
X157550620Y-97600030D01*
X157525620Y-97625030D01*
X157475620Y-97625030D01*
X157450620Y-97600030D01*
X157155609Y-97600030D01*
X157118855Y-97615254D01*
X157090724Y-97643384D01*
X157075500Y-97680139D01*
X156924980Y-97680139D01*
X156909756Y-97643384D01*
X156881625Y-97615254D01*
X156844871Y-97600030D01*
X156549860Y-97600030D01*
X156524860Y-97625030D01*
X156474860Y-97625030D01*
X156449860Y-97600030D01*
X156154849Y-97600030D01*
X156118095Y-97615254D01*
X156089964Y-97643384D01*
X156074740Y-97680139D01*
X155924220Y-97680139D01*
X155908996Y-97643384D01*
X155880865Y-97615254D01*
X155844111Y-97600030D01*
X155549100Y-97600030D01*
X155524100Y-97625030D01*
X155474100Y-97625030D01*
X155449100Y-97600030D01*
X155154089Y-97600030D01*
X155117335Y-97615254D01*
X155089204Y-97643384D01*
X155073980Y-97680139D01*
X154926000Y-97680139D01*
X154910776Y-97643384D01*
X154882645Y-97615254D01*
X154845891Y-97600030D01*
X154550880Y-97600030D01*
X154525880Y-97625030D01*
X154475880Y-97625030D01*
X154450880Y-97600030D01*
X154155869Y-97600030D01*
X154119115Y-97615254D01*
X154090984Y-97643384D01*
X154075760Y-97680139D01*
X153925240Y-97680139D01*
X153910016Y-97643384D01*
X153881885Y-97615254D01*
X153845131Y-97600030D01*
X153550120Y-97600030D01*
X153525120Y-97625030D01*
X153475120Y-97625030D01*
X153450120Y-97600030D01*
X153155109Y-97600030D01*
X153118355Y-97615254D01*
X153090224Y-97643384D01*
X153075000Y-97680139D01*
X152924480Y-97680139D01*
X152909256Y-97643384D01*
X152881125Y-97615254D01*
X152844371Y-97600030D01*
X152549360Y-97600030D01*
X152524360Y-97625030D01*
X152474360Y-97625030D01*
X152449360Y-97600030D01*
X152154349Y-97600030D01*
X152135205Y-97607960D01*
X152130216Y-97581445D01*
X152060132Y-97472532D01*
X151953197Y-97399466D01*
X151826260Y-97373761D01*
X151176020Y-97373761D01*
X151070380Y-97393638D01*
X151070380Y-92500380D01*
X151026991Y-92282250D01*
X150903431Y-92097329D01*
X147701102Y-88895000D01*
X150250000Y-88895000D01*
X150401160Y-88864932D01*
X150529307Y-88779307D01*
X151004117Y-88304497D01*
X151082000Y-88320269D01*
X153114000Y-88320269D01*
X153232585Y-88297956D01*
X153341498Y-88227872D01*
X153414564Y-88120937D01*
X153440269Y-87994000D01*
X153440269Y-86978000D01*
X153417956Y-86859415D01*
X153347872Y-86750502D01*
X153240937Y-86677436D01*
X153114000Y-86651731D01*
X151082000Y-86651731D01*
X150963415Y-86674044D01*
X150854502Y-86744128D01*
X150781436Y-86851063D01*
X150755731Y-86978000D01*
X150755731Y-87435655D01*
X150086386Y-88105000D01*
X142417791Y-88105000D01*
X142440269Y-87994000D01*
X142440269Y-86978000D01*
X142417956Y-86859415D01*
X142347872Y-86750502D01*
X142240937Y-86677436D01*
X142114000Y-86651731D01*
X140082000Y-86651731D01*
X139963415Y-86674044D01*
X139854502Y-86744128D01*
X139781436Y-86851063D01*
X139755731Y-86978000D01*
X139755731Y-87091000D01*
X139149614Y-87091000D01*
X138645000Y-86586386D01*
X138645000Y-85000000D01*
X138614932Y-84848840D01*
X138529307Y-84720693D01*
X138004307Y-84195693D01*
X137876160Y-84110068D01*
X137725000Y-84080000D01*
X137140441Y-84080000D01*
X137194893Y-83948867D01*
X137195108Y-83702215D01*
X137140477Y-83570000D01*
X137825000Y-83570000D01*
X137976160Y-83539932D01*
X138104307Y-83454307D01*
X139029308Y-82529307D01*
X139093612Y-82433068D01*
X139114932Y-82401160D01*
X139145000Y-82250000D01*
X139145000Y-77413614D01*
X139477614Y-77081000D01*
X139755731Y-77081000D01*
X139755731Y-77194000D01*
X139778044Y-77312585D01*
X139848128Y-77421498D01*
X139955063Y-77494564D01*
X140082000Y-77520269D01*
X142114000Y-77520269D01*
X142232585Y-77497956D01*
X142341498Y-77427872D01*
X142414564Y-77320937D01*
X142440269Y-77194000D01*
X142440269Y-76178000D01*
X142417956Y-76059415D01*
X142347872Y-75950502D01*
X142240937Y-75877436D01*
X142114000Y-75851731D01*
X140082000Y-75851731D01*
X139963415Y-75874044D01*
X139854502Y-75944128D01*
X139781436Y-76051063D01*
X139755731Y-76178000D01*
X139755731Y-76291000D01*
X139314000Y-76291000D01*
X139162840Y-76321068D01*
X139034693Y-76406693D01*
X138844998Y-76596388D01*
X138844998Y-74088616D01*
X139288614Y-73645000D01*
X139874903Y-73645000D01*
X139854502Y-73658128D01*
X139781436Y-73765063D01*
X139755731Y-73892000D01*
X139755731Y-74908000D01*
X139778044Y-75026585D01*
X139848128Y-75135498D01*
X139955063Y-75208564D01*
X140082000Y-75234269D01*
X142114000Y-75234269D01*
X142189834Y-75220000D01*
X146359731Y-75220000D01*
X146359731Y-76228800D01*
X146382044Y-76347385D01*
X146452128Y-76456298D01*
X146559063Y-76529364D01*
X146632000Y-76544134D01*
X146632000Y-77702000D01*
X146713449Y-78111471D01*
X146945396Y-78458604D01*
X148493396Y-80006605D01*
X148840529Y-80238551D01*
X148898087Y-80250000D01*
X148840529Y-80261449D01*
X148493396Y-80493395D01*
X146945396Y-82041396D01*
X146713449Y-82388529D01*
X146632000Y-82798000D01*
X146632000Y-83055092D01*
X146567415Y-83067244D01*
X146458502Y-83137328D01*
X146385436Y-83244263D01*
X146359731Y-83371200D01*
X146359731Y-84380000D01*
X142184463Y-84380000D01*
X142114000Y-84365731D01*
X140082000Y-84365731D01*
X139963415Y-84388044D01*
X139854502Y-84458128D01*
X139781436Y-84565063D01*
X139755731Y-84692000D01*
X139755731Y-85708000D01*
X139778044Y-85826585D01*
X139848128Y-85935498D01*
X139955063Y-86008564D01*
X140082000Y-86034269D01*
X142114000Y-86034269D01*
X142189834Y-86020000D01*
X146359731Y-86020000D01*
X146359731Y-87028800D01*
X146382044Y-87147385D01*
X146452128Y-87256298D01*
X146559063Y-87329364D01*
X146686000Y-87355069D01*
X148718000Y-87355069D01*
X148836585Y-87332756D01*
X148945498Y-87262672D01*
X149018564Y-87155737D01*
X149044269Y-87028800D01*
X149044269Y-84692000D01*
X150755731Y-84692000D01*
X150755731Y-85708000D01*
X150778044Y-85826585D01*
X150848128Y-85935498D01*
X150955063Y-86008564D01*
X151082000Y-86034269D01*
X153114000Y-86034269D01*
X153189834Y-86020000D01*
X157359731Y-86020000D01*
X157359731Y-87028800D01*
X157382044Y-87147385D01*
X157452128Y-87256298D01*
X157559063Y-87329364D01*
X157686000Y-87355069D01*
X159718000Y-87355069D01*
X159836585Y-87332756D01*
X159945498Y-87262672D01*
X160018564Y-87155737D01*
X160044269Y-87028800D01*
X160044269Y-86880000D01*
X164333306Y-86880000D01*
X164368482Y-86903504D01*
X164821426Y-86993600D01*
X165178574Y-86993600D01*
X165631518Y-86903504D01*
X166015506Y-86646932D01*
X166270000Y-86266054D01*
X166524494Y-86646932D01*
X166908482Y-86903504D01*
X167361426Y-86993600D01*
X167718574Y-86993600D01*
X168171518Y-86903504D01*
X168555506Y-86646932D01*
X168812078Y-86262944D01*
X168902174Y-85810000D01*
X168812078Y-85357056D01*
X168555506Y-84973068D01*
X168171518Y-84716496D01*
X167718574Y-84626400D01*
X167361426Y-84626400D01*
X166908482Y-84716496D01*
X166524494Y-84973068D01*
X166270000Y-85353946D01*
X166015506Y-84973068D01*
X165631518Y-84716496D01*
X165178574Y-84626400D01*
X164821426Y-84626400D01*
X164368482Y-84716496D01*
X164333306Y-84740000D01*
X160044269Y-84740000D01*
X160044269Y-83371200D01*
X160021956Y-83252615D01*
X159951872Y-83143702D01*
X159844937Y-83070636D01*
X159718000Y-83044931D01*
X157686000Y-83044931D01*
X157567415Y-83067244D01*
X157458502Y-83137328D01*
X157385436Y-83244263D01*
X157359731Y-83371200D01*
X157359731Y-84380000D01*
X153184463Y-84380000D01*
X153114000Y-84365731D01*
X151082000Y-84365731D01*
X150963415Y-84388044D01*
X150854502Y-84458128D01*
X150781436Y-84565063D01*
X150755731Y-84692000D01*
X149044269Y-84692000D01*
X149044269Y-83371200D01*
X149021956Y-83252615D01*
X148951872Y-83143702D01*
X148902940Y-83110268D01*
X149693209Y-82320000D01*
X160056792Y-82320000D01*
X161763395Y-84026604D01*
X162110528Y-84258551D01*
X162178464Y-84272064D01*
X162520000Y-84340000D01*
X164333306Y-84340000D01*
X164368482Y-84363504D01*
X164821426Y-84453600D01*
X165178574Y-84453600D01*
X165631518Y-84363504D01*
X166015506Y-84106932D01*
X166270000Y-83726054D01*
X166524494Y-84106932D01*
X166908482Y-84363504D01*
X167361426Y-84453600D01*
X167718574Y-84453600D01*
X168171518Y-84363504D01*
X168555506Y-84106932D01*
X168812078Y-83722944D01*
X168902174Y-83270000D01*
X168812078Y-82817056D01*
X168555506Y-82433068D01*
X168171518Y-82176496D01*
X167718574Y-82086400D01*
X167361426Y-82086400D01*
X166908482Y-82176496D01*
X166524494Y-82433068D01*
X166270000Y-82813946D01*
X166015506Y-82433068D01*
X165631518Y-82176496D01*
X165178574Y-82086400D01*
X164821426Y-82086400D01*
X164368482Y-82176496D01*
X164333306Y-82200000D01*
X162963209Y-82200000D01*
X162521794Y-81758585D01*
X162730000Y-81800000D01*
X164333306Y-81800000D01*
X164368482Y-81823504D01*
X164821426Y-81913600D01*
X165178574Y-81913600D01*
X165631518Y-81823504D01*
X166015506Y-81566932D01*
X166270000Y-81186054D01*
X166524494Y-81566932D01*
X166908482Y-81823504D01*
X167361426Y-81913600D01*
X167718574Y-81913600D01*
X168171518Y-81823504D01*
X168555506Y-81566932D01*
X168812078Y-81182944D01*
X168902174Y-80730000D01*
X168812078Y-80277056D01*
X168555506Y-79893068D01*
X168171518Y-79636496D01*
X167718574Y-79546400D01*
X167361426Y-79546400D01*
X166908482Y-79636496D01*
X166524494Y-79893068D01*
X166270000Y-80273946D01*
X166015506Y-79893068D01*
X165631518Y-79636496D01*
X165178574Y-79546400D01*
X164821426Y-79546400D01*
X164368482Y-79636496D01*
X164333306Y-79660000D01*
X163173208Y-79660000D01*
X162006604Y-78493396D01*
X161659471Y-78261449D01*
X161250000Y-78180000D01*
X149693209Y-78180000D01*
X148772000Y-77258792D01*
X148772000Y-76544908D01*
X148836585Y-76532756D01*
X148945498Y-76462672D01*
X149018564Y-76355737D01*
X149044269Y-76228800D01*
X149044269Y-72577883D01*
X149180000Y-72713614D01*
X149180000Y-76450000D01*
X149210068Y-76601160D01*
X149295693Y-76729307D01*
X149531693Y-76965307D01*
X149659840Y-77050932D01*
X149811000Y-77081000D01*
X150755731Y-77081000D01*
X150755731Y-77194000D01*
X150778044Y-77312585D01*
X150848128Y-77421498D01*
X150955063Y-77494564D01*
X151082000Y-77520269D01*
X153114000Y-77520269D01*
X153232585Y-77497956D01*
X153341498Y-77427872D01*
X153414564Y-77320937D01*
X153440269Y-77194000D01*
X153440269Y-76178000D01*
X153417956Y-76059415D01*
X153347872Y-75950502D01*
X153240937Y-75877436D01*
X153114000Y-75851731D01*
X151082000Y-75851731D01*
X150963415Y-75874044D01*
X150854502Y-75944128D01*
X150781436Y-76051063D01*
X150755731Y-76178000D01*
X150755731Y-76291000D01*
X149974614Y-76291000D01*
X149970000Y-76286386D01*
X149970000Y-73892000D01*
X150755731Y-73892000D01*
X150755731Y-74908000D01*
X150778044Y-75026585D01*
X150848128Y-75135498D01*
X150955063Y-75208564D01*
X151082000Y-75234269D01*
X153114000Y-75234269D01*
X153189834Y-75220000D01*
X157359731Y-75220000D01*
X157359731Y-76228800D01*
X157382044Y-76347385D01*
X157452128Y-76456298D01*
X157559063Y-76529364D01*
X157686000Y-76555069D01*
X159718000Y-76555069D01*
X159836585Y-76532756D01*
X159945498Y-76462672D01*
X160018564Y-76355737D01*
X160044269Y-76228800D01*
X160044269Y-75470000D01*
X162706792Y-75470000D01*
X163930000Y-76693208D01*
X163930000Y-77010292D01*
X163865415Y-77022444D01*
X163756502Y-77092528D01*
X163683436Y-77199463D01*
X163657731Y-77326400D01*
X163657731Y-79053600D01*
X163680044Y-79172185D01*
X163750128Y-79281098D01*
X163857063Y-79354164D01*
X163984000Y-79379869D01*
X166016000Y-79379869D01*
X166134585Y-79357556D01*
X166243498Y-79287472D01*
X166269624Y-79249235D01*
X166290128Y-79281098D01*
X166397063Y-79354164D01*
X166524000Y-79379869D01*
X168556000Y-79379869D01*
X168674585Y-79357556D01*
X168783498Y-79287472D01*
X168856564Y-79180537D01*
X168882269Y-79053600D01*
X168882269Y-77326400D01*
X168859956Y-77207815D01*
X168789872Y-77098902D01*
X168682937Y-77025836D01*
X168556000Y-77000131D01*
X166524000Y-77000131D01*
X166405415Y-77022444D01*
X166296502Y-77092528D01*
X166270376Y-77130765D01*
X166249872Y-77098902D01*
X166142937Y-77025836D01*
X166070000Y-77011066D01*
X166070000Y-76250000D01*
X165988551Y-75840529D01*
X165756604Y-75493396D01*
X163906604Y-73643396D01*
X163559471Y-73411449D01*
X163150000Y-73330000D01*
X160044269Y-73330000D01*
X160044269Y-72571200D01*
X160021956Y-72452615D01*
X159951872Y-72343702D01*
X159844937Y-72270636D01*
X159718000Y-72244931D01*
X157686000Y-72244931D01*
X157567415Y-72267244D01*
X157458502Y-72337328D01*
X157385436Y-72444263D01*
X157359731Y-72571200D01*
X157359731Y-73580000D01*
X153184463Y-73580000D01*
X153114000Y-73565731D01*
X151082000Y-73565731D01*
X150963415Y-73588044D01*
X150854502Y-73658128D01*
X150781436Y-73765063D01*
X150755731Y-73892000D01*
X149970000Y-73892000D01*
X149970000Y-72550000D01*
X149939932Y-72398840D01*
X149854307Y-72270693D01*
X149404307Y-71820693D01*
X149276160Y-71735068D01*
X149125000Y-71705000D01*
X145775000Y-71705000D01*
X145623840Y-71735068D01*
X145495693Y-71820693D01*
X144461386Y-72855000D01*
X139125000Y-72855000D01*
X138973840Y-72885068D01*
X138845693Y-72970693D01*
X138170691Y-73645695D01*
X138085066Y-73773842D01*
X138054998Y-73925002D01*
X138054998Y-81261388D01*
X137836386Y-81480000D01*
X136020194Y-81480000D01*
X136026269Y-81450000D01*
X136026269Y-81000000D01*
X136003956Y-80881415D01*
X135933872Y-80772502D01*
X135826937Y-80699436D01*
X135700000Y-80673731D01*
X135520000Y-80673731D01*
X135520000Y-79836958D01*
X135602498Y-79783872D01*
X135675564Y-79676937D01*
X135701269Y-79550000D01*
X135701269Y-78750000D01*
X135678956Y-78631415D01*
X135608872Y-78522502D01*
X135501937Y-78449436D01*
X135375000Y-78423731D01*
X134625000Y-78423731D01*
X134506415Y-78446044D01*
X134397502Y-78516128D01*
X134324436Y-78623063D01*
X134298731Y-78750000D01*
X134298731Y-79550000D01*
X134321044Y-79668585D01*
X134391128Y-79777498D01*
X134480000Y-79838222D01*
X134480000Y-80655000D01*
X133575000Y-80655000D01*
X133356871Y-80698388D01*
X133171949Y-80821949D01*
X132596949Y-81396949D01*
X132473389Y-81581870D01*
X132430000Y-81800000D01*
X132430000Y-86800000D01*
X132473389Y-87018130D01*
X132558161Y-87145000D01*
X132596949Y-87203051D01*
X133498898Y-88105000D01*
X132163614Y-88105000D01*
X131395000Y-87336386D01*
X131395000Y-85750000D01*
X131364932Y-85598840D01*
X131332298Y-85550000D01*
X131279307Y-85470692D01*
X130654307Y-84845693D01*
X130526160Y-84760068D01*
X130375000Y-84730000D01*
X130070871Y-84730000D01*
X130033872Y-84672502D01*
X129926937Y-84599436D01*
X129900000Y-84593981D01*
X129900000Y-84525000D01*
X129875000Y-84500000D01*
X129075000Y-84500000D01*
X129075000Y-84520000D01*
X129025000Y-84520000D01*
X129025000Y-84500000D01*
X128225000Y-84500000D01*
X128200000Y-84525000D01*
X128200000Y-84592547D01*
X128181415Y-84596044D01*
X128072502Y-84666128D01*
X127999436Y-84773063D01*
X127973731Y-84900000D01*
X127973731Y-85350000D01*
X127993238Y-85453671D01*
X127973731Y-85550000D01*
X127973731Y-86000000D01*
X127996044Y-86118585D01*
X128066128Y-86227498D01*
X128173063Y-86300564D01*
X128300000Y-86326269D01*
X128621936Y-86326269D01*
X128524696Y-86423339D01*
X128430107Y-86651133D01*
X128429892Y-86897785D01*
X128524083Y-87125743D01*
X128698339Y-87300304D01*
X128926133Y-87394893D01*
X129172785Y-87395108D01*
X129400743Y-87300917D01*
X129575304Y-87126661D01*
X129669893Y-86898867D01*
X129670108Y-86652215D01*
X129575917Y-86424257D01*
X129478100Y-86326269D01*
X129800000Y-86326269D01*
X129918585Y-86303956D01*
X130027498Y-86233872D01*
X130100564Y-86126937D01*
X130126269Y-86000000D01*
X130126269Y-85550000D01*
X130120624Y-85520000D01*
X130211386Y-85520000D01*
X130605000Y-85913615D01*
X130605000Y-87500000D01*
X130635068Y-87651160D01*
X130720693Y-87779307D01*
X131720693Y-88779307D01*
X131848840Y-88864932D01*
X132000000Y-88895000D01*
X135055321Y-88895000D01*
X134980107Y-89076133D01*
X134979892Y-89322785D01*
X135024193Y-89430000D01*
X129036102Y-89430000D01*
X126870000Y-87263898D01*
X126870000Y-83600000D01*
X127973731Y-83600000D01*
X127973731Y-84050000D01*
X127996044Y-84168585D01*
X128066128Y-84277498D01*
X128173063Y-84350564D01*
X128200000Y-84356019D01*
X128200000Y-84425000D01*
X128225000Y-84450000D01*
X129025000Y-84450000D01*
X129025000Y-84430000D01*
X129075000Y-84430000D01*
X129075000Y-84450000D01*
X129875000Y-84450000D01*
X129900000Y-84425000D01*
X129900000Y-84357453D01*
X129918585Y-84353956D01*
X130027498Y-84283872D01*
X130100564Y-84176937D01*
X130126269Y-84050000D01*
X130126269Y-83600000D01*
X130103956Y-83481415D01*
X130033872Y-83372502D01*
X129926937Y-83299436D01*
X129900000Y-83293981D01*
X129900000Y-83225000D01*
X129875000Y-83200000D01*
X129075000Y-83200000D01*
X129075000Y-83220000D01*
X129025000Y-83220000D01*
X129025000Y-83200000D01*
X128225000Y-83200000D01*
X128200000Y-83225000D01*
X128200000Y-83292547D01*
X128181415Y-83296044D01*
X128072502Y-83366128D01*
X127999436Y-83473063D01*
X127973731Y-83600000D01*
X126870000Y-83600000D01*
X126870000Y-82575000D01*
X128200000Y-82575000D01*
X128200000Y-82769891D01*
X128215224Y-82806646D01*
X128243355Y-82834776D01*
X128280109Y-82850000D01*
X128243355Y-82865224D01*
X128215224Y-82893354D01*
X128200000Y-82930109D01*
X128200000Y-83125000D01*
X128225000Y-83150000D01*
X129025000Y-83150000D01*
X129025000Y-82875000D01*
X129000000Y-82850000D01*
X129025000Y-82825000D01*
X129025000Y-82550000D01*
X129075000Y-82550000D01*
X129075000Y-82825000D01*
X129100000Y-82850000D01*
X129075000Y-82875000D01*
X129075000Y-83150000D01*
X129875000Y-83150000D01*
X129900000Y-83125000D01*
X129900000Y-82930109D01*
X129884776Y-82893354D01*
X129856645Y-82865224D01*
X129819891Y-82850000D01*
X129856645Y-82834776D01*
X129884776Y-82806646D01*
X129900000Y-82769891D01*
X129900000Y-82575000D01*
X129875000Y-82550000D01*
X129075000Y-82550000D01*
X129025000Y-82550000D01*
X128225000Y-82550000D01*
X128200000Y-82575000D01*
X126870000Y-82575000D01*
X126870000Y-82036102D01*
X127111102Y-81795000D01*
X127973731Y-81795000D01*
X127973731Y-82100000D01*
X127996044Y-82218585D01*
X128066128Y-82327498D01*
X128173063Y-82400564D01*
X128200000Y-82406019D01*
X128200000Y-82475000D01*
X128225000Y-82500000D01*
X129025000Y-82500000D01*
X129025000Y-82480000D01*
X129075000Y-82480000D01*
X129075000Y-82500000D01*
X129875000Y-82500000D01*
X129900000Y-82475000D01*
X129900000Y-82407453D01*
X129918585Y-82403956D01*
X130027498Y-82333872D01*
X130100564Y-82226937D01*
X130126269Y-82100000D01*
X130126269Y-81650000D01*
X130106762Y-81546329D01*
X130126269Y-81450000D01*
X130126269Y-81000000D01*
X130103956Y-80881415D01*
X130033872Y-80772502D01*
X129926937Y-80699436D01*
X129800000Y-80673731D01*
X129520000Y-80673731D01*
X129520000Y-79836958D01*
X129602498Y-79783872D01*
X129675564Y-79676937D01*
X129701269Y-79550000D01*
X129701269Y-78750000D01*
X129678956Y-78631415D01*
X129608872Y-78522502D01*
X129501937Y-78449436D01*
X129375000Y-78423731D01*
X128625000Y-78423731D01*
X128506415Y-78446044D01*
X128397502Y-78516128D01*
X128324436Y-78623063D01*
X128298731Y-78750000D01*
X128298731Y-79550000D01*
X128321044Y-79668585D01*
X128391128Y-79777498D01*
X128480000Y-79838222D01*
X128480000Y-80655000D01*
X126875000Y-80655000D01*
X126656871Y-80698388D01*
X126471949Y-80821949D01*
X125896949Y-81396949D01*
X125773389Y-81581870D01*
X125730000Y-81800000D01*
X125730000Y-87500000D01*
X125773389Y-87718130D01*
X125828093Y-87800000D01*
X125896949Y-87903051D01*
X128396949Y-90403051D01*
X128581870Y-90526611D01*
X128800000Y-90570000D01*
X136000000Y-90570000D01*
X136218130Y-90526611D01*
X136403051Y-90403051D01*
X136611098Y-90195004D01*
X146469660Y-90195004D01*
X148720379Y-92445723D01*
X148720379Y-92890379D01*
X148763768Y-93108509D01*
X148878722Y-93280550D01*
X148887328Y-93293430D01*
X148924400Y-93330502D01*
X148974083Y-93450743D01*
X149148339Y-93625304D01*
X149376133Y-93719893D01*
X149622785Y-93720108D01*
X149850743Y-93625917D01*
X149930380Y-93546419D01*
X149930380Y-97395153D01*
X149824740Y-97373761D01*
X149345000Y-97373761D01*
X149345000Y-94450000D01*
X149337410Y-94411843D01*
X149337410Y-94372939D01*
X149265096Y-94009391D01*
X149265096Y-94009390D01*
X149206116Y-93867000D01*
X149000181Y-93558798D01*
X148945691Y-93504309D01*
X148891202Y-93449819D01*
X148583000Y-93243884D01*
X148440610Y-93184904D01*
X148440609Y-93184904D01*
X148077062Y-93112590D01*
X147922939Y-93112590D01*
X147559391Y-93184904D01*
X147559390Y-93184904D01*
X147417000Y-93243884D01*
X147108798Y-93449819D01*
X147054309Y-93504309D01*
X146999819Y-93558798D01*
X146793884Y-93867000D01*
X146734904Y-94009390D01*
X146734904Y-94009391D01*
X146662590Y-94372940D01*
X146662590Y-94411843D01*
X146655000Y-94450000D01*
X146655000Y-97373761D01*
X146174760Y-97373761D01*
X146056175Y-97396074D01*
X145999545Y-97432515D01*
X145951177Y-97399466D01*
X145824240Y-97373761D01*
X145174000Y-97373761D01*
X145055415Y-97396074D01*
X145000093Y-97431673D01*
X144952957Y-97399466D01*
X144826020Y-97373761D01*
X144175780Y-97373761D01*
X144057195Y-97396074D01*
X144000565Y-97432515D01*
X143952197Y-97399466D01*
X143825260Y-97373761D01*
X143175020Y-97373761D01*
X143056435Y-97396074D01*
X142999805Y-97432515D01*
X142951437Y-97399466D01*
X142824500Y-97373761D01*
X142174260Y-97373761D01*
X142055675Y-97396074D01*
X142000353Y-97431673D01*
X141953217Y-97399466D01*
X141826280Y-97373761D01*
X141176040Y-97373761D01*
X141057455Y-97396074D01*
X141000825Y-97432515D01*
X140952457Y-97399466D01*
X140825520Y-97373761D01*
X140245000Y-97373761D01*
X140245000Y-94450000D01*
X140237410Y-94411843D01*
X140237410Y-94372939D01*
X140165096Y-94009391D01*
X140165096Y-94009390D01*
X140106116Y-93867000D01*
X139900181Y-93558798D01*
X139845691Y-93504309D01*
X139791202Y-93449819D01*
X139563669Y-93297785D01*
X142029892Y-93297785D01*
X142124083Y-93525743D01*
X142298339Y-93700304D01*
X142526133Y-93794893D01*
X142772785Y-93795108D01*
X143000743Y-93700917D01*
X143131889Y-93570000D01*
X146018219Y-93570000D01*
X146123339Y-93675304D01*
X146351133Y-93769893D01*
X146597785Y-93770108D01*
X146825743Y-93675917D01*
X147000304Y-93501661D01*
X147094893Y-93273867D01*
X147095108Y-93027215D01*
X147000917Y-92799257D01*
X146826661Y-92624696D01*
X146598867Y-92530107D01*
X146352215Y-92529892D01*
X146124257Y-92624083D01*
X145968067Y-92780000D01*
X143131737Y-92780000D01*
X143001661Y-92649696D01*
X142773867Y-92555107D01*
X142527215Y-92554892D01*
X142299257Y-92649083D01*
X142124696Y-92823339D01*
X142030107Y-93051133D01*
X142029892Y-93297785D01*
X139563669Y-93297785D01*
X139483000Y-93243884D01*
X139340610Y-93184904D01*
X139340609Y-93184904D01*
X138977060Y-93112590D01*
X138938157Y-93112590D01*
X138900000Y-93105000D01*
X127038903Y-93105000D01*
X126388755Y-92975677D01*
X125870565Y-92629435D01*
X125524323Y-92111245D01*
X125395000Y-91461096D01*
X125395000Y-77700000D01*
X128525000Y-77700000D01*
X128525000Y-78069891D01*
X128540224Y-78106645D01*
X128568354Y-78134776D01*
X128605109Y-78150000D01*
X128950000Y-78150000D01*
X128975000Y-78125000D01*
X128975000Y-77675000D01*
X129025000Y-77675000D01*
X129025000Y-78125000D01*
X129050000Y-78150000D01*
X129394891Y-78150000D01*
X129431646Y-78134776D01*
X129459776Y-78106645D01*
X129475000Y-78069891D01*
X129475000Y-77700000D01*
X134525000Y-77700000D01*
X134525000Y-78069891D01*
X134540224Y-78106645D01*
X134568354Y-78134776D01*
X134605109Y-78150000D01*
X134950000Y-78150000D01*
X134975000Y-78125000D01*
X134975000Y-77675000D01*
X135025000Y-77675000D01*
X135025000Y-78125000D01*
X135050000Y-78150000D01*
X135394891Y-78150000D01*
X135431646Y-78134776D01*
X135459776Y-78106645D01*
X135475000Y-78069891D01*
X135475000Y-77700000D01*
X135450000Y-77675000D01*
X135025000Y-77675000D01*
X134975000Y-77675000D01*
X134550000Y-77675000D01*
X134525000Y-77700000D01*
X129475000Y-77700000D01*
X129450000Y-77675000D01*
X129025000Y-77675000D01*
X128975000Y-77675000D01*
X128550000Y-77675000D01*
X128525000Y-77700000D01*
X125395000Y-77700000D01*
X125395000Y-77230109D01*
X128525000Y-77230109D01*
X128525000Y-77600000D01*
X128550000Y-77625000D01*
X128975000Y-77625000D01*
X128975000Y-77175000D01*
X129025000Y-77175000D01*
X129025000Y-77625000D01*
X129450000Y-77625000D01*
X129475000Y-77600000D01*
X129475000Y-77230109D01*
X134525000Y-77230109D01*
X134525000Y-77600000D01*
X134550000Y-77625000D01*
X134975000Y-77625000D01*
X134975000Y-77175000D01*
X135025000Y-77175000D01*
X135025000Y-77625000D01*
X135450000Y-77625000D01*
X135475000Y-77600000D01*
X135475000Y-77230109D01*
X135459776Y-77193355D01*
X135431646Y-77165224D01*
X135394891Y-77150000D01*
X135050000Y-77150000D01*
X135025000Y-77175000D01*
X134975000Y-77175000D01*
X134950000Y-77150000D01*
X134605109Y-77150000D01*
X134568354Y-77165224D01*
X134540224Y-77193355D01*
X134525000Y-77230109D01*
X129475000Y-77230109D01*
X129459776Y-77193355D01*
X129431646Y-77165224D01*
X129394891Y-77150000D01*
X129050000Y-77150000D01*
X129025000Y-77175000D01*
X128975000Y-77175000D01*
X128950000Y-77150000D01*
X128605109Y-77150000D01*
X128568354Y-77165224D01*
X128540224Y-77193355D01*
X128525000Y-77230109D01*
X125395000Y-77230109D01*
X125395000Y-72038904D01*
X125524323Y-71388755D01*
X125870565Y-70870565D01*
X126388755Y-70524323D01*
X127038903Y-70395000D01*
X169561098Y-70395000D01*
X169597716Y-70402284D01*
G36*
X133873731Y-82100000D02*
X133893238Y-82203671D01*
X133873731Y-82300000D01*
X133873731Y-82750000D01*
X133893238Y-82853671D01*
X133873731Y-82950000D01*
X133873731Y-83400000D01*
X133893238Y-83503671D01*
X133873731Y-83600000D01*
X133873731Y-84050000D01*
X133893238Y-84153671D01*
X133873731Y-84250000D01*
X133873731Y-84700000D01*
X133893238Y-84803671D01*
X133873731Y-84900000D01*
X133873731Y-85350000D01*
X133896044Y-85468585D01*
X133966128Y-85577498D01*
X134073063Y-85650564D01*
X134100000Y-85656019D01*
X134100000Y-85725000D01*
X134125000Y-85750000D01*
X134925000Y-85750000D01*
X134925000Y-85730000D01*
X134975000Y-85730000D01*
X134975000Y-85750000D01*
X135775000Y-85750000D01*
X135800000Y-85725000D01*
X135800000Y-85657453D01*
X135818585Y-85653956D01*
X135927498Y-85583872D01*
X135971140Y-85520000D01*
X135993263Y-85520000D01*
X136123339Y-85650304D01*
X136351133Y-85744893D01*
X136597785Y-85745108D01*
X136825743Y-85650917D01*
X137000304Y-85476661D01*
X137094893Y-85248867D01*
X137095108Y-85002215D01*
X137040477Y-84870000D01*
X137561386Y-84870000D01*
X137855000Y-85163614D01*
X137855000Y-86750000D01*
X137885068Y-86901160D01*
X137970693Y-87029307D01*
X138706693Y-87765307D01*
X138834840Y-87850932D01*
X138986000Y-87881000D01*
X139755731Y-87881000D01*
X139755731Y-87994000D01*
X139776617Y-88105000D01*
X136044679Y-88105000D01*
X136119893Y-87923867D01*
X136120108Y-87677215D01*
X136025917Y-87449257D01*
X135851661Y-87274696D01*
X135623867Y-87180107D01*
X135377215Y-87179892D01*
X135255945Y-87230000D01*
X134236102Y-87230000D01*
X133570000Y-86563898D01*
X133570000Y-85825000D01*
X134100000Y-85825000D01*
X134100000Y-86019891D01*
X134115224Y-86056646D01*
X134143355Y-86084776D01*
X134180109Y-86100000D01*
X134900000Y-86100000D01*
X134925000Y-86075000D01*
X134925000Y-85800000D01*
X134975000Y-85800000D01*
X134975000Y-86075000D01*
X135000000Y-86100000D01*
X135719891Y-86100000D01*
X135756645Y-86084776D01*
X135784776Y-86056646D01*
X135800000Y-86019891D01*
X135800000Y-85825000D01*
X135775000Y-85800000D01*
X134975000Y-85800000D01*
X134925000Y-85800000D01*
X134125000Y-85800000D01*
X134100000Y-85825000D01*
X133570000Y-85825000D01*
X133570000Y-82036102D01*
X133811102Y-81795000D01*
X133873731Y-81795000D01*
X133873731Y-82100000D01*
X133873731Y-82100000D01*
G37*
X133873731Y-82100000D02*
X133893238Y-82203671D01*
X133873731Y-82300000D01*
X133873731Y-82750000D01*
X133893238Y-82853671D01*
X133873731Y-82950000D01*
X133873731Y-83400000D01*
X133893238Y-83503671D01*
X133873731Y-83600000D01*
X133873731Y-84050000D01*
X133893238Y-84153671D01*
X133873731Y-84250000D01*
X133873731Y-84700000D01*
X133893238Y-84803671D01*
X133873731Y-84900000D01*
X133873731Y-85350000D01*
X133896044Y-85468585D01*
X133966128Y-85577498D01*
X134073063Y-85650564D01*
X134100000Y-85656019D01*
X134100000Y-85725000D01*
X134125000Y-85750000D01*
X134925000Y-85750000D01*
X134925000Y-85730000D01*
X134975000Y-85730000D01*
X134975000Y-85750000D01*
X135775000Y-85750000D01*
X135800000Y-85725000D01*
X135800000Y-85657453D01*
X135818585Y-85653956D01*
X135927498Y-85583872D01*
X135971140Y-85520000D01*
X135993263Y-85520000D01*
X136123339Y-85650304D01*
X136351133Y-85744893D01*
X136597785Y-85745108D01*
X136825743Y-85650917D01*
X137000304Y-85476661D01*
X137094893Y-85248867D01*
X137095108Y-85002215D01*
X137040477Y-84870000D01*
X137561386Y-84870000D01*
X137855000Y-85163614D01*
X137855000Y-86750000D01*
X137885068Y-86901160D01*
X137970693Y-87029307D01*
X138706693Y-87765307D01*
X138834840Y-87850932D01*
X138986000Y-87881000D01*
X139755731Y-87881000D01*
X139755731Y-87994000D01*
X139776617Y-88105000D01*
X136044679Y-88105000D01*
X136119893Y-87923867D01*
X136120108Y-87677215D01*
X136025917Y-87449257D01*
X135851661Y-87274696D01*
X135623867Y-87180107D01*
X135377215Y-87179892D01*
X135255945Y-87230000D01*
X134236102Y-87230000D01*
X133570000Y-86563898D01*
X133570000Y-85825000D01*
X134100000Y-85825000D01*
X134100000Y-86019891D01*
X134115224Y-86056646D01*
X134143355Y-86084776D01*
X134180109Y-86100000D01*
X134900000Y-86100000D01*
X134925000Y-86075000D01*
X134925000Y-85800000D01*
X134975000Y-85800000D01*
X134975000Y-86075000D01*
X135000000Y-86100000D01*
X135719891Y-86100000D01*
X135756645Y-86084776D01*
X135784776Y-86056646D01*
X135800000Y-86019891D01*
X135800000Y-85825000D01*
X135775000Y-85800000D01*
X134975000Y-85800000D01*
X134925000Y-85800000D01*
X134125000Y-85800000D01*
X134100000Y-85825000D01*
X133570000Y-85825000D01*
X133570000Y-82036102D01*
X133811102Y-81795000D01*
X133873731Y-81795000D01*
X133873731Y-82100000D01*
M02*
