G04 #@! TF.FileFunction,Profile,NP*
%FSLAX46Y46*%
G04 Gerber Fmt 4.6, Leading zero omitted, Abs format (unit mm)*
G04 Created by KiCad (PCBNEW 4.0.6-e0-6349~53~ubuntu14.04.1) date Mon Mar 27 23:58:06 2017*
%MOMM*%
%LPD*%
G01*
G04 APERTURE LIST*
%ADD10C,0.100000*%
%ADD11C,0.150000*%
G04 APERTURE END LIST*
D10*
D11*
X169600000Y-70000000D02*
G75*
G02X170000000Y-70400000I0J-400000D01*
G01*
X170000000Y-93100000D02*
G75*
G02X169600000Y-93500000I-400000J0D01*
G01*
X159750000Y-103300000D02*
G75*
G03X160150000Y-102900000I0J400000D01*
G01*
X149350000Y-103300000D02*
G75*
G02X148950000Y-102900000I0J400000D01*
G01*
X146650000Y-103300000D02*
G75*
G03X147050000Y-102900000I0J400000D01*
G01*
X140250000Y-103300000D02*
G75*
G02X139850000Y-102900000I0J400000D01*
G01*
X170000000Y-70400000D02*
X170000000Y-93100000D01*
X169600000Y-93500000D02*
X161100000Y-93500000D01*
X161100000Y-93500000D02*
G75*
G03X160150000Y-94450000I0J-950000D01*
G01*
X125000000Y-91500000D02*
X125000000Y-72000000D01*
X125000000Y-91500000D02*
G75*
G03X127000000Y-93500000I2000000J0D01*
G01*
X138900000Y-93500000D02*
X127000000Y-93500000D01*
X138900000Y-93500000D02*
G75*
G02X139850000Y-94450000I0J-950000D01*
G01*
X127000000Y-70000000D02*
G75*
G03X125000000Y-72000000I0J-2000000D01*
G01*
X169600000Y-70000000D02*
X127000000Y-70000000D01*
X160150000Y-102900000D02*
X160150000Y-94450000D01*
X149350000Y-103300000D02*
X159750000Y-103300000D01*
X139850000Y-102900000D02*
X139850000Y-94450000D01*
X146650000Y-103300000D02*
X140250000Y-103300000D01*
X148950000Y-94450000D02*
G75*
G03X147050000Y-94450000I-950000J0D01*
G01*
X148950000Y-94450000D02*
X148950000Y-102900000D01*
X147050000Y-94450000D02*
X147050000Y-102900000D01*
M02*
