G04 #@! TF.FileFunction,Legend,Bot*
%FSLAX46Y46*%
G04 Gerber Fmt 4.6, Leading zero omitted, Abs format (unit mm)*
G04 Created by KiCad (PCBNEW 4.0.6-e0-6349~53~ubuntu14.04.1) date Fri Mar 24 18:05:40 2017*
%MOMM*%
%LPD*%
G01*
G04 APERTURE LIST*
%ADD10C,0.100000*%
%ADD11C,0.200000*%
%ADD12C,0.150000*%
%ADD13C,0.152400*%
G04 APERTURE END LIST*
D10*
D11*
X161671429Y-86180952D02*
X163004762Y-86180952D01*
X160909524Y-85704762D02*
X162338095Y-85228571D01*
X162338095Y-86466667D01*
X161004762Y-82733333D02*
X161004762Y-83971429D01*
X161766667Y-83304762D01*
X161766667Y-83590476D01*
X161861905Y-83780952D01*
X161957143Y-83876190D01*
X162147619Y-83971429D01*
X162623810Y-83971429D01*
X162814286Y-83876190D01*
X162909524Y-83780952D01*
X163004762Y-83590476D01*
X163004762Y-83019048D01*
X162909524Y-82828571D01*
X162814286Y-82733333D01*
X161195238Y-80128571D02*
X161100000Y-80223809D01*
X161004762Y-80414286D01*
X161004762Y-80890476D01*
X161100000Y-81080952D01*
X161195238Y-81176190D01*
X161385714Y-81271429D01*
X161576190Y-81271429D01*
X161861905Y-81176190D01*
X163004762Y-80033333D01*
X163004762Y-81271429D01*
X163004762Y-78771429D02*
X163004762Y-77628571D01*
X163004762Y-78200000D02*
X161004762Y-78200000D01*
X161290476Y-78009524D01*
X161480952Y-77819048D01*
X161576190Y-77628571D01*
X165761905Y-75242857D02*
X164238095Y-75242857D01*
X165761905Y-88542857D02*
X164238095Y-88542857D01*
X168361905Y-75242857D02*
X166838095Y-75242857D01*
X167600000Y-76004762D02*
X167600000Y-74480952D01*
X168361905Y-88542857D02*
X166838095Y-88542857D01*
X167600000Y-89304762D02*
X167600000Y-87780952D01*
D12*
X148900180Y-97500640D02*
X148900180Y-94300240D01*
X148900180Y-94300240D02*
X147099320Y-94300240D01*
X147099320Y-94300240D02*
X147099320Y-97500640D01*
X160200640Y-97500640D02*
X148900180Y-97500640D01*
X148900180Y-97500640D02*
X148900180Y-103299460D01*
X148900180Y-103299460D02*
X160200640Y-103299460D01*
X160200640Y-103299460D02*
X160200640Y-97500640D01*
X139799360Y-97500640D02*
X147099320Y-97500640D01*
X147099320Y-103299460D02*
X139799360Y-103299460D01*
X147099320Y-97500640D02*
X147099320Y-103299460D01*
X139799360Y-97500640D02*
X139799360Y-103299460D01*
X153876000Y-88756000D02*
X150828000Y-88756000D01*
X150828000Y-88756000D02*
X150828000Y-81644000D01*
X150828000Y-81644000D02*
X153876000Y-81644000D01*
X156924000Y-88756000D02*
X157686000Y-88756000D01*
X157686000Y-88756000D02*
X159972000Y-87232000D01*
X159972000Y-87232000D02*
X159972000Y-83168000D01*
X159972000Y-83168000D02*
X157686000Y-81644000D01*
X157686000Y-81644000D02*
X156924000Y-81644000D01*
X142876000Y-88756000D02*
X139828000Y-88756000D01*
X139828000Y-88756000D02*
X139828000Y-81644000D01*
X139828000Y-81644000D02*
X142876000Y-81644000D01*
X145924000Y-88756000D02*
X146686000Y-88756000D01*
X146686000Y-88756000D02*
X148972000Y-87232000D01*
X148972000Y-87232000D02*
X148972000Y-83168000D01*
X148972000Y-83168000D02*
X146686000Y-81644000D01*
X146686000Y-81644000D02*
X145924000Y-81644000D01*
X142876000Y-77956000D02*
X139828000Y-77956000D01*
X139828000Y-77956000D02*
X139828000Y-70844000D01*
X139828000Y-70844000D02*
X142876000Y-70844000D01*
X145924000Y-77956000D02*
X146686000Y-77956000D01*
X146686000Y-77956000D02*
X148972000Y-76432000D01*
X148972000Y-76432000D02*
X148972000Y-72368000D01*
X148972000Y-72368000D02*
X146686000Y-70844000D01*
X146686000Y-70844000D02*
X145924000Y-70844000D01*
X153876000Y-77956000D02*
X150828000Y-77956000D01*
X150828000Y-77956000D02*
X150828000Y-70844000D01*
X150828000Y-70844000D02*
X153876000Y-70844000D01*
X156924000Y-77956000D02*
X157686000Y-77956000D01*
X157686000Y-77956000D02*
X159972000Y-76432000D01*
X159972000Y-76432000D02*
X159972000Y-72368000D01*
X159972000Y-72368000D02*
X157686000Y-70844000D01*
X157686000Y-70844000D02*
X156924000Y-70844000D01*
X135600000Y-78750000D02*
X135600000Y-78050000D01*
X134400000Y-78050000D02*
X134400000Y-78750000D01*
X129600000Y-78750000D02*
X129600000Y-78050000D01*
X128400000Y-78050000D02*
X128400000Y-78750000D01*
D13*
X136700000Y-81200000D02*
G75*
G03X136700000Y-81200000I-300000J0D01*
G01*
D12*
X134200000Y-86225000D02*
X129800000Y-86225000D01*
X135775000Y-80775000D02*
X129800000Y-80775000D01*
X154778333Y-95642381D02*
X154778333Y-96356667D01*
X154825953Y-96499524D01*
X154921191Y-96594762D01*
X155064048Y-96642381D01*
X155159286Y-96642381D01*
X153778333Y-96642381D02*
X154349762Y-96642381D01*
X154064048Y-96642381D02*
X154064048Y-95642381D01*
X154159286Y-95785238D01*
X154254524Y-95880476D01*
X154349762Y-95928095D01*
X159547619Y-89404762D02*
X159500000Y-89309524D01*
X159404762Y-89214286D01*
X159261905Y-89071429D01*
X159214286Y-88976190D01*
X159214286Y-88880952D01*
X159452381Y-88928571D02*
X159404762Y-88833333D01*
X159309524Y-88738095D01*
X159119048Y-88690476D01*
X158785714Y-88690476D01*
X158595238Y-88738095D01*
X158500000Y-88833333D01*
X158452381Y-88928571D01*
X158452381Y-89119048D01*
X158500000Y-89214286D01*
X158595238Y-89309524D01*
X158785714Y-89357143D01*
X159119048Y-89357143D01*
X159309524Y-89309524D01*
X159404762Y-89214286D01*
X159452381Y-89119048D01*
X159452381Y-88928571D01*
X159452381Y-90309524D02*
X159452381Y-89738095D01*
X159452381Y-90023809D02*
X158452381Y-90023809D01*
X158595238Y-89928571D01*
X158690476Y-89833333D01*
X158738095Y-89738095D01*
X148297619Y-89404762D02*
X148250000Y-89309524D01*
X148154762Y-89214286D01*
X148011905Y-89071429D01*
X147964286Y-88976190D01*
X147964286Y-88880952D01*
X148202381Y-88928571D02*
X148154762Y-88833333D01*
X148059524Y-88738095D01*
X147869048Y-88690476D01*
X147535714Y-88690476D01*
X147345238Y-88738095D01*
X147250000Y-88833333D01*
X147202381Y-88928571D01*
X147202381Y-89119048D01*
X147250000Y-89214286D01*
X147345238Y-89309524D01*
X147535714Y-89357143D01*
X147869048Y-89357143D01*
X148059524Y-89309524D01*
X148154762Y-89214286D01*
X148202381Y-89119048D01*
X148202381Y-88928571D01*
X147297619Y-89738095D02*
X147250000Y-89785714D01*
X147202381Y-89880952D01*
X147202381Y-90119048D01*
X147250000Y-90214286D01*
X147297619Y-90261905D01*
X147392857Y-90309524D01*
X147488095Y-90309524D01*
X147630952Y-90261905D01*
X148202381Y-89690476D01*
X148202381Y-90309524D01*
X148547619Y-78404762D02*
X148500000Y-78309524D01*
X148404762Y-78214286D01*
X148261905Y-78071429D01*
X148214286Y-77976190D01*
X148214286Y-77880952D01*
X148452381Y-77928571D02*
X148404762Y-77833333D01*
X148309524Y-77738095D01*
X148119048Y-77690476D01*
X147785714Y-77690476D01*
X147595238Y-77738095D01*
X147500000Y-77833333D01*
X147452381Y-77928571D01*
X147452381Y-78119048D01*
X147500000Y-78214286D01*
X147595238Y-78309524D01*
X147785714Y-78357143D01*
X148119048Y-78357143D01*
X148309524Y-78309524D01*
X148404762Y-78214286D01*
X148452381Y-78119048D01*
X148452381Y-77928571D01*
X147452381Y-78690476D02*
X147452381Y-79309524D01*
X147833333Y-78976190D01*
X147833333Y-79119048D01*
X147880952Y-79214286D01*
X147928571Y-79261905D01*
X148023810Y-79309524D01*
X148261905Y-79309524D01*
X148357143Y-79261905D01*
X148404762Y-79214286D01*
X148452381Y-79119048D01*
X148452381Y-78833333D01*
X148404762Y-78738095D01*
X148357143Y-78690476D01*
X159547619Y-78404762D02*
X159500000Y-78309524D01*
X159404762Y-78214286D01*
X159261905Y-78071429D01*
X159214286Y-77976190D01*
X159214286Y-77880952D01*
X159452381Y-77928571D02*
X159404762Y-77833333D01*
X159309524Y-77738095D01*
X159119048Y-77690476D01*
X158785714Y-77690476D01*
X158595238Y-77738095D01*
X158500000Y-77833333D01*
X158452381Y-77928571D01*
X158452381Y-78119048D01*
X158500000Y-78214286D01*
X158595238Y-78309524D01*
X158785714Y-78357143D01*
X159119048Y-78357143D01*
X159309524Y-78309524D01*
X159404762Y-78214286D01*
X159452381Y-78119048D01*
X159452381Y-77928571D01*
X158785714Y-79214286D02*
X159452381Y-79214286D01*
X158404762Y-78976190D02*
X159119048Y-78738095D01*
X159119048Y-79357143D01*
X133832143Y-78233334D02*
X133879762Y-78185715D01*
X133927381Y-78042858D01*
X133927381Y-77947620D01*
X133879762Y-77804762D01*
X133784524Y-77709524D01*
X133689286Y-77661905D01*
X133498810Y-77614286D01*
X133355952Y-77614286D01*
X133165476Y-77661905D01*
X133070238Y-77709524D01*
X132975000Y-77804762D01*
X132927381Y-77947620D01*
X132927381Y-78042858D01*
X132975000Y-78185715D01*
X133022619Y-78233334D01*
X133927381Y-79185715D02*
X133927381Y-78614286D01*
X133927381Y-78900000D02*
X132927381Y-78900000D01*
X133070238Y-78804762D01*
X133165476Y-78709524D01*
X133213095Y-78614286D01*
X127857143Y-78233334D02*
X127904762Y-78185715D01*
X127952381Y-78042858D01*
X127952381Y-77947620D01*
X127904762Y-77804762D01*
X127809524Y-77709524D01*
X127714286Y-77661905D01*
X127523810Y-77614286D01*
X127380952Y-77614286D01*
X127190476Y-77661905D01*
X127095238Y-77709524D01*
X127000000Y-77804762D01*
X126952381Y-77947620D01*
X126952381Y-78042858D01*
X127000000Y-78185715D01*
X127047619Y-78233334D01*
X126952381Y-78566667D02*
X126952381Y-79185715D01*
X127333333Y-78852381D01*
X127333333Y-78995239D01*
X127380952Y-79090477D01*
X127428571Y-79138096D01*
X127523810Y-79185715D01*
X127761905Y-79185715D01*
X127857143Y-79138096D01*
X127904762Y-79090477D01*
X127952381Y-78995239D01*
X127952381Y-78709524D01*
X127904762Y-78614286D01*
X127857143Y-78566667D01*
X132761905Y-79402381D02*
X132761905Y-80211905D01*
X132714286Y-80307143D01*
X132666667Y-80354762D01*
X132571429Y-80402381D01*
X132380952Y-80402381D01*
X132285714Y-80354762D01*
X132238095Y-80307143D01*
X132190476Y-80211905D01*
X132190476Y-79402381D01*
X131190476Y-80402381D02*
X131761905Y-80402381D01*
X131476191Y-80402381D02*
X131476191Y-79402381D01*
X131571429Y-79545238D01*
X131666667Y-79640476D01*
X131761905Y-79688095D01*
M02*
