M48
;DRILL file {KiCad 4.0.6-e0-6349~53~ubuntu14.04.1} date Sat Apr 15 21:16:58 2017
;FORMAT={-:-/ absolute / inch / decimal}
FMAT,2
INCH,TZ
T1C0.012
T2C0.040
%
G90
G05
M72
T1
X5.0807Y-3.4163
X5.3346Y-3.4567
X5.3386Y-3.5118
X5.373Y-3.3514
X5.374Y-3.249
X5.377Y-3.3002
X5.3957Y-3.3937
X5.6161Y-3.6683
X5.6319Y-2.8396
X5.6348Y-3.2648
X5.7667Y-3.6673
X5.8858Y-3.6654
X6.0689Y-3.2648
X6.0699Y-2.8396
T2
X6.4972Y-3.0783
X6.4972Y-3.1783
X6.4972Y-3.2783
X6.4972Y-3.3783
X6.5972Y-3.0783
X6.5972Y-3.1783
X6.5972Y-3.2783
X6.5972Y-3.3783
T0
M30
