G04 #@! TF.FileFunction,Copper,L2,Bot,Signal*
%FSLAX46Y46*%
G04 Gerber Fmt 4.6, Leading zero omitted, Abs format (unit mm)*
G04 Created by KiCad (PCBNEW 4.0.2+e4-6225~38~ubuntu14.04.1-stable) date Sat 23 Jul 2016 00:45:22 PDT*
%MOMM*%
G01*
G04 APERTURE LIST*
%ADD10C,0.100000*%
%ADD11C,0.650240*%
%ADD12R,0.650240X4.599940*%
%ADD13R,0.650240X3.599180*%
%ADD14R,2.032000X3.657600*%
%ADD15R,2.032000X1.016000*%
%ADD16R,0.500000X0.900000*%
%ADD17R,2.032000X1.727200*%
%ADD18O,2.032000X1.727200*%
%ADD19C,0.600000*%
%ADD20C,0.150000*%
%ADD21C,0.500000*%
%ADD22C,0.400000*%
%ADD23C,0.200000*%
G04 APERTURE END LIST*
D10*
D11*
X140500400Y-102301240D03*
D12*
X159499600Y-100000000D03*
X158498840Y-100000000D03*
X157500620Y-100000000D03*
X156499860Y-100000000D03*
X155499100Y-100000000D03*
X154500880Y-100000000D03*
X153500120Y-100000000D03*
X152499360Y-100000000D03*
X151501140Y-100000000D03*
X150500380Y-100000000D03*
X149499620Y-100000000D03*
X144500900Y-100000000D03*
X143500140Y-100000000D03*
X142499380Y-100000000D03*
D13*
X141501160Y-99499620D03*
D12*
X140500400Y-100000000D03*
X146499880Y-100000000D03*
X145499120Y-100000000D03*
D11*
X157500620Y-102301240D03*
X156499860Y-102301240D03*
X155499100Y-102301240D03*
X154500880Y-102301240D03*
X153500120Y-102301240D03*
X152499360Y-102301240D03*
X151501140Y-102301240D03*
X150500380Y-102301240D03*
X149499620Y-102301240D03*
X159499600Y-102301240D03*
X146499880Y-102301240D03*
X145499120Y-102301240D03*
X144500900Y-102301240D03*
X143500140Y-102301240D03*
X142499380Y-102301240D03*
X158498840Y-102301240D03*
D14*
X159302000Y-87000000D03*
D15*
X152698000Y-87000000D03*
X152698000Y-84714000D03*
X152698000Y-89286000D03*
D14*
X159302000Y-77000000D03*
D15*
X152698000Y-77000000D03*
X152698000Y-74714000D03*
X152698000Y-79286000D03*
D16*
X150250000Y-84750000D03*
X148750000Y-84750000D03*
X150250000Y-74750000D03*
X148750000Y-74750000D03*
D17*
X167540000Y-78190000D03*
D18*
X167540000Y-80730000D03*
X167540000Y-83270000D03*
X167540000Y-85810000D03*
D17*
X165000000Y-78190000D03*
D18*
X165000000Y-80730000D03*
X165000000Y-83270000D03*
X165000000Y-85810000D03*
D19*
X129825000Y-83900000D03*
X130825000Y-84900000D03*
X128800000Y-86950000D03*
X128900000Y-88400000D03*
X148750000Y-80475000D03*
X148625000Y-88100000D03*
X140350000Y-85500000D03*
X146575000Y-82050000D03*
X133150000Y-76050000D03*
X135900000Y-79650000D03*
X129000000Y-81175000D03*
X128150000Y-81875000D03*
X130075000Y-79900000D03*
X129325000Y-80450000D03*
X143650000Y-78600000D03*
X143875000Y-70875000D03*
X141250000Y-82350000D03*
X141250000Y-84375000D03*
X140350000Y-81025000D03*
X140350000Y-84375000D03*
X142500000Y-89500000D03*
X139250000Y-90750000D03*
X140500000Y-90750000D03*
X140500000Y-92550000D03*
X146100000Y-84500000D03*
X146075000Y-86050000D03*
X151375000Y-94125000D03*
X141125000Y-86025000D03*
X149925000Y-82775000D03*
X149550000Y-78475000D03*
X149550000Y-77225000D03*
X145725000Y-76200000D03*
X145725000Y-74100000D03*
X150725000Y-87825000D03*
X152350000Y-71825000D03*
X150500000Y-77850000D03*
X147500000Y-75775000D03*
X147550000Y-73450000D03*
D20*
X139050000Y-88525000D02*
X136000000Y-88525000D01*
X129725000Y-89225000D02*
X128900000Y-88400000D01*
X135300000Y-89225000D02*
X129725000Y-89225000D01*
X136000000Y-88525000D02*
X135300000Y-89225000D01*
X128800000Y-86950000D02*
X128800000Y-88300000D01*
X128800000Y-88300000D02*
X128900000Y-88400000D01*
X140500400Y-100000000D02*
X140500400Y-96999600D01*
X142551468Y-88525000D02*
X139050000Y-88525000D01*
X139050000Y-88525000D02*
X139000000Y-88525000D01*
X143200000Y-89173532D02*
X142551468Y-88525000D01*
X143200000Y-95575138D02*
X143200000Y-89173532D01*
X142575138Y-96200000D02*
X143200000Y-95575138D01*
X141300000Y-96200000D02*
X142575138Y-96200000D01*
X140500400Y-96999600D02*
X141300000Y-96200000D01*
X140500400Y-102301240D02*
X140500400Y-100000000D01*
D21*
X152499360Y-100000000D02*
X153500120Y-100000000D01*
X153500120Y-100000000D02*
X154500880Y-100000000D01*
X154500880Y-100000000D02*
X155499100Y-100000000D01*
X155499100Y-100000000D02*
X156499860Y-100000000D01*
X156499860Y-100000000D02*
X157500620Y-100000000D01*
X157500620Y-100000000D02*
X158498840Y-100000000D01*
X158498840Y-100000000D02*
X159499600Y-100000000D01*
D20*
X143950000Y-82050000D02*
X146600000Y-82050000D01*
X146600000Y-82050000D02*
X146575000Y-82050000D01*
X142850000Y-83150000D02*
X143950000Y-82050000D01*
X142850000Y-84450000D02*
X142850000Y-83150000D01*
X141850000Y-85450000D02*
X142850000Y-84450000D01*
X140400000Y-85450000D02*
X141850000Y-85450000D01*
X140350000Y-85500000D02*
X140400000Y-85450000D01*
X159499600Y-102301240D02*
X159499600Y-100000000D01*
X158498840Y-102301240D02*
X158498840Y-100000000D01*
X157500620Y-102301240D02*
X157500620Y-100000000D01*
X156499860Y-102301240D02*
X156499860Y-100000000D01*
X155499100Y-102301240D02*
X155499100Y-100000000D01*
X154500880Y-102301240D02*
X154500880Y-100000000D01*
X153500120Y-102301240D02*
X153500120Y-100000000D01*
X152499360Y-102301240D02*
X152499360Y-100000000D01*
D22*
X151501140Y-100000000D02*
X150500380Y-100000000D01*
X150500380Y-100000000D02*
X149499620Y-100000000D01*
D21*
X135900000Y-79650000D02*
X135275000Y-79025000D01*
X133175000Y-76075000D02*
X133150000Y-76050000D01*
X133175000Y-76925000D02*
X133175000Y-76075000D01*
X135275000Y-79025000D02*
X133175000Y-76925000D01*
X150500380Y-94000380D02*
X143300000Y-86800000D01*
X150500380Y-94000380D02*
X150500380Y-100000000D01*
X137525000Y-81275000D02*
X135900000Y-79650000D01*
X137525000Y-84575000D02*
X137525000Y-81275000D01*
X139750000Y-86800000D02*
X137525000Y-84575000D01*
X143300000Y-86800000D02*
X139750000Y-86800000D01*
X135900000Y-79650000D02*
X135900000Y-79650000D01*
D20*
X151501140Y-102301240D02*
X151501140Y-100000000D01*
X150500380Y-102301240D02*
X150500380Y-100000000D01*
X149499620Y-102301240D02*
X149499620Y-100000000D01*
X144500900Y-100000000D02*
X144500900Y-89625900D01*
X129475000Y-81175000D02*
X129000000Y-81175000D01*
X129875000Y-80775000D02*
X129475000Y-81175000D01*
X132150734Y-80775000D02*
X129875000Y-80775000D01*
X139275738Y-87900004D02*
X132150734Y-80775000D01*
X142775004Y-87900004D02*
X139275738Y-87900004D01*
X144500900Y-89625900D02*
X142775004Y-87900004D01*
X144500900Y-102301240D02*
X144500900Y-100000000D01*
X143500140Y-100000000D02*
X143500140Y-89049406D01*
X132800000Y-81875000D02*
X128150000Y-81875000D01*
X139125006Y-88200006D02*
X132800000Y-81875000D01*
X142650740Y-88200006D02*
X139125006Y-88200006D01*
X143500140Y-89049406D02*
X142650740Y-88200006D01*
X143500140Y-102301240D02*
X143500140Y-100000000D01*
X142499380Y-102301240D02*
X142499380Y-100000000D01*
X146499880Y-100000000D02*
X146499880Y-90774880D01*
X132125000Y-79900000D02*
X130075000Y-79900000D01*
X139525000Y-87300000D02*
X132125000Y-79900000D01*
X143025000Y-87300000D02*
X139525000Y-87300000D01*
X146499880Y-90774880D02*
X143025000Y-87300000D01*
X146499880Y-102301240D02*
X146499880Y-100000000D01*
X145499120Y-100000000D02*
X145499120Y-90198386D01*
X130400000Y-80450000D02*
X129325000Y-80450000D01*
X130550000Y-80300000D02*
X130400000Y-80450000D01*
X132100000Y-80300000D02*
X130550000Y-80300000D01*
X139400002Y-87600002D02*
X132100000Y-80300000D01*
X142900736Y-87600002D02*
X139400002Y-87600002D01*
X145499120Y-90198386D02*
X142900736Y-87600002D01*
X145499120Y-102301240D02*
X145499120Y-100000000D01*
D22*
X143650000Y-71100000D02*
X143650000Y-78600000D01*
X143875000Y-70875000D02*
X143650000Y-71100000D01*
D20*
X141250000Y-84375000D02*
X141250000Y-82350000D01*
X140350000Y-84375000D02*
X140350000Y-81025000D01*
X140500000Y-89500000D02*
X142500000Y-89500000D01*
X139250000Y-90750000D02*
X140500000Y-89500000D01*
X140500000Y-92550000D02*
X140500000Y-90750000D01*
X146100000Y-86025000D02*
X146100000Y-84500000D01*
X146075000Y-86050000D02*
X146100000Y-86025000D01*
X148625000Y-91375000D02*
X151375000Y-94125000D01*
X143275000Y-86025000D02*
X141125000Y-86025000D01*
X148625000Y-91375000D02*
X148625000Y-91375000D01*
X148625000Y-91375000D02*
X143275000Y-86025000D01*
X150250000Y-83100000D02*
X149925000Y-82775000D01*
X149550000Y-78475000D02*
X149550000Y-77225000D01*
X145725000Y-76200000D02*
X145725000Y-74100000D01*
X150250000Y-83100000D02*
X150250000Y-84750000D01*
D21*
X150250000Y-84750000D02*
X152662000Y-84750000D01*
X152662000Y-84750000D02*
X152698000Y-84714000D01*
D20*
X150725000Y-87825000D02*
X152186000Y-89286000D01*
X152186000Y-89286000D02*
X152698000Y-89286000D01*
X152698000Y-72173000D02*
X152698000Y-74714000D01*
X152350000Y-71825000D02*
X152698000Y-72173000D01*
D21*
X150250000Y-74750000D02*
X152662000Y-74750000D01*
X152662000Y-74750000D02*
X152698000Y-74714000D01*
D20*
X150500000Y-77850000D02*
X151936000Y-79286000D01*
X151936000Y-79286000D02*
X152698000Y-79286000D01*
X152436000Y-79286000D02*
X152698000Y-79286000D01*
X147500000Y-73500000D02*
X147500000Y-75775000D01*
X147550000Y-73450000D02*
X147500000Y-73500000D01*
D23*
G36*
X164455749Y-82389317D02*
X164148554Y-82606310D01*
X163947783Y-82924344D01*
X163900094Y-83094618D01*
X163909333Y-83245000D01*
X164975000Y-83245000D01*
X164975000Y-83225000D01*
X165025000Y-83225000D01*
X165025000Y-83245000D01*
X166090667Y-83245000D01*
X166099906Y-83094618D01*
X166052217Y-82924344D01*
X165851446Y-82606310D01*
X165544251Y-82389317D01*
X165370300Y-82350000D01*
X166150000Y-82350000D01*
X166150000Y-85174353D01*
X166015506Y-84973068D01*
X165631518Y-84716496D01*
X165178574Y-84626400D01*
X164821426Y-84626400D01*
X164368482Y-84716496D01*
X163984494Y-84973068D01*
X163727922Y-85357056D01*
X163637826Y-85810000D01*
X163727922Y-86262944D01*
X163984494Y-86646932D01*
X164368482Y-86903504D01*
X164821426Y-86993600D01*
X165178574Y-86993600D01*
X165631518Y-86903504D01*
X166015506Y-86646932D01*
X166150000Y-86445647D01*
X166150000Y-90150000D01*
X151850000Y-90150000D01*
X151850000Y-90120269D01*
X153714000Y-90120269D01*
X153832585Y-90097956D01*
X153941498Y-90027872D01*
X154014564Y-89920937D01*
X154040269Y-89794000D01*
X154040269Y-88778000D01*
X154017956Y-88659415D01*
X153947872Y-88550502D01*
X153840937Y-88477436D01*
X153714000Y-88451731D01*
X151910345Y-88451731D01*
X151850000Y-88391386D01*
X151850000Y-85548269D01*
X153714000Y-85548269D01*
X153832585Y-85525956D01*
X153941498Y-85455872D01*
X154014564Y-85348937D01*
X154040269Y-85222000D01*
X154040269Y-84206000D01*
X154017956Y-84087415D01*
X153947872Y-83978502D01*
X153840937Y-83905436D01*
X153714000Y-83879731D01*
X151850000Y-83879731D01*
X151850000Y-83445382D01*
X163900094Y-83445382D01*
X163947783Y-83615656D01*
X164148554Y-83933690D01*
X164455749Y-84150683D01*
X164822600Y-84233600D01*
X164975000Y-84233600D01*
X164975000Y-83295000D01*
X165025000Y-83295000D01*
X165025000Y-84233600D01*
X165177400Y-84233600D01*
X165544251Y-84150683D01*
X165851446Y-83933690D01*
X166052217Y-83615656D01*
X166099906Y-83445382D01*
X166090667Y-83295000D01*
X165025000Y-83295000D01*
X164975000Y-83295000D01*
X163909333Y-83295000D01*
X163900094Y-83445382D01*
X151850000Y-83445382D01*
X151850000Y-82350000D01*
X164629700Y-82350000D01*
X164455749Y-82389317D01*
X164455749Y-82389317D01*
G37*
X164455749Y-82389317D02*
X164148554Y-82606310D01*
X163947783Y-82924344D01*
X163900094Y-83094618D01*
X163909333Y-83245000D01*
X164975000Y-83245000D01*
X164975000Y-83225000D01*
X165025000Y-83225000D01*
X165025000Y-83245000D01*
X166090667Y-83245000D01*
X166099906Y-83094618D01*
X166052217Y-82924344D01*
X165851446Y-82606310D01*
X165544251Y-82389317D01*
X165370300Y-82350000D01*
X166150000Y-82350000D01*
X166150000Y-85174353D01*
X166015506Y-84973068D01*
X165631518Y-84716496D01*
X165178574Y-84626400D01*
X164821426Y-84626400D01*
X164368482Y-84716496D01*
X163984494Y-84973068D01*
X163727922Y-85357056D01*
X163637826Y-85810000D01*
X163727922Y-86262944D01*
X163984494Y-86646932D01*
X164368482Y-86903504D01*
X164821426Y-86993600D01*
X165178574Y-86993600D01*
X165631518Y-86903504D01*
X166015506Y-86646932D01*
X166150000Y-86445647D01*
X166150000Y-90150000D01*
X151850000Y-90150000D01*
X151850000Y-90120269D01*
X153714000Y-90120269D01*
X153832585Y-90097956D01*
X153941498Y-90027872D01*
X154014564Y-89920937D01*
X154040269Y-89794000D01*
X154040269Y-88778000D01*
X154017956Y-88659415D01*
X153947872Y-88550502D01*
X153840937Y-88477436D01*
X153714000Y-88451731D01*
X151910345Y-88451731D01*
X151850000Y-88391386D01*
X151850000Y-85548269D01*
X153714000Y-85548269D01*
X153832585Y-85525956D01*
X153941498Y-85455872D01*
X154014564Y-85348937D01*
X154040269Y-85222000D01*
X154040269Y-84206000D01*
X154017956Y-84087415D01*
X153947872Y-83978502D01*
X153840937Y-83905436D01*
X153714000Y-83879731D01*
X151850000Y-83879731D01*
X151850000Y-83445382D01*
X163900094Y-83445382D01*
X163947783Y-83615656D01*
X164148554Y-83933690D01*
X164455749Y-84150683D01*
X164822600Y-84233600D01*
X164975000Y-84233600D01*
X164975000Y-83295000D01*
X165025000Y-83295000D01*
X165025000Y-84233600D01*
X165177400Y-84233600D01*
X165544251Y-84150683D01*
X165851446Y-83933690D01*
X166052217Y-83615656D01*
X166099906Y-83445382D01*
X166090667Y-83295000D01*
X165025000Y-83295000D01*
X164975000Y-83295000D01*
X163909333Y-83295000D01*
X163900094Y-83445382D01*
X151850000Y-83445382D01*
X151850000Y-82350000D01*
X164629700Y-82350000D01*
X164455749Y-82389317D01*
G36*
X166150000Y-77030662D02*
X166142937Y-77025836D01*
X166016000Y-77000131D01*
X163984000Y-77000131D01*
X163865415Y-77022444D01*
X163756502Y-77092528D01*
X163683436Y-77199463D01*
X163657731Y-77326400D01*
X163657731Y-79053600D01*
X163680044Y-79172185D01*
X163750128Y-79281098D01*
X163857063Y-79354164D01*
X163984000Y-79379869D01*
X166016000Y-79379869D01*
X166134585Y-79357556D01*
X166150000Y-79347637D01*
X166150000Y-81650000D01*
X165370300Y-81650000D01*
X165544251Y-81610683D01*
X165851446Y-81393690D01*
X166052217Y-81075656D01*
X166099906Y-80905382D01*
X166090667Y-80755000D01*
X165025000Y-80755000D01*
X165025000Y-80775000D01*
X164975000Y-80775000D01*
X164975000Y-80755000D01*
X163909333Y-80755000D01*
X163900094Y-80905382D01*
X163947783Y-81075656D01*
X164148554Y-81393690D01*
X164455749Y-81610683D01*
X164629700Y-81650000D01*
X151850000Y-81650000D01*
X151850000Y-80554618D01*
X163900094Y-80554618D01*
X163909333Y-80705000D01*
X164975000Y-80705000D01*
X164975000Y-79766400D01*
X165025000Y-79766400D01*
X165025000Y-80705000D01*
X166090667Y-80705000D01*
X166099906Y-80554618D01*
X166052217Y-80384344D01*
X165851446Y-80066310D01*
X165544251Y-79849317D01*
X165177400Y-79766400D01*
X165025000Y-79766400D01*
X164975000Y-79766400D01*
X164822600Y-79766400D01*
X164455749Y-79849317D01*
X164148554Y-80066310D01*
X163947783Y-80384344D01*
X163900094Y-80554618D01*
X151850000Y-80554618D01*
X151850000Y-80120269D01*
X153714000Y-80120269D01*
X153832585Y-80097956D01*
X153941498Y-80027872D01*
X154014564Y-79920937D01*
X154040269Y-79794000D01*
X154040269Y-78778000D01*
X154017956Y-78659415D01*
X153947872Y-78550502D01*
X153840937Y-78477436D01*
X153714000Y-78451731D01*
X151850000Y-78451731D01*
X151850000Y-75548269D01*
X153714000Y-75548269D01*
X153832585Y-75525956D01*
X153941498Y-75455872D01*
X154014564Y-75348937D01*
X154040269Y-75222000D01*
X154040269Y-74206000D01*
X154017956Y-74087415D01*
X153947872Y-73978502D01*
X153840937Y-73905436D01*
X153714000Y-73879731D01*
X153093000Y-73879731D01*
X153093000Y-73850000D01*
X166150000Y-73850000D01*
X166150000Y-77030662D01*
X166150000Y-77030662D01*
G37*
X166150000Y-77030662D02*
X166142937Y-77025836D01*
X166016000Y-77000131D01*
X163984000Y-77000131D01*
X163865415Y-77022444D01*
X163756502Y-77092528D01*
X163683436Y-77199463D01*
X163657731Y-77326400D01*
X163657731Y-79053600D01*
X163680044Y-79172185D01*
X163750128Y-79281098D01*
X163857063Y-79354164D01*
X163984000Y-79379869D01*
X166016000Y-79379869D01*
X166134585Y-79357556D01*
X166150000Y-79347637D01*
X166150000Y-81650000D01*
X165370300Y-81650000D01*
X165544251Y-81610683D01*
X165851446Y-81393690D01*
X166052217Y-81075656D01*
X166099906Y-80905382D01*
X166090667Y-80755000D01*
X165025000Y-80755000D01*
X165025000Y-80775000D01*
X164975000Y-80775000D01*
X164975000Y-80755000D01*
X163909333Y-80755000D01*
X163900094Y-80905382D01*
X163947783Y-81075656D01*
X164148554Y-81393690D01*
X164455749Y-81610683D01*
X164629700Y-81650000D01*
X151850000Y-81650000D01*
X151850000Y-80554618D01*
X163900094Y-80554618D01*
X163909333Y-80705000D01*
X164975000Y-80705000D01*
X164975000Y-79766400D01*
X165025000Y-79766400D01*
X165025000Y-80705000D01*
X166090667Y-80705000D01*
X166099906Y-80554618D01*
X166052217Y-80384344D01*
X165851446Y-80066310D01*
X165544251Y-79849317D01*
X165177400Y-79766400D01*
X165025000Y-79766400D01*
X164975000Y-79766400D01*
X164822600Y-79766400D01*
X164455749Y-79849317D01*
X164148554Y-80066310D01*
X163947783Y-80384344D01*
X163900094Y-80554618D01*
X151850000Y-80554618D01*
X151850000Y-80120269D01*
X153714000Y-80120269D01*
X153832585Y-80097956D01*
X153941498Y-80027872D01*
X154014564Y-79920937D01*
X154040269Y-79794000D01*
X154040269Y-78778000D01*
X154017956Y-78659415D01*
X153947872Y-78550502D01*
X153840937Y-78477436D01*
X153714000Y-78451731D01*
X151850000Y-78451731D01*
X151850000Y-75548269D01*
X153714000Y-75548269D01*
X153832585Y-75525956D01*
X153941498Y-75455872D01*
X154014564Y-75348937D01*
X154040269Y-75222000D01*
X154040269Y-74206000D01*
X154017956Y-74087415D01*
X153947872Y-73978502D01*
X153840937Y-73905436D01*
X153714000Y-73879731D01*
X153093000Y-73879731D01*
X153093000Y-73850000D01*
X166150000Y-73850000D01*
X166150000Y-77030662D01*
G36*
X169597716Y-70402284D02*
X169605000Y-70438903D01*
X169605000Y-93061097D01*
X169597716Y-93097716D01*
X169561098Y-93105000D01*
X161100000Y-93105000D01*
X161061843Y-93112590D01*
X161022939Y-93112590D01*
X160659391Y-93184904D01*
X160659390Y-93184904D01*
X160517000Y-93243884D01*
X160208798Y-93449819D01*
X160154309Y-93504309D01*
X160099819Y-93558798D01*
X159893884Y-93867000D01*
X159837876Y-94002215D01*
X159834904Y-94009391D01*
X159776137Y-94304833D01*
X159761094Y-94307879D01*
X159728319Y-94330273D01*
X159706839Y-94363654D01*
X159700000Y-94400000D01*
X159700000Y-97600030D01*
X159549600Y-97600030D01*
X159524600Y-97625030D01*
X159524600Y-99975000D01*
X159544600Y-99975000D01*
X159544600Y-100025000D01*
X159524600Y-100025000D01*
X159524600Y-100045000D01*
X159474600Y-100045000D01*
X159474600Y-100025000D01*
X159099480Y-100025000D01*
X159074480Y-100050000D01*
X159074480Y-100600000D01*
X158923960Y-100600000D01*
X158923960Y-100050000D01*
X158898960Y-100025000D01*
X158523840Y-100025000D01*
X158523840Y-100045000D01*
X158473840Y-100045000D01*
X158473840Y-100025000D01*
X158098720Y-100025000D01*
X158073720Y-100050000D01*
X158073720Y-100600000D01*
X157925740Y-100600000D01*
X157925740Y-100050000D01*
X157900740Y-100025000D01*
X157525620Y-100025000D01*
X157525620Y-100045000D01*
X157475620Y-100045000D01*
X157475620Y-100025000D01*
X157100500Y-100025000D01*
X157075500Y-100050000D01*
X157075500Y-100600000D01*
X156924980Y-100600000D01*
X156924980Y-100050000D01*
X156899980Y-100025000D01*
X156524860Y-100025000D01*
X156524860Y-100045000D01*
X156474860Y-100045000D01*
X156474860Y-100025000D01*
X156099740Y-100025000D01*
X156074740Y-100050000D01*
X156074740Y-100600000D01*
X155924220Y-100600000D01*
X155924220Y-100050000D01*
X155899220Y-100025000D01*
X155524100Y-100025000D01*
X155524100Y-100045000D01*
X155474100Y-100045000D01*
X155474100Y-100025000D01*
X155098980Y-100025000D01*
X155073980Y-100050000D01*
X155073980Y-100600000D01*
X154926000Y-100600000D01*
X154926000Y-100050000D01*
X154901000Y-100025000D01*
X154525880Y-100025000D01*
X154525880Y-100045000D01*
X154475880Y-100045000D01*
X154475880Y-100025000D01*
X154100760Y-100025000D01*
X154075760Y-100050000D01*
X154075760Y-100600000D01*
X153925240Y-100600000D01*
X153925240Y-100050000D01*
X153900240Y-100025000D01*
X153525120Y-100025000D01*
X153525120Y-100045000D01*
X153475120Y-100045000D01*
X153475120Y-100025000D01*
X153100000Y-100025000D01*
X153075000Y-100050000D01*
X153075000Y-100600000D01*
X152924480Y-100600000D01*
X152924480Y-100050000D01*
X152899480Y-100025000D01*
X152524360Y-100025000D01*
X152524360Y-100045000D01*
X152474360Y-100045000D01*
X152474360Y-100025000D01*
X152454360Y-100025000D01*
X152454360Y-99975000D01*
X152474360Y-99975000D01*
X152474360Y-97625030D01*
X152524360Y-97625030D01*
X152524360Y-99975000D01*
X152899480Y-99975000D01*
X152924480Y-99950000D01*
X152924480Y-97680139D01*
X153075000Y-97680139D01*
X153075000Y-99950000D01*
X153100000Y-99975000D01*
X153475120Y-99975000D01*
X153475120Y-97625030D01*
X153525120Y-97625030D01*
X153525120Y-99975000D01*
X153900240Y-99975000D01*
X153925240Y-99950000D01*
X153925240Y-97680139D01*
X154075760Y-97680139D01*
X154075760Y-99950000D01*
X154100760Y-99975000D01*
X154475880Y-99975000D01*
X154475880Y-97625030D01*
X154525880Y-97625030D01*
X154525880Y-99975000D01*
X154901000Y-99975000D01*
X154926000Y-99950000D01*
X154926000Y-97680139D01*
X155073980Y-97680139D01*
X155073980Y-99950000D01*
X155098980Y-99975000D01*
X155474100Y-99975000D01*
X155474100Y-97625030D01*
X155524100Y-97625030D01*
X155524100Y-99975000D01*
X155899220Y-99975000D01*
X155924220Y-99950000D01*
X155924220Y-97680139D01*
X156074740Y-97680139D01*
X156074740Y-99950000D01*
X156099740Y-99975000D01*
X156474860Y-99975000D01*
X156474860Y-97625030D01*
X156524860Y-97625030D01*
X156524860Y-99975000D01*
X156899980Y-99975000D01*
X156924980Y-99950000D01*
X156924980Y-97680139D01*
X157075500Y-97680139D01*
X157075500Y-99950000D01*
X157100500Y-99975000D01*
X157475620Y-99975000D01*
X157475620Y-97625030D01*
X157525620Y-97625030D01*
X157525620Y-99975000D01*
X157900740Y-99975000D01*
X157925740Y-99950000D01*
X157925740Y-97680139D01*
X158073720Y-97680139D01*
X158073720Y-99950000D01*
X158098720Y-99975000D01*
X158473840Y-99975000D01*
X158473840Y-97625030D01*
X158523840Y-97625030D01*
X158523840Y-99975000D01*
X158898960Y-99975000D01*
X158923960Y-99950000D01*
X158923960Y-97680139D01*
X159074480Y-97680139D01*
X159074480Y-99950000D01*
X159099480Y-99975000D01*
X159474600Y-99975000D01*
X159474600Y-97625030D01*
X159449600Y-97600030D01*
X159154589Y-97600030D01*
X159117835Y-97615254D01*
X159089704Y-97643384D01*
X159074480Y-97680139D01*
X158923960Y-97680139D01*
X158908736Y-97643384D01*
X158880605Y-97615254D01*
X158843851Y-97600030D01*
X158548840Y-97600030D01*
X158523840Y-97625030D01*
X158473840Y-97625030D01*
X158448840Y-97600030D01*
X158153829Y-97600030D01*
X158117075Y-97615254D01*
X158088944Y-97643384D01*
X158073720Y-97680139D01*
X157925740Y-97680139D01*
X157910516Y-97643384D01*
X157882385Y-97615254D01*
X157845631Y-97600030D01*
X157550620Y-97600030D01*
X157525620Y-97625030D01*
X157475620Y-97625030D01*
X157450620Y-97600030D01*
X157155609Y-97600030D01*
X157118855Y-97615254D01*
X157090724Y-97643384D01*
X157075500Y-97680139D01*
X156924980Y-97680139D01*
X156909756Y-97643384D01*
X156881625Y-97615254D01*
X156844871Y-97600030D01*
X156549860Y-97600030D01*
X156524860Y-97625030D01*
X156474860Y-97625030D01*
X156449860Y-97600030D01*
X156154849Y-97600030D01*
X156118095Y-97615254D01*
X156089964Y-97643384D01*
X156074740Y-97680139D01*
X155924220Y-97680139D01*
X155908996Y-97643384D01*
X155880865Y-97615254D01*
X155844111Y-97600030D01*
X155549100Y-97600030D01*
X155524100Y-97625030D01*
X155474100Y-97625030D01*
X155449100Y-97600030D01*
X155154089Y-97600030D01*
X155117335Y-97615254D01*
X155089204Y-97643384D01*
X155073980Y-97680139D01*
X154926000Y-97680139D01*
X154910776Y-97643384D01*
X154882645Y-97615254D01*
X154845891Y-97600030D01*
X154550880Y-97600030D01*
X154525880Y-97625030D01*
X154475880Y-97625030D01*
X154450880Y-97600030D01*
X154155869Y-97600030D01*
X154119115Y-97615254D01*
X154090984Y-97643384D01*
X154075760Y-97680139D01*
X153925240Y-97680139D01*
X153910016Y-97643384D01*
X153881885Y-97615254D01*
X153845131Y-97600030D01*
X153550120Y-97600030D01*
X153525120Y-97625030D01*
X153475120Y-97625030D01*
X153450120Y-97600030D01*
X153155109Y-97600030D01*
X153118355Y-97615254D01*
X153090224Y-97643384D01*
X153075000Y-97680139D01*
X152924480Y-97680139D01*
X152909256Y-97643384D01*
X152881125Y-97615254D01*
X152844371Y-97600030D01*
X152549360Y-97600030D01*
X152524360Y-97625030D01*
X152474360Y-97625030D01*
X152449360Y-97600030D01*
X152287302Y-97600030D01*
X152299999Y-94400397D01*
X152292275Y-94361460D01*
X152270011Y-94328596D01*
X152236715Y-94306984D01*
X152200000Y-94300000D01*
X151973661Y-94300000D01*
X151994893Y-94248867D01*
X151995108Y-94002215D01*
X151900917Y-93774257D01*
X151726661Y-93599696D01*
X151498867Y-93505107D01*
X151313559Y-93504945D01*
X144600000Y-86791386D01*
X144600000Y-86172785D01*
X145454892Y-86172785D01*
X145549083Y-86400743D01*
X145723339Y-86575304D01*
X145951133Y-86669893D01*
X146197785Y-86670108D01*
X146425743Y-86575917D01*
X146600304Y-86401661D01*
X146694893Y-86173867D01*
X146695108Y-85927215D01*
X146600917Y-85699257D01*
X146495000Y-85593155D01*
X146495000Y-84981737D01*
X146625304Y-84851661D01*
X146646755Y-84800000D01*
X148400000Y-84800000D01*
X148400000Y-85219891D01*
X148415224Y-85256646D01*
X148443355Y-85284776D01*
X148480109Y-85300000D01*
X148700000Y-85300000D01*
X148725000Y-85275000D01*
X148725000Y-84775000D01*
X148775000Y-84775000D01*
X148775000Y-85275000D01*
X148800000Y-85300000D01*
X149019891Y-85300000D01*
X149056645Y-85284776D01*
X149084776Y-85256646D01*
X149100000Y-85219891D01*
X149100000Y-84800000D01*
X149075000Y-84775000D01*
X148775000Y-84775000D01*
X148725000Y-84775000D01*
X148425000Y-84775000D01*
X148400000Y-84800000D01*
X146646755Y-84800000D01*
X146719893Y-84623867D01*
X146720108Y-84377215D01*
X146679985Y-84280109D01*
X148400000Y-84280109D01*
X148400000Y-84700000D01*
X148425000Y-84725000D01*
X148725000Y-84725000D01*
X148725000Y-84225000D01*
X148775000Y-84225000D01*
X148775000Y-84725000D01*
X149075000Y-84725000D01*
X149100000Y-84700000D01*
X149100000Y-84280109D01*
X149084776Y-84243354D01*
X149056645Y-84215224D01*
X149019891Y-84200000D01*
X148800000Y-84200000D01*
X148775000Y-84225000D01*
X148725000Y-84225000D01*
X148700000Y-84200000D01*
X148480109Y-84200000D01*
X148443355Y-84215224D01*
X148415224Y-84243354D01*
X148400000Y-84280109D01*
X146679985Y-84280109D01*
X146625917Y-84149257D01*
X146451661Y-83974696D01*
X146223867Y-83880107D01*
X145977215Y-83879892D01*
X145749257Y-83974083D01*
X145574696Y-84148339D01*
X145480107Y-84376133D01*
X145479892Y-84622785D01*
X145574083Y-84850743D01*
X145705000Y-84981889D01*
X145705000Y-85543306D01*
X145549696Y-85698339D01*
X145455107Y-85926133D01*
X145454892Y-86172785D01*
X144600000Y-86172785D01*
X144600000Y-77347785D01*
X148929892Y-77347785D01*
X149024083Y-77575743D01*
X149155000Y-77706889D01*
X149155000Y-77993263D01*
X149024696Y-78123339D01*
X148930107Y-78351133D01*
X148929892Y-78597785D01*
X149024083Y-78825743D01*
X149198339Y-79000304D01*
X149426133Y-79094893D01*
X149672785Y-79095108D01*
X149900743Y-79000917D01*
X150075304Y-78826661D01*
X150169893Y-78598867D01*
X150170080Y-78384332D01*
X150376133Y-78469893D01*
X150561441Y-78470055D01*
X151150000Y-79058614D01*
X151150000Y-84180000D01*
X150803045Y-84180000D01*
X150733872Y-84072502D01*
X150645000Y-84011778D01*
X150645000Y-83100000D01*
X150614932Y-82948840D01*
X150544941Y-82844091D01*
X150545108Y-82652215D01*
X150450917Y-82424257D01*
X150276661Y-82249696D01*
X150048867Y-82155107D01*
X149802215Y-82154892D01*
X149574257Y-82249083D01*
X149399696Y-82423339D01*
X149305107Y-82651133D01*
X149304892Y-82897785D01*
X149399083Y-83125743D01*
X149573339Y-83300304D01*
X149801133Y-83394893D01*
X149855000Y-83394940D01*
X149855000Y-84013042D01*
X149772502Y-84066128D01*
X149699436Y-84173063D01*
X149673731Y-84300000D01*
X149673731Y-85200000D01*
X149696044Y-85318585D01*
X149766128Y-85427498D01*
X149873063Y-85500564D01*
X150000000Y-85526269D01*
X150500000Y-85526269D01*
X150618585Y-85503956D01*
X150727498Y-85433872D01*
X150800564Y-85326937D01*
X150801969Y-85320000D01*
X151150000Y-85320000D01*
X151150000Y-87373163D01*
X151076661Y-87299696D01*
X150848867Y-87205107D01*
X150602215Y-87204892D01*
X150374257Y-87299083D01*
X150199696Y-87473339D01*
X150105107Y-87701133D01*
X150104892Y-87947785D01*
X150199083Y-88175743D01*
X150373339Y-88350304D01*
X150601133Y-88444893D01*
X150786441Y-88445055D01*
X151150000Y-88808614D01*
X151150000Y-90475000D01*
X151157879Y-90513906D01*
X151180273Y-90546681D01*
X151213654Y-90568161D01*
X151250000Y-90575000D01*
X159735431Y-90575000D01*
X159763654Y-90593161D01*
X159800000Y-90600000D01*
X166450000Y-90600000D01*
X166488906Y-90592121D01*
X166520711Y-90570711D01*
X166645711Y-90445711D01*
X166667650Y-90412629D01*
X166675000Y-90375000D01*
X166675000Y-86747497D01*
X166908482Y-86903504D01*
X167361426Y-86993600D01*
X167718574Y-86993600D01*
X168171518Y-86903504D01*
X168555506Y-86646932D01*
X168812078Y-86262944D01*
X168902174Y-85810000D01*
X168812078Y-85357056D01*
X168555506Y-84973068D01*
X168171518Y-84716496D01*
X167718574Y-84626400D01*
X167361426Y-84626400D01*
X166908482Y-84716496D01*
X166675000Y-84872503D01*
X166675000Y-84207497D01*
X166908482Y-84363504D01*
X167361426Y-84453600D01*
X167718574Y-84453600D01*
X168171518Y-84363504D01*
X168555506Y-84106932D01*
X168812078Y-83722944D01*
X168902174Y-83270000D01*
X168812078Y-82817056D01*
X168555506Y-82433068D01*
X168171518Y-82176496D01*
X167718574Y-82086400D01*
X167361426Y-82086400D01*
X166908482Y-82176496D01*
X166675000Y-82332503D01*
X166675000Y-81667497D01*
X166908482Y-81823504D01*
X167361426Y-81913600D01*
X167718574Y-81913600D01*
X168171518Y-81823504D01*
X168555506Y-81566932D01*
X168812078Y-81182944D01*
X168902174Y-80730000D01*
X168812078Y-80277056D01*
X168555506Y-79893068D01*
X168171518Y-79636496D01*
X167718574Y-79546400D01*
X167361426Y-79546400D01*
X166908482Y-79636496D01*
X166675000Y-79792503D01*
X166675000Y-79379869D01*
X168556000Y-79379869D01*
X168674585Y-79357556D01*
X168783498Y-79287472D01*
X168856564Y-79180537D01*
X168882269Y-79053600D01*
X168882269Y-77326400D01*
X168859956Y-77207815D01*
X168789872Y-77098902D01*
X168682937Y-77025836D01*
X168556000Y-77000131D01*
X166675000Y-77000131D01*
X166675000Y-73425000D01*
X166667121Y-73386094D01*
X166644727Y-73353319D01*
X166611346Y-73331839D01*
X166575000Y-73325000D01*
X153093000Y-73325000D01*
X153093000Y-72173000D01*
X153062932Y-72021840D01*
X152977307Y-71893693D01*
X152969948Y-71886334D01*
X152970108Y-71702215D01*
X152875917Y-71474257D01*
X152701661Y-71299696D01*
X152473867Y-71205107D01*
X152227215Y-71204892D01*
X151999257Y-71299083D01*
X151824696Y-71473339D01*
X151730107Y-71701133D01*
X151729892Y-71947785D01*
X151824083Y-72175743D01*
X151998339Y-72350304D01*
X152226133Y-72444893D01*
X152303000Y-72444960D01*
X152303000Y-73325000D01*
X151250000Y-73325000D01*
X151211094Y-73332879D01*
X151178319Y-73355273D01*
X151156839Y-73388654D01*
X151150000Y-73425000D01*
X151150000Y-74180000D01*
X150803045Y-74180000D01*
X150733872Y-74072502D01*
X150626937Y-73999436D01*
X150500000Y-73973731D01*
X150000000Y-73973731D01*
X149881415Y-73996044D01*
X149772502Y-74066128D01*
X149699436Y-74173063D01*
X149673731Y-74300000D01*
X149673731Y-75200000D01*
X149696044Y-75318585D01*
X149766128Y-75427498D01*
X149873063Y-75500564D01*
X150000000Y-75526269D01*
X150500000Y-75526269D01*
X150618585Y-75503956D01*
X150727498Y-75433872D01*
X150800564Y-75326937D01*
X150801969Y-75320000D01*
X151150000Y-75320000D01*
X151150000Y-77941386D01*
X151119948Y-77911334D01*
X151120108Y-77727215D01*
X151025917Y-77499257D01*
X150851661Y-77324696D01*
X150623867Y-77230107D01*
X150377215Y-77229892D01*
X150169922Y-77315544D01*
X150170108Y-77102215D01*
X150075917Y-76874257D01*
X149901661Y-76699696D01*
X149673867Y-76605107D01*
X149427215Y-76604892D01*
X149199257Y-76699083D01*
X149024696Y-76873339D01*
X148930107Y-77101133D01*
X148929892Y-77347785D01*
X144600000Y-77347785D01*
X144600000Y-74222785D01*
X145104892Y-74222785D01*
X145199083Y-74450743D01*
X145330000Y-74581889D01*
X145330000Y-75718263D01*
X145199696Y-75848339D01*
X145105107Y-76076133D01*
X145104892Y-76322785D01*
X145199083Y-76550743D01*
X145373339Y-76725304D01*
X145601133Y-76819893D01*
X145847785Y-76820108D01*
X146075743Y-76725917D01*
X146250304Y-76551661D01*
X146344893Y-76323867D01*
X146345108Y-76077215D01*
X146270969Y-75897785D01*
X146879892Y-75897785D01*
X146974083Y-76125743D01*
X147148339Y-76300304D01*
X147376133Y-76394893D01*
X147622785Y-76395108D01*
X147850743Y-76300917D01*
X148025304Y-76126661D01*
X148119893Y-75898867D01*
X148120108Y-75652215D01*
X148025917Y-75424257D01*
X147895000Y-75293111D01*
X147895000Y-74800000D01*
X148400000Y-74800000D01*
X148400000Y-75219891D01*
X148415224Y-75256646D01*
X148443355Y-75284776D01*
X148480109Y-75300000D01*
X148700000Y-75300000D01*
X148725000Y-75275000D01*
X148725000Y-74775000D01*
X148775000Y-74775000D01*
X148775000Y-75275000D01*
X148800000Y-75300000D01*
X149019891Y-75300000D01*
X149056645Y-75284776D01*
X149084776Y-75256646D01*
X149100000Y-75219891D01*
X149100000Y-74800000D01*
X149075000Y-74775000D01*
X148775000Y-74775000D01*
X148725000Y-74775000D01*
X148425000Y-74775000D01*
X148400000Y-74800000D01*
X147895000Y-74800000D01*
X147895000Y-74280109D01*
X148400000Y-74280109D01*
X148400000Y-74700000D01*
X148425000Y-74725000D01*
X148725000Y-74725000D01*
X148725000Y-74225000D01*
X148775000Y-74225000D01*
X148775000Y-74725000D01*
X149075000Y-74725000D01*
X149100000Y-74700000D01*
X149100000Y-74280109D01*
X149084776Y-74243354D01*
X149056645Y-74215224D01*
X149019891Y-74200000D01*
X148800000Y-74200000D01*
X148775000Y-74225000D01*
X148725000Y-74225000D01*
X148700000Y-74200000D01*
X148480109Y-74200000D01*
X148443355Y-74215224D01*
X148415224Y-74243354D01*
X148400000Y-74280109D01*
X147895000Y-74280109D01*
X147895000Y-73978290D01*
X147900743Y-73975917D01*
X148075304Y-73801661D01*
X148169893Y-73573867D01*
X148170108Y-73327215D01*
X148075917Y-73099257D01*
X147901661Y-72924696D01*
X147673867Y-72830107D01*
X147427215Y-72829892D01*
X147199257Y-72924083D01*
X147024696Y-73098339D01*
X146930107Y-73326133D01*
X146929892Y-73572785D01*
X147024083Y-73800743D01*
X147105000Y-73881802D01*
X147105000Y-75293263D01*
X146974696Y-75423339D01*
X146880107Y-75651133D01*
X146879892Y-75897785D01*
X146270969Y-75897785D01*
X146250917Y-75849257D01*
X146120000Y-75718111D01*
X146120000Y-74581737D01*
X146250304Y-74451661D01*
X146344893Y-74223867D01*
X146345108Y-73977215D01*
X146250917Y-73749257D01*
X146076661Y-73574696D01*
X145848867Y-73480107D01*
X145602215Y-73479892D01*
X145374257Y-73574083D01*
X145199696Y-73748339D01*
X145105107Y-73976133D01*
X145104892Y-74222785D01*
X144600000Y-74222785D01*
X144600000Y-70395000D01*
X169561098Y-70395000D01*
X169597716Y-70402284D01*
X169597716Y-70402284D01*
G37*
X169597716Y-70402284D02*
X169605000Y-70438903D01*
X169605000Y-93061097D01*
X169597716Y-93097716D01*
X169561098Y-93105000D01*
X161100000Y-93105000D01*
X161061843Y-93112590D01*
X161022939Y-93112590D01*
X160659391Y-93184904D01*
X160659390Y-93184904D01*
X160517000Y-93243884D01*
X160208798Y-93449819D01*
X160154309Y-93504309D01*
X160099819Y-93558798D01*
X159893884Y-93867000D01*
X159837876Y-94002215D01*
X159834904Y-94009391D01*
X159776137Y-94304833D01*
X159761094Y-94307879D01*
X159728319Y-94330273D01*
X159706839Y-94363654D01*
X159700000Y-94400000D01*
X159700000Y-97600030D01*
X159549600Y-97600030D01*
X159524600Y-97625030D01*
X159524600Y-99975000D01*
X159544600Y-99975000D01*
X159544600Y-100025000D01*
X159524600Y-100025000D01*
X159524600Y-100045000D01*
X159474600Y-100045000D01*
X159474600Y-100025000D01*
X159099480Y-100025000D01*
X159074480Y-100050000D01*
X159074480Y-100600000D01*
X158923960Y-100600000D01*
X158923960Y-100050000D01*
X158898960Y-100025000D01*
X158523840Y-100025000D01*
X158523840Y-100045000D01*
X158473840Y-100045000D01*
X158473840Y-100025000D01*
X158098720Y-100025000D01*
X158073720Y-100050000D01*
X158073720Y-100600000D01*
X157925740Y-100600000D01*
X157925740Y-100050000D01*
X157900740Y-100025000D01*
X157525620Y-100025000D01*
X157525620Y-100045000D01*
X157475620Y-100045000D01*
X157475620Y-100025000D01*
X157100500Y-100025000D01*
X157075500Y-100050000D01*
X157075500Y-100600000D01*
X156924980Y-100600000D01*
X156924980Y-100050000D01*
X156899980Y-100025000D01*
X156524860Y-100025000D01*
X156524860Y-100045000D01*
X156474860Y-100045000D01*
X156474860Y-100025000D01*
X156099740Y-100025000D01*
X156074740Y-100050000D01*
X156074740Y-100600000D01*
X155924220Y-100600000D01*
X155924220Y-100050000D01*
X155899220Y-100025000D01*
X155524100Y-100025000D01*
X155524100Y-100045000D01*
X155474100Y-100045000D01*
X155474100Y-100025000D01*
X155098980Y-100025000D01*
X155073980Y-100050000D01*
X155073980Y-100600000D01*
X154926000Y-100600000D01*
X154926000Y-100050000D01*
X154901000Y-100025000D01*
X154525880Y-100025000D01*
X154525880Y-100045000D01*
X154475880Y-100045000D01*
X154475880Y-100025000D01*
X154100760Y-100025000D01*
X154075760Y-100050000D01*
X154075760Y-100600000D01*
X153925240Y-100600000D01*
X153925240Y-100050000D01*
X153900240Y-100025000D01*
X153525120Y-100025000D01*
X153525120Y-100045000D01*
X153475120Y-100045000D01*
X153475120Y-100025000D01*
X153100000Y-100025000D01*
X153075000Y-100050000D01*
X153075000Y-100600000D01*
X152924480Y-100600000D01*
X152924480Y-100050000D01*
X152899480Y-100025000D01*
X152524360Y-100025000D01*
X152524360Y-100045000D01*
X152474360Y-100045000D01*
X152474360Y-100025000D01*
X152454360Y-100025000D01*
X152454360Y-99975000D01*
X152474360Y-99975000D01*
X152474360Y-97625030D01*
X152524360Y-97625030D01*
X152524360Y-99975000D01*
X152899480Y-99975000D01*
X152924480Y-99950000D01*
X152924480Y-97680139D01*
X153075000Y-97680139D01*
X153075000Y-99950000D01*
X153100000Y-99975000D01*
X153475120Y-99975000D01*
X153475120Y-97625030D01*
X153525120Y-97625030D01*
X153525120Y-99975000D01*
X153900240Y-99975000D01*
X153925240Y-99950000D01*
X153925240Y-97680139D01*
X154075760Y-97680139D01*
X154075760Y-99950000D01*
X154100760Y-99975000D01*
X154475880Y-99975000D01*
X154475880Y-97625030D01*
X154525880Y-97625030D01*
X154525880Y-99975000D01*
X154901000Y-99975000D01*
X154926000Y-99950000D01*
X154926000Y-97680139D01*
X155073980Y-97680139D01*
X155073980Y-99950000D01*
X155098980Y-99975000D01*
X155474100Y-99975000D01*
X155474100Y-97625030D01*
X155524100Y-97625030D01*
X155524100Y-99975000D01*
X155899220Y-99975000D01*
X155924220Y-99950000D01*
X155924220Y-97680139D01*
X156074740Y-97680139D01*
X156074740Y-99950000D01*
X156099740Y-99975000D01*
X156474860Y-99975000D01*
X156474860Y-97625030D01*
X156524860Y-97625030D01*
X156524860Y-99975000D01*
X156899980Y-99975000D01*
X156924980Y-99950000D01*
X156924980Y-97680139D01*
X157075500Y-97680139D01*
X157075500Y-99950000D01*
X157100500Y-99975000D01*
X157475620Y-99975000D01*
X157475620Y-97625030D01*
X157525620Y-97625030D01*
X157525620Y-99975000D01*
X157900740Y-99975000D01*
X157925740Y-99950000D01*
X157925740Y-97680139D01*
X158073720Y-97680139D01*
X158073720Y-99950000D01*
X158098720Y-99975000D01*
X158473840Y-99975000D01*
X158473840Y-97625030D01*
X158523840Y-97625030D01*
X158523840Y-99975000D01*
X158898960Y-99975000D01*
X158923960Y-99950000D01*
X158923960Y-97680139D01*
X159074480Y-97680139D01*
X159074480Y-99950000D01*
X159099480Y-99975000D01*
X159474600Y-99975000D01*
X159474600Y-97625030D01*
X159449600Y-97600030D01*
X159154589Y-97600030D01*
X159117835Y-97615254D01*
X159089704Y-97643384D01*
X159074480Y-97680139D01*
X158923960Y-97680139D01*
X158908736Y-97643384D01*
X158880605Y-97615254D01*
X158843851Y-97600030D01*
X158548840Y-97600030D01*
X158523840Y-97625030D01*
X158473840Y-97625030D01*
X158448840Y-97600030D01*
X158153829Y-97600030D01*
X158117075Y-97615254D01*
X158088944Y-97643384D01*
X158073720Y-97680139D01*
X157925740Y-97680139D01*
X157910516Y-97643384D01*
X157882385Y-97615254D01*
X157845631Y-97600030D01*
X157550620Y-97600030D01*
X157525620Y-97625030D01*
X157475620Y-97625030D01*
X157450620Y-97600030D01*
X157155609Y-97600030D01*
X157118855Y-97615254D01*
X157090724Y-97643384D01*
X157075500Y-97680139D01*
X156924980Y-97680139D01*
X156909756Y-97643384D01*
X156881625Y-97615254D01*
X156844871Y-97600030D01*
X156549860Y-97600030D01*
X156524860Y-97625030D01*
X156474860Y-97625030D01*
X156449860Y-97600030D01*
X156154849Y-97600030D01*
X156118095Y-97615254D01*
X156089964Y-97643384D01*
X156074740Y-97680139D01*
X155924220Y-97680139D01*
X155908996Y-97643384D01*
X155880865Y-97615254D01*
X155844111Y-97600030D01*
X155549100Y-97600030D01*
X155524100Y-97625030D01*
X155474100Y-97625030D01*
X155449100Y-97600030D01*
X155154089Y-97600030D01*
X155117335Y-97615254D01*
X155089204Y-97643384D01*
X155073980Y-97680139D01*
X154926000Y-97680139D01*
X154910776Y-97643384D01*
X154882645Y-97615254D01*
X154845891Y-97600030D01*
X154550880Y-97600030D01*
X154525880Y-97625030D01*
X154475880Y-97625030D01*
X154450880Y-97600030D01*
X154155869Y-97600030D01*
X154119115Y-97615254D01*
X154090984Y-97643384D01*
X154075760Y-97680139D01*
X153925240Y-97680139D01*
X153910016Y-97643384D01*
X153881885Y-97615254D01*
X153845131Y-97600030D01*
X153550120Y-97600030D01*
X153525120Y-97625030D01*
X153475120Y-97625030D01*
X153450120Y-97600030D01*
X153155109Y-97600030D01*
X153118355Y-97615254D01*
X153090224Y-97643384D01*
X153075000Y-97680139D01*
X152924480Y-97680139D01*
X152909256Y-97643384D01*
X152881125Y-97615254D01*
X152844371Y-97600030D01*
X152549360Y-97600030D01*
X152524360Y-97625030D01*
X152474360Y-97625030D01*
X152449360Y-97600030D01*
X152287302Y-97600030D01*
X152299999Y-94400397D01*
X152292275Y-94361460D01*
X152270011Y-94328596D01*
X152236715Y-94306984D01*
X152200000Y-94300000D01*
X151973661Y-94300000D01*
X151994893Y-94248867D01*
X151995108Y-94002215D01*
X151900917Y-93774257D01*
X151726661Y-93599696D01*
X151498867Y-93505107D01*
X151313559Y-93504945D01*
X144600000Y-86791386D01*
X144600000Y-86172785D01*
X145454892Y-86172785D01*
X145549083Y-86400743D01*
X145723339Y-86575304D01*
X145951133Y-86669893D01*
X146197785Y-86670108D01*
X146425743Y-86575917D01*
X146600304Y-86401661D01*
X146694893Y-86173867D01*
X146695108Y-85927215D01*
X146600917Y-85699257D01*
X146495000Y-85593155D01*
X146495000Y-84981737D01*
X146625304Y-84851661D01*
X146646755Y-84800000D01*
X148400000Y-84800000D01*
X148400000Y-85219891D01*
X148415224Y-85256646D01*
X148443355Y-85284776D01*
X148480109Y-85300000D01*
X148700000Y-85300000D01*
X148725000Y-85275000D01*
X148725000Y-84775000D01*
X148775000Y-84775000D01*
X148775000Y-85275000D01*
X148800000Y-85300000D01*
X149019891Y-85300000D01*
X149056645Y-85284776D01*
X149084776Y-85256646D01*
X149100000Y-85219891D01*
X149100000Y-84800000D01*
X149075000Y-84775000D01*
X148775000Y-84775000D01*
X148725000Y-84775000D01*
X148425000Y-84775000D01*
X148400000Y-84800000D01*
X146646755Y-84800000D01*
X146719893Y-84623867D01*
X146720108Y-84377215D01*
X146679985Y-84280109D01*
X148400000Y-84280109D01*
X148400000Y-84700000D01*
X148425000Y-84725000D01*
X148725000Y-84725000D01*
X148725000Y-84225000D01*
X148775000Y-84225000D01*
X148775000Y-84725000D01*
X149075000Y-84725000D01*
X149100000Y-84700000D01*
X149100000Y-84280109D01*
X149084776Y-84243354D01*
X149056645Y-84215224D01*
X149019891Y-84200000D01*
X148800000Y-84200000D01*
X148775000Y-84225000D01*
X148725000Y-84225000D01*
X148700000Y-84200000D01*
X148480109Y-84200000D01*
X148443355Y-84215224D01*
X148415224Y-84243354D01*
X148400000Y-84280109D01*
X146679985Y-84280109D01*
X146625917Y-84149257D01*
X146451661Y-83974696D01*
X146223867Y-83880107D01*
X145977215Y-83879892D01*
X145749257Y-83974083D01*
X145574696Y-84148339D01*
X145480107Y-84376133D01*
X145479892Y-84622785D01*
X145574083Y-84850743D01*
X145705000Y-84981889D01*
X145705000Y-85543306D01*
X145549696Y-85698339D01*
X145455107Y-85926133D01*
X145454892Y-86172785D01*
X144600000Y-86172785D01*
X144600000Y-77347785D01*
X148929892Y-77347785D01*
X149024083Y-77575743D01*
X149155000Y-77706889D01*
X149155000Y-77993263D01*
X149024696Y-78123339D01*
X148930107Y-78351133D01*
X148929892Y-78597785D01*
X149024083Y-78825743D01*
X149198339Y-79000304D01*
X149426133Y-79094893D01*
X149672785Y-79095108D01*
X149900743Y-79000917D01*
X150075304Y-78826661D01*
X150169893Y-78598867D01*
X150170080Y-78384332D01*
X150376133Y-78469893D01*
X150561441Y-78470055D01*
X151150000Y-79058614D01*
X151150000Y-84180000D01*
X150803045Y-84180000D01*
X150733872Y-84072502D01*
X150645000Y-84011778D01*
X150645000Y-83100000D01*
X150614932Y-82948840D01*
X150544941Y-82844091D01*
X150545108Y-82652215D01*
X150450917Y-82424257D01*
X150276661Y-82249696D01*
X150048867Y-82155107D01*
X149802215Y-82154892D01*
X149574257Y-82249083D01*
X149399696Y-82423339D01*
X149305107Y-82651133D01*
X149304892Y-82897785D01*
X149399083Y-83125743D01*
X149573339Y-83300304D01*
X149801133Y-83394893D01*
X149855000Y-83394940D01*
X149855000Y-84013042D01*
X149772502Y-84066128D01*
X149699436Y-84173063D01*
X149673731Y-84300000D01*
X149673731Y-85200000D01*
X149696044Y-85318585D01*
X149766128Y-85427498D01*
X149873063Y-85500564D01*
X150000000Y-85526269D01*
X150500000Y-85526269D01*
X150618585Y-85503956D01*
X150727498Y-85433872D01*
X150800564Y-85326937D01*
X150801969Y-85320000D01*
X151150000Y-85320000D01*
X151150000Y-87373163D01*
X151076661Y-87299696D01*
X150848867Y-87205107D01*
X150602215Y-87204892D01*
X150374257Y-87299083D01*
X150199696Y-87473339D01*
X150105107Y-87701133D01*
X150104892Y-87947785D01*
X150199083Y-88175743D01*
X150373339Y-88350304D01*
X150601133Y-88444893D01*
X150786441Y-88445055D01*
X151150000Y-88808614D01*
X151150000Y-90475000D01*
X151157879Y-90513906D01*
X151180273Y-90546681D01*
X151213654Y-90568161D01*
X151250000Y-90575000D01*
X159735431Y-90575000D01*
X159763654Y-90593161D01*
X159800000Y-90600000D01*
X166450000Y-90600000D01*
X166488906Y-90592121D01*
X166520711Y-90570711D01*
X166645711Y-90445711D01*
X166667650Y-90412629D01*
X166675000Y-90375000D01*
X166675000Y-86747497D01*
X166908482Y-86903504D01*
X167361426Y-86993600D01*
X167718574Y-86993600D01*
X168171518Y-86903504D01*
X168555506Y-86646932D01*
X168812078Y-86262944D01*
X168902174Y-85810000D01*
X168812078Y-85357056D01*
X168555506Y-84973068D01*
X168171518Y-84716496D01*
X167718574Y-84626400D01*
X167361426Y-84626400D01*
X166908482Y-84716496D01*
X166675000Y-84872503D01*
X166675000Y-84207497D01*
X166908482Y-84363504D01*
X167361426Y-84453600D01*
X167718574Y-84453600D01*
X168171518Y-84363504D01*
X168555506Y-84106932D01*
X168812078Y-83722944D01*
X168902174Y-83270000D01*
X168812078Y-82817056D01*
X168555506Y-82433068D01*
X168171518Y-82176496D01*
X167718574Y-82086400D01*
X167361426Y-82086400D01*
X166908482Y-82176496D01*
X166675000Y-82332503D01*
X166675000Y-81667497D01*
X166908482Y-81823504D01*
X167361426Y-81913600D01*
X167718574Y-81913600D01*
X168171518Y-81823504D01*
X168555506Y-81566932D01*
X168812078Y-81182944D01*
X168902174Y-80730000D01*
X168812078Y-80277056D01*
X168555506Y-79893068D01*
X168171518Y-79636496D01*
X167718574Y-79546400D01*
X167361426Y-79546400D01*
X166908482Y-79636496D01*
X166675000Y-79792503D01*
X166675000Y-79379869D01*
X168556000Y-79379869D01*
X168674585Y-79357556D01*
X168783498Y-79287472D01*
X168856564Y-79180537D01*
X168882269Y-79053600D01*
X168882269Y-77326400D01*
X168859956Y-77207815D01*
X168789872Y-77098902D01*
X168682937Y-77025836D01*
X168556000Y-77000131D01*
X166675000Y-77000131D01*
X166675000Y-73425000D01*
X166667121Y-73386094D01*
X166644727Y-73353319D01*
X166611346Y-73331839D01*
X166575000Y-73325000D01*
X153093000Y-73325000D01*
X153093000Y-72173000D01*
X153062932Y-72021840D01*
X152977307Y-71893693D01*
X152969948Y-71886334D01*
X152970108Y-71702215D01*
X152875917Y-71474257D01*
X152701661Y-71299696D01*
X152473867Y-71205107D01*
X152227215Y-71204892D01*
X151999257Y-71299083D01*
X151824696Y-71473339D01*
X151730107Y-71701133D01*
X151729892Y-71947785D01*
X151824083Y-72175743D01*
X151998339Y-72350304D01*
X152226133Y-72444893D01*
X152303000Y-72444960D01*
X152303000Y-73325000D01*
X151250000Y-73325000D01*
X151211094Y-73332879D01*
X151178319Y-73355273D01*
X151156839Y-73388654D01*
X151150000Y-73425000D01*
X151150000Y-74180000D01*
X150803045Y-74180000D01*
X150733872Y-74072502D01*
X150626937Y-73999436D01*
X150500000Y-73973731D01*
X150000000Y-73973731D01*
X149881415Y-73996044D01*
X149772502Y-74066128D01*
X149699436Y-74173063D01*
X149673731Y-74300000D01*
X149673731Y-75200000D01*
X149696044Y-75318585D01*
X149766128Y-75427498D01*
X149873063Y-75500564D01*
X150000000Y-75526269D01*
X150500000Y-75526269D01*
X150618585Y-75503956D01*
X150727498Y-75433872D01*
X150800564Y-75326937D01*
X150801969Y-75320000D01*
X151150000Y-75320000D01*
X151150000Y-77941386D01*
X151119948Y-77911334D01*
X151120108Y-77727215D01*
X151025917Y-77499257D01*
X150851661Y-77324696D01*
X150623867Y-77230107D01*
X150377215Y-77229892D01*
X150169922Y-77315544D01*
X150170108Y-77102215D01*
X150075917Y-76874257D01*
X149901661Y-76699696D01*
X149673867Y-76605107D01*
X149427215Y-76604892D01*
X149199257Y-76699083D01*
X149024696Y-76873339D01*
X148930107Y-77101133D01*
X148929892Y-77347785D01*
X144600000Y-77347785D01*
X144600000Y-74222785D01*
X145104892Y-74222785D01*
X145199083Y-74450743D01*
X145330000Y-74581889D01*
X145330000Y-75718263D01*
X145199696Y-75848339D01*
X145105107Y-76076133D01*
X145104892Y-76322785D01*
X145199083Y-76550743D01*
X145373339Y-76725304D01*
X145601133Y-76819893D01*
X145847785Y-76820108D01*
X146075743Y-76725917D01*
X146250304Y-76551661D01*
X146344893Y-76323867D01*
X146345108Y-76077215D01*
X146270969Y-75897785D01*
X146879892Y-75897785D01*
X146974083Y-76125743D01*
X147148339Y-76300304D01*
X147376133Y-76394893D01*
X147622785Y-76395108D01*
X147850743Y-76300917D01*
X148025304Y-76126661D01*
X148119893Y-75898867D01*
X148120108Y-75652215D01*
X148025917Y-75424257D01*
X147895000Y-75293111D01*
X147895000Y-74800000D01*
X148400000Y-74800000D01*
X148400000Y-75219891D01*
X148415224Y-75256646D01*
X148443355Y-75284776D01*
X148480109Y-75300000D01*
X148700000Y-75300000D01*
X148725000Y-75275000D01*
X148725000Y-74775000D01*
X148775000Y-74775000D01*
X148775000Y-75275000D01*
X148800000Y-75300000D01*
X149019891Y-75300000D01*
X149056645Y-75284776D01*
X149084776Y-75256646D01*
X149100000Y-75219891D01*
X149100000Y-74800000D01*
X149075000Y-74775000D01*
X148775000Y-74775000D01*
X148725000Y-74775000D01*
X148425000Y-74775000D01*
X148400000Y-74800000D01*
X147895000Y-74800000D01*
X147895000Y-74280109D01*
X148400000Y-74280109D01*
X148400000Y-74700000D01*
X148425000Y-74725000D01*
X148725000Y-74725000D01*
X148725000Y-74225000D01*
X148775000Y-74225000D01*
X148775000Y-74725000D01*
X149075000Y-74725000D01*
X149100000Y-74700000D01*
X149100000Y-74280109D01*
X149084776Y-74243354D01*
X149056645Y-74215224D01*
X149019891Y-74200000D01*
X148800000Y-74200000D01*
X148775000Y-74225000D01*
X148725000Y-74225000D01*
X148700000Y-74200000D01*
X148480109Y-74200000D01*
X148443355Y-74215224D01*
X148415224Y-74243354D01*
X148400000Y-74280109D01*
X147895000Y-74280109D01*
X147895000Y-73978290D01*
X147900743Y-73975917D01*
X148075304Y-73801661D01*
X148169893Y-73573867D01*
X148170108Y-73327215D01*
X148075917Y-73099257D01*
X147901661Y-72924696D01*
X147673867Y-72830107D01*
X147427215Y-72829892D01*
X147199257Y-72924083D01*
X147024696Y-73098339D01*
X146930107Y-73326133D01*
X146929892Y-73572785D01*
X147024083Y-73800743D01*
X147105000Y-73881802D01*
X147105000Y-75293263D01*
X146974696Y-75423339D01*
X146880107Y-75651133D01*
X146879892Y-75897785D01*
X146270969Y-75897785D01*
X146250917Y-75849257D01*
X146120000Y-75718111D01*
X146120000Y-74581737D01*
X146250304Y-74451661D01*
X146344893Y-74223867D01*
X146345108Y-73977215D01*
X146250917Y-73749257D01*
X146076661Y-73574696D01*
X145848867Y-73480107D01*
X145602215Y-73479892D01*
X145374257Y-73574083D01*
X145199696Y-73748339D01*
X145105107Y-73976133D01*
X145104892Y-74222785D01*
X144600000Y-74222785D01*
X144600000Y-70395000D01*
X169561098Y-70395000D01*
X169597716Y-70402284D01*
M02*
