G04 #@! TF.FileFunction,Copper,L1,Top,Signal*
%FSLAX46Y46*%
G04 Gerber Fmt 4.6, Leading zero omitted, Abs format (unit mm)*
G04 Created by KiCad (PCBNEW 4.0.2+e4-6225~38~ubuntu14.04.1-stable) date Sat 23 Jul 2016 00:45:22 PDT*
%MOMM*%
G01*
G04 APERTURE LIST*
%ADD10C,0.100000*%
%ADD11R,0.650240X3.599180*%
%ADD12R,0.650240X4.599940*%
%ADD13O,0.650240X0.650240*%
%ADD14R,2.032000X3.657600*%
%ADD15R,2.032000X1.016000*%
%ADD16R,0.500000X0.900000*%
%ADD17R,0.900000X0.500000*%
%ADD18R,1.500000X0.450000*%
%ADD19R,0.750000X0.800000*%
%ADD20R,0.800000X0.750000*%
%ADD21R,2.032000X1.727200*%
%ADD22O,2.032000X1.727200*%
%ADD23R,0.350000X0.350000*%
%ADD24R,0.900000X0.300000*%
%ADD25R,0.300000X0.900000*%
%ADD26R,1.800000X1.800000*%
%ADD27C,0.600000*%
%ADD28C,0.150000*%
%ADD29C,0.400000*%
%ADD30C,0.200000*%
%ADD31C,0.300000*%
%ADD32C,0.500000*%
G04 APERTURE END LIST*
D10*
D11*
X159499600Y-99499620D03*
D12*
X158498840Y-100000000D03*
X157500620Y-100000000D03*
X156499860Y-100000000D03*
X155499100Y-100000000D03*
X154500880Y-100000000D03*
X153500120Y-100000000D03*
X152499360Y-100000000D03*
X151501140Y-100000000D03*
X150500380Y-100000000D03*
X149499620Y-100000000D03*
X144500900Y-100000000D03*
X143500140Y-100000000D03*
X142499380Y-100000000D03*
X141501160Y-100000000D03*
X140500400Y-100000000D03*
X146499880Y-100000000D03*
X145499120Y-100000000D03*
D13*
X156499860Y-102301240D03*
X155499100Y-102301240D03*
X154500880Y-102301240D03*
X153500120Y-102301240D03*
X152499360Y-102301240D03*
X151501140Y-102301240D03*
X150500380Y-102301240D03*
X144500900Y-102301240D03*
X143500140Y-102301240D03*
X157500620Y-102301240D03*
X145499120Y-102301240D03*
X142499380Y-102301240D03*
X149499620Y-102301240D03*
X146499880Y-102301240D03*
X141501160Y-102301240D03*
X140500400Y-102301240D03*
X158498840Y-102301240D03*
D14*
X159302000Y-87000000D03*
D15*
X152698000Y-87000000D03*
X152698000Y-89286000D03*
X152698000Y-84714000D03*
D14*
X159302000Y-77000000D03*
D15*
X152698000Y-77000000D03*
X152698000Y-79286000D03*
X152698000Y-74714000D03*
D16*
X136250000Y-92500000D03*
X137750000Y-92500000D03*
X136250000Y-90750000D03*
X137750000Y-90750000D03*
X136250000Y-89000000D03*
X137750000Y-89000000D03*
X132000000Y-90750000D03*
X130500000Y-90750000D03*
D17*
X126500000Y-76000000D03*
X126500000Y-77500000D03*
X128250000Y-76000000D03*
X128250000Y-77500000D03*
X130000000Y-76000000D03*
X130000000Y-77500000D03*
X131750000Y-76000000D03*
X131750000Y-77500000D03*
D18*
X137550000Y-79725000D03*
X137550000Y-80375000D03*
X137550000Y-81025000D03*
X137550000Y-81675000D03*
X137550000Y-82325000D03*
X137550000Y-82975000D03*
X137550000Y-83625000D03*
X137550000Y-84275000D03*
X143450000Y-84275000D03*
X143450000Y-83625000D03*
X143450000Y-82975000D03*
X143450000Y-82325000D03*
X143450000Y-81675000D03*
X143450000Y-81025000D03*
X143450000Y-80375000D03*
X143450000Y-79725000D03*
D19*
X135000000Y-81250000D03*
X135000000Y-82750000D03*
X126875000Y-84350000D03*
X126875000Y-82850000D03*
D20*
X145500000Y-79000000D03*
X147000000Y-79000000D03*
X145500000Y-80500000D03*
X147000000Y-80500000D03*
D16*
X150250000Y-89250000D03*
X148750000Y-89250000D03*
X150250000Y-79250000D03*
X148750000Y-79250000D03*
D21*
X167540000Y-78190000D03*
D22*
X167540000Y-80730000D03*
X167540000Y-83270000D03*
X167540000Y-85810000D03*
D21*
X165000000Y-78190000D03*
D22*
X165000000Y-80730000D03*
X165000000Y-83270000D03*
X165000000Y-85810000D03*
D23*
X129075000Y-83150000D03*
D24*
X128775000Y-83650000D03*
X128775000Y-84150000D03*
X128775000Y-84650000D03*
X128775000Y-85150000D03*
D23*
X129075000Y-85650000D03*
D25*
X129575000Y-85950000D03*
X130075000Y-85950000D03*
X130575000Y-85950000D03*
X131075000Y-85950000D03*
D23*
X131575000Y-85650000D03*
D24*
X131875000Y-85150000D03*
X131875000Y-84650000D03*
X131875000Y-84150000D03*
X131875000Y-83650000D03*
D23*
X131575000Y-83150000D03*
D25*
X131075000Y-82850000D03*
X130575000Y-82850000D03*
X130075000Y-82850000D03*
X129575000Y-82850000D03*
D26*
X130325000Y-84400000D03*
D27*
X129825000Y-83900000D03*
X130825000Y-84900000D03*
X128800000Y-86950000D03*
X128900000Y-88400000D03*
X148750000Y-80475000D03*
X148625000Y-88100000D03*
X140350000Y-85500000D03*
X146575000Y-82050000D03*
X133150000Y-76050000D03*
X135900000Y-79650000D03*
X129000000Y-81175000D03*
X128150000Y-81875000D03*
X130075000Y-79900000D03*
X129325000Y-80450000D03*
X143650000Y-78600000D03*
X143875000Y-70875000D03*
X141250000Y-82350000D03*
X141250000Y-84375000D03*
X140350000Y-81025000D03*
X140350000Y-84375000D03*
X142500000Y-89500000D03*
X139250000Y-90750000D03*
X140500000Y-90750000D03*
X140500000Y-92550000D03*
X146100000Y-84500000D03*
X146075000Y-86050000D03*
X151375000Y-94125000D03*
X141125000Y-86025000D03*
X149925000Y-82775000D03*
X149550000Y-78475000D03*
X149550000Y-77225000D03*
X145725000Y-76200000D03*
X145725000Y-74100000D03*
X150725000Y-87825000D03*
X152350000Y-71825000D03*
X150500000Y-77850000D03*
X147500000Y-75775000D03*
X147550000Y-73450000D03*
D28*
X128800000Y-86950000D02*
X129075000Y-86675000D01*
X129075000Y-86675000D02*
X129075000Y-85650000D01*
X130500000Y-89475000D02*
X130500000Y-90750000D01*
X128900000Y-88400000D02*
X129625000Y-89125000D01*
X129625000Y-89125000D02*
X130150000Y-89125000D01*
X130150000Y-89125000D02*
X130500000Y-89475000D01*
D29*
X148750000Y-79250000D02*
X148750000Y-80475000D01*
X148750000Y-89250000D02*
X148750000Y-88225000D01*
X148750000Y-88225000D02*
X148625000Y-88100000D01*
D30*
X135000000Y-82750000D02*
X135000000Y-84275000D01*
X135000000Y-84275000D02*
X135000000Y-84250000D01*
X135000000Y-84250000D02*
X135000000Y-84275000D01*
X126875000Y-82850000D02*
X127175000Y-82850000D01*
X127175000Y-82850000D02*
X127775000Y-83450000D01*
X127775000Y-83450000D02*
X127775000Y-83925000D01*
X127775000Y-83925000D02*
X128000000Y-84150000D01*
X128000000Y-84150000D02*
X128775000Y-84150000D01*
D28*
X128775000Y-84150000D02*
X130075000Y-84150000D01*
X130075000Y-84150000D02*
X130325000Y-84400000D01*
X131875000Y-85150000D02*
X131075000Y-85150000D01*
X131075000Y-85150000D02*
X130325000Y-84400000D01*
X131875000Y-85150000D02*
X133050000Y-85150000D01*
X133925000Y-84275000D02*
X135000000Y-84275000D01*
X135000000Y-84275000D02*
X137550000Y-84275000D01*
X133050000Y-85150000D02*
X133925000Y-84275000D01*
X137550000Y-84275000D02*
X139125000Y-84275000D01*
X139125000Y-84275000D02*
X140350000Y-85500000D01*
D29*
X143450000Y-81025000D02*
X143450000Y-81675000D01*
X143450000Y-81675000D02*
X146200000Y-81675000D01*
X146200000Y-81675000D02*
X146575000Y-82050000D01*
X143450000Y-82975000D02*
X145650000Y-82975000D01*
X145650000Y-82975000D02*
X146575000Y-82050000D01*
X147000000Y-80500000D02*
X147000000Y-81625000D01*
X147000000Y-81625000D02*
X146575000Y-82050000D01*
D31*
X147000000Y-79000000D02*
X147000000Y-80500000D01*
D30*
X135000000Y-81250000D02*
X135000000Y-80550000D01*
X135000000Y-80550000D02*
X135900000Y-79650000D01*
X126875000Y-84350000D02*
X126875000Y-91050000D01*
X127025000Y-91200000D02*
X128125000Y-92300000D01*
X128125000Y-92300000D02*
X131700000Y-92300000D01*
X131700000Y-92300000D02*
X132000000Y-92000000D01*
X132000000Y-92000000D02*
X132000000Y-90750000D01*
X126875000Y-91050000D02*
X127025000Y-91200000D01*
X125750000Y-83400000D02*
X125750000Y-83950000D01*
X126150000Y-84350000D02*
X126875000Y-84350000D01*
X125750000Y-83950000D02*
X126150000Y-84350000D01*
X128775000Y-84650000D02*
X127175000Y-84650000D01*
X127175000Y-84650000D02*
X126875000Y-84350000D01*
D31*
X132000000Y-90750000D02*
X136250000Y-90750000D01*
X136250000Y-89000000D02*
X136250000Y-90750000D01*
X136250000Y-90750000D02*
X136250000Y-92500000D01*
D30*
X125750000Y-76750000D02*
X126500000Y-76000000D01*
X125750000Y-83425000D02*
X125750000Y-83400000D01*
X125750000Y-83400000D02*
X125750000Y-76750000D01*
X126500000Y-76000000D02*
X128250000Y-76000000D01*
X128250000Y-76000000D02*
X130000000Y-76000000D01*
X130000000Y-76000000D02*
X131750000Y-76000000D01*
X131750000Y-76000000D02*
X131800000Y-76050000D01*
X131800000Y-76050000D02*
X133150000Y-76050000D01*
X137550000Y-79725000D02*
X135975000Y-79725000D01*
X135975000Y-79725000D02*
X135900000Y-79650000D01*
D28*
X129000000Y-81175000D02*
X128925000Y-81175000D01*
X128250000Y-80500000D02*
X128250000Y-77500000D01*
X128925000Y-81175000D02*
X128250000Y-80500000D01*
X129075000Y-81250000D02*
X129075000Y-83150000D01*
X129000000Y-81175000D02*
X129075000Y-81250000D01*
X128150000Y-81875000D02*
X128150000Y-81725000D01*
X126500000Y-80075000D02*
X126500000Y-77500000D01*
X128150000Y-81725000D02*
X126500000Y-80075000D01*
X127850000Y-82725000D02*
X128775000Y-83650000D01*
X127850000Y-82175000D02*
X127850000Y-82725000D01*
X128150000Y-81875000D02*
X127850000Y-82175000D01*
X130075000Y-79900000D02*
X130925000Y-79900000D01*
X131750000Y-79075000D02*
X131750000Y-77500000D01*
X130925000Y-79900000D02*
X131750000Y-79075000D01*
X130075000Y-79900000D02*
X130075000Y-82850000D01*
X129325000Y-80450000D02*
X129325000Y-79700000D01*
X130000000Y-79025000D02*
X130000000Y-77500000D01*
X129325000Y-79700000D02*
X130000000Y-79025000D01*
X129575000Y-80700000D02*
X129575000Y-82850000D01*
X129325000Y-80450000D02*
X129575000Y-80700000D01*
D29*
X167540000Y-78190000D02*
X167540000Y-72990000D01*
X143450000Y-78800000D02*
X143450000Y-79725000D01*
X143650000Y-78600000D02*
X143450000Y-78800000D01*
X143950000Y-70950000D02*
X143875000Y-70875000D01*
X165500000Y-70950000D02*
X143950000Y-70950000D01*
X167540000Y-72990000D02*
X165500000Y-70950000D01*
D31*
X143450000Y-79725000D02*
X144725000Y-79725000D01*
X144725000Y-79725000D02*
X145500000Y-80500000D01*
X143450000Y-79725000D02*
X144775000Y-79725000D01*
X144775000Y-79725000D02*
X145500000Y-79000000D01*
D28*
X158498840Y-100000000D02*
X158498840Y-102301240D01*
X157500620Y-100000000D02*
X157500620Y-102301240D01*
X156499860Y-100000000D02*
X156499860Y-102301240D01*
X155499100Y-100000000D02*
X155499100Y-102301240D01*
X154500880Y-100000000D02*
X154500880Y-102301240D01*
X153500120Y-100000000D02*
X153500120Y-102301240D01*
X152499360Y-100000000D02*
X152499360Y-102301240D01*
D29*
X149499620Y-100000000D02*
X150500380Y-100000000D01*
X150500380Y-100000000D02*
X151501140Y-100000000D01*
D28*
X151501140Y-100000000D02*
X151501140Y-102301240D01*
X150500380Y-100000000D02*
X150500380Y-102301240D01*
X149499620Y-100000000D02*
X149499620Y-102301240D01*
X144500900Y-100000000D02*
X144500900Y-86675900D01*
X141225000Y-82325000D02*
X137550000Y-82325000D01*
X141250000Y-82350000D02*
X141225000Y-82325000D01*
X141250000Y-84800000D02*
X141250000Y-84375000D01*
X142525002Y-86075002D02*
X141250000Y-84800000D01*
X143900002Y-86075002D02*
X142525002Y-86075002D01*
X144500900Y-86675900D02*
X143900002Y-86075002D01*
X144500900Y-100000000D02*
X144500900Y-102301240D01*
X143500140Y-100000000D02*
X143500140Y-86850140D01*
X140350000Y-81025000D02*
X137550000Y-81025000D01*
X140375000Y-84375000D02*
X140350000Y-84375000D01*
X142375004Y-86375004D02*
X140375000Y-84375000D01*
X143025004Y-86375004D02*
X142375004Y-86375004D01*
X143500140Y-86850140D02*
X143025004Y-86375004D01*
X143500140Y-102301240D02*
X143500140Y-100000000D01*
X137750000Y-90750000D02*
X139250000Y-90750000D01*
X142499380Y-89500620D02*
X142499380Y-90525114D01*
X142500000Y-89500000D02*
X142499380Y-89500620D01*
X142499380Y-100000000D02*
X142499380Y-90525114D01*
X130075000Y-86975000D02*
X130075000Y-85950000D01*
X130199998Y-87099998D02*
X130075000Y-86975000D01*
X139074264Y-87099998D02*
X130199998Y-87099998D01*
X142499380Y-90525114D02*
X139074264Y-87099998D01*
X142499380Y-102301240D02*
X142499380Y-100000000D01*
X137750000Y-92500000D02*
X139500000Y-92500000D01*
X140525000Y-91475000D02*
X141501160Y-91475000D01*
X139500000Y-92500000D02*
X140525000Y-91475000D01*
X141501160Y-100000000D02*
X141501160Y-91475000D01*
X141501160Y-91475000D02*
X141501160Y-89951160D01*
X129575000Y-87175000D02*
X129575000Y-85950000D01*
X129800000Y-87400000D02*
X129575000Y-87175000D01*
X138950000Y-87400000D02*
X129800000Y-87400000D01*
X141501160Y-89951160D02*
X138950000Y-87400000D01*
X141501160Y-102301240D02*
X141501160Y-100000000D01*
X140500400Y-100000000D02*
X140500400Y-92550400D01*
X140500400Y-89374666D02*
X138825736Y-87700002D01*
X138825736Y-87700002D02*
X137750000Y-87700002D01*
X140500400Y-90749600D02*
X140500400Y-89374666D01*
X140500000Y-90750000D02*
X140500400Y-90749600D01*
X140500400Y-92550400D02*
X140500000Y-92550000D01*
X137750000Y-89000000D02*
X137750000Y-87700002D01*
X137750000Y-87700002D02*
X137750000Y-87750000D01*
X137750000Y-87750000D02*
X137750000Y-87700002D01*
X128025000Y-85150000D02*
X128775000Y-85150000D01*
X137750000Y-87700002D02*
X128225002Y-87700002D01*
X128225002Y-87700002D02*
X127650000Y-87125000D01*
X127650000Y-87125000D02*
X127650000Y-85525000D01*
X127650000Y-85525000D02*
X128025000Y-85150000D01*
X140500400Y-100000000D02*
X140500400Y-102301240D01*
X146499880Y-100000000D02*
X146499880Y-86474880D01*
X145875000Y-84275000D02*
X143450000Y-84275000D01*
X146100000Y-84500000D02*
X145875000Y-84275000D01*
X146499880Y-86474880D02*
X146075000Y-86050000D01*
X146499880Y-100000000D02*
X146499880Y-102301240D01*
X145499120Y-100000000D02*
X145499120Y-86499120D01*
X141375000Y-83625000D02*
X137550000Y-83625000D01*
X141924998Y-84174998D02*
X141375000Y-83625000D01*
X141924998Y-85024998D02*
X141924998Y-84174998D01*
X142675000Y-85775000D02*
X141924998Y-85024998D01*
X144775000Y-85775000D02*
X142675000Y-85775000D01*
X145499120Y-86499120D02*
X144775000Y-85775000D01*
X145499120Y-100000000D02*
X145499120Y-102301240D01*
X150250000Y-93000000D02*
X150250000Y-89250000D01*
X151375000Y-94125000D02*
X150250000Y-93000000D01*
X131075000Y-86675000D02*
X131075000Y-85950000D01*
X131199996Y-86799996D02*
X131075000Y-86675000D01*
X140350004Y-86799996D02*
X131199996Y-86799996D01*
X141125000Y-86025000D02*
X140350004Y-86799996D01*
D32*
X150250000Y-89250000D02*
X152662000Y-89250000D01*
X152662000Y-89250000D02*
X152698000Y-89286000D01*
D28*
X143450000Y-83625000D02*
X151609000Y-83625000D01*
X151609000Y-83625000D02*
X152698000Y-84714000D01*
X131575000Y-83150000D02*
X131575000Y-80650000D01*
X149925000Y-82775000D02*
X149550000Y-82400000D01*
X149550000Y-82400000D02*
X149550000Y-78475000D01*
X149550000Y-77225000D02*
X149500000Y-77175000D01*
X149500000Y-77175000D02*
X146700000Y-77175000D01*
X146700000Y-77175000D02*
X145725000Y-76200000D01*
X145725000Y-74100000D02*
X145700000Y-74125000D01*
X145700000Y-74125000D02*
X135875000Y-74125000D01*
X135875000Y-74125000D02*
X134400000Y-75600000D01*
X134400000Y-75600000D02*
X134400000Y-77825000D01*
X134400000Y-77825000D02*
X131775000Y-80450000D01*
X131575000Y-80650000D02*
X131775000Y-80450000D01*
X137550000Y-82975000D02*
X141750000Y-82975000D01*
X150725000Y-86575000D02*
X150725000Y-87825000D01*
X149600000Y-85450000D02*
X150725000Y-86575000D01*
X142800000Y-85450000D02*
X149600000Y-85450000D01*
X142225000Y-84875000D02*
X142800000Y-85450000D01*
X142225000Y-83450000D02*
X142225000Y-84875000D01*
X141750000Y-82975000D02*
X142225000Y-83450000D01*
X130575000Y-82850000D02*
X130575000Y-80675000D01*
X135650000Y-71825000D02*
X152350000Y-71825000D01*
X133750000Y-73725000D02*
X135650000Y-71825000D01*
X133750000Y-77500000D02*
X133750000Y-73725000D01*
X130575000Y-80675000D02*
X133750000Y-77500000D01*
X137550000Y-81675000D02*
X141700000Y-81675000D01*
X143000000Y-77850000D02*
X150500000Y-77850000D01*
X142225000Y-78625000D02*
X143000000Y-77850000D01*
X142225000Y-81150000D02*
X142225000Y-78625000D01*
X141700000Y-81675000D02*
X142225000Y-81150000D01*
X131075000Y-82850000D02*
X131075000Y-80599266D01*
X151175000Y-77275000D02*
X151175000Y-79250000D01*
X150450000Y-76550000D02*
X151175000Y-77275000D01*
X148275000Y-76550000D02*
X150450000Y-76550000D01*
X147500000Y-75775000D02*
X148275000Y-76550000D01*
X135750000Y-73450000D02*
X147550000Y-73450000D01*
X134050002Y-75149998D02*
X135750000Y-73450000D01*
X134050002Y-77624264D02*
X134050002Y-75149998D01*
X131075000Y-80599266D02*
X134050002Y-77624264D01*
D32*
X150250000Y-79250000D02*
X151175000Y-79250000D01*
X151175000Y-79250000D02*
X152662000Y-79250000D01*
X152662000Y-79250000D02*
X152698000Y-79286000D01*
D28*
X137550000Y-80375000D02*
X139475000Y-80375000D01*
X141011000Y-74714000D02*
X152698000Y-74714000D01*
X139850000Y-75875000D02*
X141011000Y-74714000D01*
X139850000Y-80000000D02*
X139850000Y-75875000D01*
X139475000Y-80375000D02*
X139850000Y-80000000D01*
D30*
G36*
X163984494Y-82433068D02*
X163727922Y-82817056D01*
X163637826Y-83270000D01*
X163727922Y-83722944D01*
X163984494Y-84106932D01*
X164368482Y-84363504D01*
X164821426Y-84453600D01*
X165178574Y-84453600D01*
X165631518Y-84363504D01*
X166015506Y-84106932D01*
X166150000Y-83905647D01*
X166150000Y-90150000D01*
X151850000Y-90150000D01*
X151850000Y-90120269D01*
X153714000Y-90120269D01*
X153832585Y-90097956D01*
X153941498Y-90027872D01*
X154014564Y-89920937D01*
X154040269Y-89794000D01*
X154040269Y-88778000D01*
X154017956Y-88659415D01*
X153947872Y-88550502D01*
X153840937Y-88477436D01*
X153714000Y-88451731D01*
X151850000Y-88451731D01*
X151850000Y-85985382D01*
X163900094Y-85985382D01*
X163947783Y-86155656D01*
X164148554Y-86473690D01*
X164455749Y-86690683D01*
X164822600Y-86773600D01*
X164975000Y-86773600D01*
X164975000Y-85835000D01*
X165025000Y-85835000D01*
X165025000Y-86773600D01*
X165177400Y-86773600D01*
X165544251Y-86690683D01*
X165851446Y-86473690D01*
X166052217Y-86155656D01*
X166099906Y-85985382D01*
X166090667Y-85835000D01*
X165025000Y-85835000D01*
X164975000Y-85835000D01*
X163909333Y-85835000D01*
X163900094Y-85985382D01*
X151850000Y-85985382D01*
X151850000Y-85634618D01*
X163900094Y-85634618D01*
X163909333Y-85785000D01*
X164975000Y-85785000D01*
X164975000Y-84846400D01*
X165025000Y-84846400D01*
X165025000Y-85785000D01*
X166090667Y-85785000D01*
X166099906Y-85634618D01*
X166052217Y-85464344D01*
X165851446Y-85146310D01*
X165544251Y-84929317D01*
X165177400Y-84846400D01*
X165025000Y-84846400D01*
X164975000Y-84846400D01*
X164822600Y-84846400D01*
X164455749Y-84929317D01*
X164148554Y-85146310D01*
X163947783Y-85464344D01*
X163900094Y-85634618D01*
X151850000Y-85634618D01*
X151850000Y-85548269D01*
X153714000Y-85548269D01*
X153832585Y-85525956D01*
X153941498Y-85455872D01*
X154014564Y-85348937D01*
X154040269Y-85222000D01*
X154040269Y-84206000D01*
X154017956Y-84087415D01*
X153947872Y-83978502D01*
X153840937Y-83905436D01*
X153714000Y-83879731D01*
X152422345Y-83879731D01*
X151888307Y-83345693D01*
X151850000Y-83320097D01*
X151850000Y-82350000D01*
X164108814Y-82350000D01*
X163984494Y-82433068D01*
X163984494Y-82433068D01*
G37*
X163984494Y-82433068D02*
X163727922Y-82817056D01*
X163637826Y-83270000D01*
X163727922Y-83722944D01*
X163984494Y-84106932D01*
X164368482Y-84363504D01*
X164821426Y-84453600D01*
X165178574Y-84453600D01*
X165631518Y-84363504D01*
X166015506Y-84106932D01*
X166150000Y-83905647D01*
X166150000Y-90150000D01*
X151850000Y-90150000D01*
X151850000Y-90120269D01*
X153714000Y-90120269D01*
X153832585Y-90097956D01*
X153941498Y-90027872D01*
X154014564Y-89920937D01*
X154040269Y-89794000D01*
X154040269Y-88778000D01*
X154017956Y-88659415D01*
X153947872Y-88550502D01*
X153840937Y-88477436D01*
X153714000Y-88451731D01*
X151850000Y-88451731D01*
X151850000Y-85985382D01*
X163900094Y-85985382D01*
X163947783Y-86155656D01*
X164148554Y-86473690D01*
X164455749Y-86690683D01*
X164822600Y-86773600D01*
X164975000Y-86773600D01*
X164975000Y-85835000D01*
X165025000Y-85835000D01*
X165025000Y-86773600D01*
X165177400Y-86773600D01*
X165544251Y-86690683D01*
X165851446Y-86473690D01*
X166052217Y-86155656D01*
X166099906Y-85985382D01*
X166090667Y-85835000D01*
X165025000Y-85835000D01*
X164975000Y-85835000D01*
X163909333Y-85835000D01*
X163900094Y-85985382D01*
X151850000Y-85985382D01*
X151850000Y-85634618D01*
X163900094Y-85634618D01*
X163909333Y-85785000D01*
X164975000Y-85785000D01*
X164975000Y-84846400D01*
X165025000Y-84846400D01*
X165025000Y-85785000D01*
X166090667Y-85785000D01*
X166099906Y-85634618D01*
X166052217Y-85464344D01*
X165851446Y-85146310D01*
X165544251Y-84929317D01*
X165177400Y-84846400D01*
X165025000Y-84846400D01*
X164975000Y-84846400D01*
X164822600Y-84846400D01*
X164455749Y-84929317D01*
X164148554Y-85146310D01*
X163947783Y-85464344D01*
X163900094Y-85634618D01*
X151850000Y-85634618D01*
X151850000Y-85548269D01*
X153714000Y-85548269D01*
X153832585Y-85525956D01*
X153941498Y-85455872D01*
X154014564Y-85348937D01*
X154040269Y-85222000D01*
X154040269Y-84206000D01*
X154017956Y-84087415D01*
X153947872Y-83978502D01*
X153840937Y-83905436D01*
X153714000Y-83879731D01*
X152422345Y-83879731D01*
X151888307Y-83345693D01*
X151850000Y-83320097D01*
X151850000Y-82350000D01*
X164108814Y-82350000D01*
X163984494Y-82433068D01*
G36*
X166150000Y-80094353D02*
X166015506Y-79893068D01*
X165631518Y-79636496D01*
X165178574Y-79546400D01*
X164821426Y-79546400D01*
X164368482Y-79636496D01*
X163984494Y-79893068D01*
X163727922Y-80277056D01*
X163637826Y-80730000D01*
X163727922Y-81182944D01*
X163984494Y-81566932D01*
X164108814Y-81650000D01*
X151850000Y-81650000D01*
X151850000Y-80120269D01*
X153714000Y-80120269D01*
X153832585Y-80097956D01*
X153941498Y-80027872D01*
X154014564Y-79920937D01*
X154040269Y-79794000D01*
X154040269Y-78778000D01*
X154017956Y-78659415D01*
X153947872Y-78550502D01*
X153840937Y-78477436D01*
X153714000Y-78451731D01*
X151850000Y-78451731D01*
X151850000Y-78240000D01*
X163884000Y-78240000D01*
X163884000Y-79073491D01*
X163899224Y-79110245D01*
X163927354Y-79138376D01*
X163964109Y-79153600D01*
X164950000Y-79153600D01*
X164975000Y-79128600D01*
X164975000Y-78215000D01*
X165025000Y-78215000D01*
X165025000Y-79128600D01*
X165050000Y-79153600D01*
X166035891Y-79153600D01*
X166072646Y-79138376D01*
X166100776Y-79110245D01*
X166116000Y-79073491D01*
X166116000Y-78240000D01*
X166091000Y-78215000D01*
X165025000Y-78215000D01*
X164975000Y-78215000D01*
X163909000Y-78215000D01*
X163884000Y-78240000D01*
X151850000Y-78240000D01*
X151850000Y-77306509D01*
X163884000Y-77306509D01*
X163884000Y-78140000D01*
X163909000Y-78165000D01*
X164975000Y-78165000D01*
X164975000Y-77251400D01*
X165025000Y-77251400D01*
X165025000Y-78165000D01*
X166091000Y-78165000D01*
X166116000Y-78140000D01*
X166116000Y-77306509D01*
X166100776Y-77269755D01*
X166072646Y-77241624D01*
X166035891Y-77226400D01*
X165050000Y-77226400D01*
X165025000Y-77251400D01*
X164975000Y-77251400D01*
X164950000Y-77226400D01*
X163964109Y-77226400D01*
X163927354Y-77241624D01*
X163899224Y-77269755D01*
X163884000Y-77306509D01*
X151850000Y-77306509D01*
X151850000Y-75548269D01*
X153714000Y-75548269D01*
X153832585Y-75525956D01*
X153941498Y-75455872D01*
X154014564Y-75348937D01*
X154040269Y-75222000D01*
X154040269Y-74206000D01*
X154017956Y-74087415D01*
X153947872Y-73978502D01*
X153840937Y-73905436D01*
X153714000Y-73879731D01*
X151850000Y-73879731D01*
X151850000Y-73850000D01*
X166150000Y-73850000D01*
X166150000Y-80094353D01*
X166150000Y-80094353D01*
G37*
X166150000Y-80094353D02*
X166015506Y-79893068D01*
X165631518Y-79636496D01*
X165178574Y-79546400D01*
X164821426Y-79546400D01*
X164368482Y-79636496D01*
X163984494Y-79893068D01*
X163727922Y-80277056D01*
X163637826Y-80730000D01*
X163727922Y-81182944D01*
X163984494Y-81566932D01*
X164108814Y-81650000D01*
X151850000Y-81650000D01*
X151850000Y-80120269D01*
X153714000Y-80120269D01*
X153832585Y-80097956D01*
X153941498Y-80027872D01*
X154014564Y-79920937D01*
X154040269Y-79794000D01*
X154040269Y-78778000D01*
X154017956Y-78659415D01*
X153947872Y-78550502D01*
X153840937Y-78477436D01*
X153714000Y-78451731D01*
X151850000Y-78451731D01*
X151850000Y-78240000D01*
X163884000Y-78240000D01*
X163884000Y-79073491D01*
X163899224Y-79110245D01*
X163927354Y-79138376D01*
X163964109Y-79153600D01*
X164950000Y-79153600D01*
X164975000Y-79128600D01*
X164975000Y-78215000D01*
X165025000Y-78215000D01*
X165025000Y-79128600D01*
X165050000Y-79153600D01*
X166035891Y-79153600D01*
X166072646Y-79138376D01*
X166100776Y-79110245D01*
X166116000Y-79073491D01*
X166116000Y-78240000D01*
X166091000Y-78215000D01*
X165025000Y-78215000D01*
X164975000Y-78215000D01*
X163909000Y-78215000D01*
X163884000Y-78240000D01*
X151850000Y-78240000D01*
X151850000Y-77306509D01*
X163884000Y-77306509D01*
X163884000Y-78140000D01*
X163909000Y-78165000D01*
X164975000Y-78165000D01*
X164975000Y-77251400D01*
X165025000Y-77251400D01*
X165025000Y-78165000D01*
X166091000Y-78165000D01*
X166116000Y-78140000D01*
X166116000Y-77306509D01*
X166100776Y-77269755D01*
X166072646Y-77241624D01*
X166035891Y-77226400D01*
X165050000Y-77226400D01*
X165025000Y-77251400D01*
X164975000Y-77251400D01*
X164950000Y-77226400D01*
X163964109Y-77226400D01*
X163927354Y-77241624D01*
X163899224Y-77269755D01*
X163884000Y-77306509D01*
X151850000Y-77306509D01*
X151850000Y-75548269D01*
X153714000Y-75548269D01*
X153832585Y-75525956D01*
X153941498Y-75455872D01*
X154014564Y-75348937D01*
X154040269Y-75222000D01*
X154040269Y-74206000D01*
X154017956Y-74087415D01*
X153947872Y-73978502D01*
X153840937Y-73905436D01*
X153714000Y-73879731D01*
X151850000Y-73879731D01*
X151850000Y-73850000D01*
X166150000Y-73850000D01*
X166150000Y-80094353D01*
G36*
X169575000Y-93025000D02*
X159800000Y-93025000D01*
X159761094Y-93032879D01*
X159728319Y-93055273D01*
X159706839Y-93088654D01*
X159700000Y-93125000D01*
X159700000Y-97600030D01*
X159549600Y-97600030D01*
X159524600Y-97625030D01*
X159524600Y-99474620D01*
X159544600Y-99474620D01*
X159544600Y-99524620D01*
X159524600Y-99524620D01*
X159524600Y-99544620D01*
X159474600Y-99544620D01*
X159474600Y-99524620D01*
X159099480Y-99524620D01*
X159074480Y-99549620D01*
X159074480Y-100350000D01*
X158923960Y-100350000D01*
X158923960Y-100050000D01*
X158898960Y-100025000D01*
X158523840Y-100025000D01*
X158523840Y-100045000D01*
X158473840Y-100045000D01*
X158473840Y-100025000D01*
X158098720Y-100025000D01*
X158073720Y-100050000D01*
X158073720Y-100350000D01*
X157925740Y-100350000D01*
X157925740Y-100050000D01*
X157900740Y-100025000D01*
X157525620Y-100025000D01*
X157525620Y-100045000D01*
X157475620Y-100045000D01*
X157475620Y-100025000D01*
X157100500Y-100025000D01*
X157075500Y-100050000D01*
X157075500Y-100350000D01*
X156924980Y-100350000D01*
X156924980Y-100050000D01*
X156899980Y-100025000D01*
X156524860Y-100025000D01*
X156524860Y-100045000D01*
X156474860Y-100045000D01*
X156474860Y-100025000D01*
X156099740Y-100025000D01*
X156074740Y-100050000D01*
X156074740Y-100350000D01*
X155924220Y-100350000D01*
X155924220Y-100050000D01*
X155899220Y-100025000D01*
X155524100Y-100025000D01*
X155524100Y-100045000D01*
X155474100Y-100045000D01*
X155474100Y-100025000D01*
X155098980Y-100025000D01*
X155073980Y-100050000D01*
X155073980Y-100350000D01*
X154926000Y-100350000D01*
X154926000Y-100050000D01*
X154901000Y-100025000D01*
X154525880Y-100025000D01*
X154525880Y-100045000D01*
X154475880Y-100045000D01*
X154475880Y-100025000D01*
X154100760Y-100025000D01*
X154075760Y-100050000D01*
X154075760Y-100350000D01*
X153925240Y-100350000D01*
X153925240Y-100050000D01*
X153900240Y-100025000D01*
X153525120Y-100025000D01*
X153525120Y-100045000D01*
X153475120Y-100045000D01*
X153475120Y-100025000D01*
X153100000Y-100025000D01*
X153075000Y-100050000D01*
X153075000Y-100350000D01*
X152924480Y-100350000D01*
X152924480Y-100050000D01*
X152899480Y-100025000D01*
X152524360Y-100025000D01*
X152524360Y-100045000D01*
X152474360Y-100045000D01*
X152474360Y-100025000D01*
X152454360Y-100025000D01*
X152454360Y-99975000D01*
X152474360Y-99975000D01*
X152474360Y-97625030D01*
X152524360Y-97625030D01*
X152524360Y-99975000D01*
X152899480Y-99975000D01*
X152924480Y-99950000D01*
X152924480Y-97680139D01*
X153075000Y-97680139D01*
X153075000Y-99950000D01*
X153100000Y-99975000D01*
X153475120Y-99975000D01*
X153475120Y-97625030D01*
X153525120Y-97625030D01*
X153525120Y-99975000D01*
X153900240Y-99975000D01*
X153925240Y-99950000D01*
X153925240Y-97680139D01*
X154075760Y-97680139D01*
X154075760Y-99950000D01*
X154100760Y-99975000D01*
X154475880Y-99975000D01*
X154475880Y-97625030D01*
X154525880Y-97625030D01*
X154525880Y-99975000D01*
X154901000Y-99975000D01*
X154926000Y-99950000D01*
X154926000Y-97680139D01*
X155073980Y-97680139D01*
X155073980Y-99950000D01*
X155098980Y-99975000D01*
X155474100Y-99975000D01*
X155474100Y-97625030D01*
X155524100Y-97625030D01*
X155524100Y-99975000D01*
X155899220Y-99975000D01*
X155924220Y-99950000D01*
X155924220Y-97680139D01*
X156074740Y-97680139D01*
X156074740Y-99950000D01*
X156099740Y-99975000D01*
X156474860Y-99975000D01*
X156474860Y-97625030D01*
X156524860Y-97625030D01*
X156524860Y-99975000D01*
X156899980Y-99975000D01*
X156924980Y-99950000D01*
X156924980Y-97680139D01*
X157075500Y-97680139D01*
X157075500Y-99950000D01*
X157100500Y-99975000D01*
X157475620Y-99975000D01*
X157475620Y-97625030D01*
X157525620Y-97625030D01*
X157525620Y-99975000D01*
X157900740Y-99975000D01*
X157925740Y-99950000D01*
X157925740Y-97680139D01*
X158073720Y-97680139D01*
X158073720Y-99950000D01*
X158098720Y-99975000D01*
X158473840Y-99975000D01*
X158473840Y-97625030D01*
X158523840Y-97625030D01*
X158523840Y-99975000D01*
X158898960Y-99975000D01*
X158923960Y-99950000D01*
X158923960Y-97680139D01*
X159074480Y-97680139D01*
X159074480Y-99449620D01*
X159099480Y-99474620D01*
X159474600Y-99474620D01*
X159474600Y-97625030D01*
X159449600Y-97600030D01*
X159154589Y-97600030D01*
X159117835Y-97615254D01*
X159089704Y-97643384D01*
X159074480Y-97680139D01*
X158923960Y-97680139D01*
X158908736Y-97643384D01*
X158880605Y-97615254D01*
X158843851Y-97600030D01*
X158548840Y-97600030D01*
X158523840Y-97625030D01*
X158473840Y-97625030D01*
X158448840Y-97600030D01*
X158153829Y-97600030D01*
X158117075Y-97615254D01*
X158088944Y-97643384D01*
X158073720Y-97680139D01*
X157925740Y-97680139D01*
X157910516Y-97643384D01*
X157882385Y-97615254D01*
X157845631Y-97600030D01*
X157550620Y-97600030D01*
X157525620Y-97625030D01*
X157475620Y-97625030D01*
X157450620Y-97600030D01*
X157155609Y-97600030D01*
X157118855Y-97615254D01*
X157090724Y-97643384D01*
X157075500Y-97680139D01*
X156924980Y-97680139D01*
X156909756Y-97643384D01*
X156881625Y-97615254D01*
X156844871Y-97600030D01*
X156549860Y-97600030D01*
X156524860Y-97625030D01*
X156474860Y-97625030D01*
X156449860Y-97600030D01*
X156154849Y-97600030D01*
X156118095Y-97615254D01*
X156089964Y-97643384D01*
X156074740Y-97680139D01*
X155924220Y-97680139D01*
X155908996Y-97643384D01*
X155880865Y-97615254D01*
X155844111Y-97600030D01*
X155549100Y-97600030D01*
X155524100Y-97625030D01*
X155474100Y-97625030D01*
X155449100Y-97600030D01*
X155154089Y-97600030D01*
X155117335Y-97615254D01*
X155089204Y-97643384D01*
X155073980Y-97680139D01*
X154926000Y-97680139D01*
X154910776Y-97643384D01*
X154882645Y-97615254D01*
X154845891Y-97600030D01*
X154550880Y-97600030D01*
X154525880Y-97625030D01*
X154475880Y-97625030D01*
X154450880Y-97600030D01*
X154155869Y-97600030D01*
X154119115Y-97615254D01*
X154090984Y-97643384D01*
X154075760Y-97680139D01*
X153925240Y-97680139D01*
X153910016Y-97643384D01*
X153881885Y-97615254D01*
X153845131Y-97600030D01*
X153550120Y-97600030D01*
X153525120Y-97625030D01*
X153475120Y-97625030D01*
X153450120Y-97600030D01*
X153155109Y-97600030D01*
X153118355Y-97615254D01*
X153090224Y-97643384D01*
X153075000Y-97680139D01*
X152924480Y-97680139D01*
X152909256Y-97643384D01*
X152881125Y-97615254D01*
X152844371Y-97600030D01*
X152549360Y-97600030D01*
X152524360Y-97625030D01*
X152474360Y-97625030D01*
X152449360Y-97600030D01*
X152275000Y-97600030D01*
X152275000Y-90600000D01*
X166450000Y-90600000D01*
X166488906Y-90592121D01*
X166520711Y-90570711D01*
X166645711Y-90445711D01*
X166667650Y-90412629D01*
X166675000Y-90375000D01*
X166675000Y-86452220D01*
X166688554Y-86473690D01*
X166995749Y-86690683D01*
X167362600Y-86773600D01*
X167515000Y-86773600D01*
X167515000Y-85835000D01*
X167565000Y-85835000D01*
X167565000Y-86773600D01*
X167717400Y-86773600D01*
X168084251Y-86690683D01*
X168391446Y-86473690D01*
X168592217Y-86155656D01*
X168639906Y-85985382D01*
X168630667Y-85835000D01*
X167565000Y-85835000D01*
X167515000Y-85835000D01*
X167495000Y-85835000D01*
X167495000Y-85785000D01*
X167515000Y-85785000D01*
X167515000Y-84846400D01*
X167565000Y-84846400D01*
X167565000Y-85785000D01*
X168630667Y-85785000D01*
X168639906Y-85634618D01*
X168592217Y-85464344D01*
X168391446Y-85146310D01*
X168084251Y-84929317D01*
X167717400Y-84846400D01*
X167565000Y-84846400D01*
X167515000Y-84846400D01*
X167362600Y-84846400D01*
X166995749Y-84929317D01*
X166688554Y-85146310D01*
X166675000Y-85167780D01*
X166675000Y-83912220D01*
X166688554Y-83933690D01*
X166995749Y-84150683D01*
X167362600Y-84233600D01*
X167515000Y-84233600D01*
X167515000Y-83295000D01*
X167565000Y-83295000D01*
X167565000Y-84233600D01*
X167717400Y-84233600D01*
X168084251Y-84150683D01*
X168391446Y-83933690D01*
X168592217Y-83615656D01*
X168639906Y-83445382D01*
X168630667Y-83295000D01*
X167565000Y-83295000D01*
X167515000Y-83295000D01*
X167495000Y-83295000D01*
X167495000Y-83245000D01*
X167515000Y-83245000D01*
X167515000Y-82306400D01*
X167565000Y-82306400D01*
X167565000Y-83245000D01*
X168630667Y-83245000D01*
X168639906Y-83094618D01*
X168592217Y-82924344D01*
X168391446Y-82606310D01*
X168084251Y-82389317D01*
X167717400Y-82306400D01*
X167565000Y-82306400D01*
X167515000Y-82306400D01*
X167362600Y-82306400D01*
X166995749Y-82389317D01*
X166688554Y-82606310D01*
X166675000Y-82627780D01*
X166675000Y-81372220D01*
X166688554Y-81393690D01*
X166995749Y-81610683D01*
X167362600Y-81693600D01*
X167515000Y-81693600D01*
X167515000Y-80755000D01*
X167565000Y-80755000D01*
X167565000Y-81693600D01*
X167717400Y-81693600D01*
X168084251Y-81610683D01*
X168391446Y-81393690D01*
X168592217Y-81075656D01*
X168639906Y-80905382D01*
X168630667Y-80755000D01*
X167565000Y-80755000D01*
X167515000Y-80755000D01*
X167495000Y-80755000D01*
X167495000Y-80705000D01*
X167515000Y-80705000D01*
X167515000Y-79766400D01*
X167565000Y-79766400D01*
X167565000Y-80705000D01*
X168630667Y-80705000D01*
X168639906Y-80554618D01*
X168592217Y-80384344D01*
X168391446Y-80066310D01*
X168084251Y-79849317D01*
X167717400Y-79766400D01*
X167565000Y-79766400D01*
X167515000Y-79766400D01*
X167362600Y-79766400D01*
X166995749Y-79849317D01*
X166688554Y-80066310D01*
X166675000Y-80087780D01*
X166675000Y-79153600D01*
X167490000Y-79153600D01*
X167515000Y-79128600D01*
X167515000Y-78215000D01*
X167565000Y-78215000D01*
X167565000Y-79128600D01*
X167590000Y-79153600D01*
X168575891Y-79153600D01*
X168612646Y-79138376D01*
X168640776Y-79110245D01*
X168656000Y-79073491D01*
X168656000Y-78240000D01*
X168631000Y-78215000D01*
X167565000Y-78215000D01*
X167515000Y-78215000D01*
X167495000Y-78215000D01*
X167495000Y-78165000D01*
X167515000Y-78165000D01*
X167515000Y-77251400D01*
X167565000Y-77251400D01*
X167565000Y-78165000D01*
X168631000Y-78165000D01*
X168656000Y-78140000D01*
X168656000Y-77306509D01*
X168640776Y-77269755D01*
X168612646Y-77241624D01*
X168575891Y-77226400D01*
X167590000Y-77226400D01*
X167565000Y-77251400D01*
X167515000Y-77251400D01*
X167490000Y-77226400D01*
X166675000Y-77226400D01*
X166675000Y-73849197D01*
X169575000Y-73825810D01*
X169575000Y-93025000D01*
X169575000Y-93025000D01*
G37*
X169575000Y-93025000D02*
X159800000Y-93025000D01*
X159761094Y-93032879D01*
X159728319Y-93055273D01*
X159706839Y-93088654D01*
X159700000Y-93125000D01*
X159700000Y-97600030D01*
X159549600Y-97600030D01*
X159524600Y-97625030D01*
X159524600Y-99474620D01*
X159544600Y-99474620D01*
X159544600Y-99524620D01*
X159524600Y-99524620D01*
X159524600Y-99544620D01*
X159474600Y-99544620D01*
X159474600Y-99524620D01*
X159099480Y-99524620D01*
X159074480Y-99549620D01*
X159074480Y-100350000D01*
X158923960Y-100350000D01*
X158923960Y-100050000D01*
X158898960Y-100025000D01*
X158523840Y-100025000D01*
X158523840Y-100045000D01*
X158473840Y-100045000D01*
X158473840Y-100025000D01*
X158098720Y-100025000D01*
X158073720Y-100050000D01*
X158073720Y-100350000D01*
X157925740Y-100350000D01*
X157925740Y-100050000D01*
X157900740Y-100025000D01*
X157525620Y-100025000D01*
X157525620Y-100045000D01*
X157475620Y-100045000D01*
X157475620Y-100025000D01*
X157100500Y-100025000D01*
X157075500Y-100050000D01*
X157075500Y-100350000D01*
X156924980Y-100350000D01*
X156924980Y-100050000D01*
X156899980Y-100025000D01*
X156524860Y-100025000D01*
X156524860Y-100045000D01*
X156474860Y-100045000D01*
X156474860Y-100025000D01*
X156099740Y-100025000D01*
X156074740Y-100050000D01*
X156074740Y-100350000D01*
X155924220Y-100350000D01*
X155924220Y-100050000D01*
X155899220Y-100025000D01*
X155524100Y-100025000D01*
X155524100Y-100045000D01*
X155474100Y-100045000D01*
X155474100Y-100025000D01*
X155098980Y-100025000D01*
X155073980Y-100050000D01*
X155073980Y-100350000D01*
X154926000Y-100350000D01*
X154926000Y-100050000D01*
X154901000Y-100025000D01*
X154525880Y-100025000D01*
X154525880Y-100045000D01*
X154475880Y-100045000D01*
X154475880Y-100025000D01*
X154100760Y-100025000D01*
X154075760Y-100050000D01*
X154075760Y-100350000D01*
X153925240Y-100350000D01*
X153925240Y-100050000D01*
X153900240Y-100025000D01*
X153525120Y-100025000D01*
X153525120Y-100045000D01*
X153475120Y-100045000D01*
X153475120Y-100025000D01*
X153100000Y-100025000D01*
X153075000Y-100050000D01*
X153075000Y-100350000D01*
X152924480Y-100350000D01*
X152924480Y-100050000D01*
X152899480Y-100025000D01*
X152524360Y-100025000D01*
X152524360Y-100045000D01*
X152474360Y-100045000D01*
X152474360Y-100025000D01*
X152454360Y-100025000D01*
X152454360Y-99975000D01*
X152474360Y-99975000D01*
X152474360Y-97625030D01*
X152524360Y-97625030D01*
X152524360Y-99975000D01*
X152899480Y-99975000D01*
X152924480Y-99950000D01*
X152924480Y-97680139D01*
X153075000Y-97680139D01*
X153075000Y-99950000D01*
X153100000Y-99975000D01*
X153475120Y-99975000D01*
X153475120Y-97625030D01*
X153525120Y-97625030D01*
X153525120Y-99975000D01*
X153900240Y-99975000D01*
X153925240Y-99950000D01*
X153925240Y-97680139D01*
X154075760Y-97680139D01*
X154075760Y-99950000D01*
X154100760Y-99975000D01*
X154475880Y-99975000D01*
X154475880Y-97625030D01*
X154525880Y-97625030D01*
X154525880Y-99975000D01*
X154901000Y-99975000D01*
X154926000Y-99950000D01*
X154926000Y-97680139D01*
X155073980Y-97680139D01*
X155073980Y-99950000D01*
X155098980Y-99975000D01*
X155474100Y-99975000D01*
X155474100Y-97625030D01*
X155524100Y-97625030D01*
X155524100Y-99975000D01*
X155899220Y-99975000D01*
X155924220Y-99950000D01*
X155924220Y-97680139D01*
X156074740Y-97680139D01*
X156074740Y-99950000D01*
X156099740Y-99975000D01*
X156474860Y-99975000D01*
X156474860Y-97625030D01*
X156524860Y-97625030D01*
X156524860Y-99975000D01*
X156899980Y-99975000D01*
X156924980Y-99950000D01*
X156924980Y-97680139D01*
X157075500Y-97680139D01*
X157075500Y-99950000D01*
X157100500Y-99975000D01*
X157475620Y-99975000D01*
X157475620Y-97625030D01*
X157525620Y-97625030D01*
X157525620Y-99975000D01*
X157900740Y-99975000D01*
X157925740Y-99950000D01*
X157925740Y-97680139D01*
X158073720Y-97680139D01*
X158073720Y-99950000D01*
X158098720Y-99975000D01*
X158473840Y-99975000D01*
X158473840Y-97625030D01*
X158523840Y-97625030D01*
X158523840Y-99975000D01*
X158898960Y-99975000D01*
X158923960Y-99950000D01*
X158923960Y-97680139D01*
X159074480Y-97680139D01*
X159074480Y-99449620D01*
X159099480Y-99474620D01*
X159474600Y-99474620D01*
X159474600Y-97625030D01*
X159449600Y-97600030D01*
X159154589Y-97600030D01*
X159117835Y-97615254D01*
X159089704Y-97643384D01*
X159074480Y-97680139D01*
X158923960Y-97680139D01*
X158908736Y-97643384D01*
X158880605Y-97615254D01*
X158843851Y-97600030D01*
X158548840Y-97600030D01*
X158523840Y-97625030D01*
X158473840Y-97625030D01*
X158448840Y-97600030D01*
X158153829Y-97600030D01*
X158117075Y-97615254D01*
X158088944Y-97643384D01*
X158073720Y-97680139D01*
X157925740Y-97680139D01*
X157910516Y-97643384D01*
X157882385Y-97615254D01*
X157845631Y-97600030D01*
X157550620Y-97600030D01*
X157525620Y-97625030D01*
X157475620Y-97625030D01*
X157450620Y-97600030D01*
X157155609Y-97600030D01*
X157118855Y-97615254D01*
X157090724Y-97643384D01*
X157075500Y-97680139D01*
X156924980Y-97680139D01*
X156909756Y-97643384D01*
X156881625Y-97615254D01*
X156844871Y-97600030D01*
X156549860Y-97600030D01*
X156524860Y-97625030D01*
X156474860Y-97625030D01*
X156449860Y-97600030D01*
X156154849Y-97600030D01*
X156118095Y-97615254D01*
X156089964Y-97643384D01*
X156074740Y-97680139D01*
X155924220Y-97680139D01*
X155908996Y-97643384D01*
X155880865Y-97615254D01*
X155844111Y-97600030D01*
X155549100Y-97600030D01*
X155524100Y-97625030D01*
X155474100Y-97625030D01*
X155449100Y-97600030D01*
X155154089Y-97600030D01*
X155117335Y-97615254D01*
X155089204Y-97643384D01*
X155073980Y-97680139D01*
X154926000Y-97680139D01*
X154910776Y-97643384D01*
X154882645Y-97615254D01*
X154845891Y-97600030D01*
X154550880Y-97600030D01*
X154525880Y-97625030D01*
X154475880Y-97625030D01*
X154450880Y-97600030D01*
X154155869Y-97600030D01*
X154119115Y-97615254D01*
X154090984Y-97643384D01*
X154075760Y-97680139D01*
X153925240Y-97680139D01*
X153910016Y-97643384D01*
X153881885Y-97615254D01*
X153845131Y-97600030D01*
X153550120Y-97600030D01*
X153525120Y-97625030D01*
X153475120Y-97625030D01*
X153450120Y-97600030D01*
X153155109Y-97600030D01*
X153118355Y-97615254D01*
X153090224Y-97643384D01*
X153075000Y-97680139D01*
X152924480Y-97680139D01*
X152909256Y-97643384D01*
X152881125Y-97615254D01*
X152844371Y-97600030D01*
X152549360Y-97600030D01*
X152524360Y-97625030D01*
X152474360Y-97625030D01*
X152449360Y-97600030D01*
X152275000Y-97600030D01*
X152275000Y-90600000D01*
X166450000Y-90600000D01*
X166488906Y-90592121D01*
X166520711Y-90570711D01*
X166645711Y-90445711D01*
X166667650Y-90412629D01*
X166675000Y-90375000D01*
X166675000Y-86452220D01*
X166688554Y-86473690D01*
X166995749Y-86690683D01*
X167362600Y-86773600D01*
X167515000Y-86773600D01*
X167515000Y-85835000D01*
X167565000Y-85835000D01*
X167565000Y-86773600D01*
X167717400Y-86773600D01*
X168084251Y-86690683D01*
X168391446Y-86473690D01*
X168592217Y-86155656D01*
X168639906Y-85985382D01*
X168630667Y-85835000D01*
X167565000Y-85835000D01*
X167515000Y-85835000D01*
X167495000Y-85835000D01*
X167495000Y-85785000D01*
X167515000Y-85785000D01*
X167515000Y-84846400D01*
X167565000Y-84846400D01*
X167565000Y-85785000D01*
X168630667Y-85785000D01*
X168639906Y-85634618D01*
X168592217Y-85464344D01*
X168391446Y-85146310D01*
X168084251Y-84929317D01*
X167717400Y-84846400D01*
X167565000Y-84846400D01*
X167515000Y-84846400D01*
X167362600Y-84846400D01*
X166995749Y-84929317D01*
X166688554Y-85146310D01*
X166675000Y-85167780D01*
X166675000Y-83912220D01*
X166688554Y-83933690D01*
X166995749Y-84150683D01*
X167362600Y-84233600D01*
X167515000Y-84233600D01*
X167515000Y-83295000D01*
X167565000Y-83295000D01*
X167565000Y-84233600D01*
X167717400Y-84233600D01*
X168084251Y-84150683D01*
X168391446Y-83933690D01*
X168592217Y-83615656D01*
X168639906Y-83445382D01*
X168630667Y-83295000D01*
X167565000Y-83295000D01*
X167515000Y-83295000D01*
X167495000Y-83295000D01*
X167495000Y-83245000D01*
X167515000Y-83245000D01*
X167515000Y-82306400D01*
X167565000Y-82306400D01*
X167565000Y-83245000D01*
X168630667Y-83245000D01*
X168639906Y-83094618D01*
X168592217Y-82924344D01*
X168391446Y-82606310D01*
X168084251Y-82389317D01*
X167717400Y-82306400D01*
X167565000Y-82306400D01*
X167515000Y-82306400D01*
X167362600Y-82306400D01*
X166995749Y-82389317D01*
X166688554Y-82606310D01*
X166675000Y-82627780D01*
X166675000Y-81372220D01*
X166688554Y-81393690D01*
X166995749Y-81610683D01*
X167362600Y-81693600D01*
X167515000Y-81693600D01*
X167515000Y-80755000D01*
X167565000Y-80755000D01*
X167565000Y-81693600D01*
X167717400Y-81693600D01*
X168084251Y-81610683D01*
X168391446Y-81393690D01*
X168592217Y-81075656D01*
X168639906Y-80905382D01*
X168630667Y-80755000D01*
X167565000Y-80755000D01*
X167515000Y-80755000D01*
X167495000Y-80755000D01*
X167495000Y-80705000D01*
X167515000Y-80705000D01*
X167515000Y-79766400D01*
X167565000Y-79766400D01*
X167565000Y-80705000D01*
X168630667Y-80705000D01*
X168639906Y-80554618D01*
X168592217Y-80384344D01*
X168391446Y-80066310D01*
X168084251Y-79849317D01*
X167717400Y-79766400D01*
X167565000Y-79766400D01*
X167515000Y-79766400D01*
X167362600Y-79766400D01*
X166995749Y-79849317D01*
X166688554Y-80066310D01*
X166675000Y-80087780D01*
X166675000Y-79153600D01*
X167490000Y-79153600D01*
X167515000Y-79128600D01*
X167515000Y-78215000D01*
X167565000Y-78215000D01*
X167565000Y-79128600D01*
X167590000Y-79153600D01*
X168575891Y-79153600D01*
X168612646Y-79138376D01*
X168640776Y-79110245D01*
X168656000Y-79073491D01*
X168656000Y-78240000D01*
X168631000Y-78215000D01*
X167565000Y-78215000D01*
X167515000Y-78215000D01*
X167495000Y-78215000D01*
X167495000Y-78165000D01*
X167515000Y-78165000D01*
X167515000Y-77251400D01*
X167565000Y-77251400D01*
X167565000Y-78165000D01*
X168631000Y-78165000D01*
X168656000Y-78140000D01*
X168656000Y-77306509D01*
X168640776Y-77269755D01*
X168612646Y-77241624D01*
X168575891Y-77226400D01*
X167590000Y-77226400D01*
X167565000Y-77251400D01*
X167515000Y-77251400D01*
X167490000Y-77226400D01*
X166675000Y-77226400D01*
X166675000Y-73849197D01*
X169575000Y-73825810D01*
X169575000Y-93025000D01*
M02*
