M48
;DRILL file {KiCad 4.0.2+e4-6225~38~ubuntu14.04.1-stable} date Sat 23 Jul 2016 00:45:28 PDT
;FORMAT={-:-/ absolute / inch / decimal}
FMAT,2
INCH,TZ
T1C0.012
T2C0.040
%
G90
G05
M72
T1
X5.0453Y-3.2234
X5.0709Y-3.4232
X5.0748Y-3.4803
X5.0787Y-3.1959
X5.0915Y-3.1673
X5.1112Y-3.3031
X5.1211Y-3.1457
X5.1506Y-3.3425
X5.2421Y-2.9941
X5.3504Y-3.1358
X5.4823Y-3.5728
X5.5256Y-3.19
X5.5256Y-3.3219
X5.5256Y-3.3661
X5.5315Y-3.5728
X5.5315Y-3.6437
X5.5561Y-3.3868
X5.561Y-3.2421
X5.561Y-3.3219
X5.6102Y-3.5236
X5.6555Y-3.0945
X5.6644Y-2.7904
X5.7372Y-2.9173
X5.7372Y-3.
X5.751Y-3.3878
X5.752Y-3.3268
X5.7707Y-3.2303
X5.8071Y-2.9833
X5.8091Y-2.8917
X5.8514Y-3.4685
X5.8563Y-3.1683
X5.8878Y-3.0404
X5.8878Y-3.0896
X5.9026Y-3.2589
X5.9252Y-3.065
X5.9341Y-3.4577
X5.9596Y-3.7057
X5.998Y-2.8278
T2
X6.4961Y-3.0783
X6.4961Y-3.1783
X6.4961Y-3.2783
X6.4961Y-3.3783
X6.5961Y-3.0783
X6.5961Y-3.1783
X6.5961Y-3.2783
X6.5961Y-3.3783
T0
M30
