G04 #@! TF.FileFunction,Legend,Bot*
%FSLAX46Y46*%
G04 Gerber Fmt 4.6, Leading zero omitted, Abs format (unit mm)*
G04 Created by KiCad (PCBNEW 4.0.2+e4-6225~38~ubuntu14.04.1-stable) date Sat 23 Jul 2016 00:45:22 PDT*
%MOMM*%
G01*
G04 APERTURE LIST*
%ADD10C,0.100000*%
%ADD11C,0.200000*%
%ADD12C,0.150000*%
%ADD13C,0.010000*%
G04 APERTURE END LIST*
D10*
D11*
X161671429Y-86180952D02*
X163004762Y-86180952D01*
X160909524Y-85704762D02*
X162338095Y-85228571D01*
X162338095Y-86466667D01*
X161004762Y-82733333D02*
X161004762Y-83971429D01*
X161766667Y-83304762D01*
X161766667Y-83590476D01*
X161861905Y-83780952D01*
X161957143Y-83876190D01*
X162147619Y-83971429D01*
X162623810Y-83971429D01*
X162814286Y-83876190D01*
X162909524Y-83780952D01*
X163004762Y-83590476D01*
X163004762Y-83019048D01*
X162909524Y-82828571D01*
X162814286Y-82733333D01*
X161195238Y-80128571D02*
X161100000Y-80223809D01*
X161004762Y-80414286D01*
X161004762Y-80890476D01*
X161100000Y-81080952D01*
X161195238Y-81176190D01*
X161385714Y-81271429D01*
X161576190Y-81271429D01*
X161861905Y-81176190D01*
X163004762Y-80033333D01*
X163004762Y-81271429D01*
X163004762Y-78771429D02*
X163004762Y-77628571D01*
X163004762Y-78200000D02*
X161004762Y-78200000D01*
X161290476Y-78009524D01*
X161480952Y-77819048D01*
X161576190Y-77628571D01*
X165761905Y-75242857D02*
X164238095Y-75242857D01*
X165761905Y-88542857D02*
X164238095Y-88542857D01*
X168361905Y-75242857D02*
X166838095Y-75242857D01*
X167600000Y-76004762D02*
X167600000Y-74480952D01*
X168361905Y-88542857D02*
X166838095Y-88542857D01*
X167600000Y-89304762D02*
X167600000Y-87780952D01*
X141861905Y-85685714D02*
X141861905Y-86685714D01*
X141861905Y-85733333D02*
X141766667Y-85685714D01*
X141576190Y-85685714D01*
X141480952Y-85733333D01*
X141433333Y-85780952D01*
X141385714Y-85876190D01*
X141385714Y-86161905D01*
X141433333Y-86257143D01*
X141480952Y-86304762D01*
X141576190Y-86352381D01*
X141766667Y-86352381D01*
X141861905Y-86304762D01*
X140814286Y-86352381D02*
X140909524Y-86304762D01*
X140957143Y-86209524D01*
X140957143Y-85352381D01*
X140004761Y-85685714D02*
X140004761Y-86352381D01*
X140433333Y-85685714D02*
X140433333Y-86209524D01*
X140385714Y-86304762D01*
X140290476Y-86352381D01*
X140147618Y-86352381D01*
X140052380Y-86304762D01*
X140004761Y-86257143D01*
X139099999Y-85685714D02*
X139099999Y-86495238D01*
X139147618Y-86590476D01*
X139195237Y-86638095D01*
X139290476Y-86685714D01*
X139433333Y-86685714D01*
X139528571Y-86638095D01*
X139099999Y-86304762D02*
X139195237Y-86352381D01*
X139385714Y-86352381D01*
X139480952Y-86304762D01*
X139528571Y-86257143D01*
X139576190Y-86161905D01*
X139576190Y-85876190D01*
X139528571Y-85780952D01*
X139480952Y-85733333D01*
X139385714Y-85685714D01*
X139195237Y-85685714D01*
X139099999Y-85733333D01*
X138195237Y-85685714D02*
X138195237Y-86495238D01*
X138242856Y-86590476D01*
X138290475Y-86638095D01*
X138385714Y-86685714D01*
X138528571Y-86685714D01*
X138623809Y-86638095D01*
X138195237Y-86304762D02*
X138290475Y-86352381D01*
X138480952Y-86352381D01*
X138576190Y-86304762D01*
X138623809Y-86257143D01*
X138671428Y-86161905D01*
X138671428Y-85876190D01*
X138623809Y-85780952D01*
X138576190Y-85733333D01*
X138480952Y-85685714D01*
X138290475Y-85685714D01*
X138195237Y-85733333D01*
X137719047Y-86257143D02*
X137671428Y-86304762D01*
X137719047Y-86352381D01*
X137766666Y-86304762D01*
X137719047Y-86257143D01*
X137719047Y-86352381D01*
X136861904Y-86304762D02*
X136957142Y-86352381D01*
X137147619Y-86352381D01*
X137242857Y-86304762D01*
X137290476Y-86209524D01*
X137290476Y-85828571D01*
X137242857Y-85733333D01*
X137147619Y-85685714D01*
X136957142Y-85685714D01*
X136861904Y-85733333D01*
X136814285Y-85828571D01*
X136814285Y-85923810D01*
X137290476Y-86019048D01*
X136004761Y-86304762D02*
X136099999Y-86352381D01*
X136290476Y-86352381D01*
X136385714Y-86304762D01*
X136433333Y-86209524D01*
X136433333Y-85828571D01*
X136385714Y-85733333D01*
X136290476Y-85685714D01*
X136099999Y-85685714D01*
X136004761Y-85733333D01*
X135957142Y-85828571D01*
X135957142Y-85923810D01*
X136433333Y-86019048D01*
X134290475Y-86352381D02*
X134766666Y-86352381D01*
X134766666Y-85352381D01*
X133528570Y-86352381D02*
X133528570Y-85828571D01*
X133576189Y-85733333D01*
X133671427Y-85685714D01*
X133861904Y-85685714D01*
X133957142Y-85733333D01*
X133528570Y-86304762D02*
X133623808Y-86352381D01*
X133861904Y-86352381D01*
X133957142Y-86304762D01*
X134004761Y-86209524D01*
X134004761Y-86114286D01*
X133957142Y-86019048D01*
X133861904Y-85971429D01*
X133623808Y-85971429D01*
X133528570Y-85923810D01*
X133052380Y-86352381D02*
X133052380Y-85352381D01*
X133052380Y-85733333D02*
X132957142Y-85685714D01*
X132766665Y-85685714D01*
X132671427Y-85733333D01*
X132623808Y-85780952D01*
X132576189Y-85876190D01*
X132576189Y-86161905D01*
X132623808Y-86257143D01*
X132671427Y-86304762D01*
X132766665Y-86352381D01*
X132957142Y-86352381D01*
X133052380Y-86304762D01*
X132195237Y-86304762D02*
X132099999Y-86352381D01*
X131909523Y-86352381D01*
X131814284Y-86304762D01*
X131766665Y-86209524D01*
X131766665Y-86161905D01*
X131814284Y-86066667D01*
X131909523Y-86019048D01*
X132052380Y-86019048D01*
X132147618Y-85971429D01*
X132195237Y-85876190D01*
X132195237Y-85828571D01*
X132147618Y-85733333D01*
X132052380Y-85685714D01*
X131909523Y-85685714D01*
X131814284Y-85733333D01*
X130623808Y-85447619D02*
X130576189Y-85400000D01*
X130480951Y-85352381D01*
X130242855Y-85352381D01*
X130147617Y-85400000D01*
X130099998Y-85447619D01*
X130052379Y-85542857D01*
X130052379Y-85638095D01*
X130099998Y-85780952D01*
X130671427Y-86352381D01*
X130052379Y-86352381D01*
X129433332Y-85352381D02*
X129338093Y-85352381D01*
X129242855Y-85400000D01*
X129195236Y-85447619D01*
X129147617Y-85542857D01*
X129099998Y-85733333D01*
X129099998Y-85971429D01*
X129147617Y-86161905D01*
X129195236Y-86257143D01*
X129242855Y-86304762D01*
X129338093Y-86352381D01*
X129433332Y-86352381D01*
X129528570Y-86304762D01*
X129576189Y-86257143D01*
X129623808Y-86161905D01*
X129671427Y-85971429D01*
X129671427Y-85733333D01*
X129623808Y-85542857D01*
X129576189Y-85447619D01*
X129528570Y-85400000D01*
X129433332Y-85352381D01*
X128147617Y-86352381D02*
X128719046Y-86352381D01*
X128433332Y-86352381D02*
X128433332Y-85352381D01*
X128528570Y-85495238D01*
X128623808Y-85590476D01*
X128719046Y-85638095D01*
X127290474Y-85352381D02*
X127480951Y-85352381D01*
X127576189Y-85400000D01*
X127623808Y-85447619D01*
X127719046Y-85590476D01*
X127766665Y-85780952D01*
X127766665Y-86161905D01*
X127719046Y-86257143D01*
X127671427Y-86304762D01*
X127576189Y-86352381D01*
X127385712Y-86352381D01*
X127290474Y-86304762D01*
X127242855Y-86257143D01*
X127195236Y-86161905D01*
X127195236Y-85923810D01*
X127242855Y-85828571D01*
X127290474Y-85780952D01*
X127385712Y-85733333D01*
X127576189Y-85733333D01*
X127671427Y-85780952D01*
X127719046Y-85828571D01*
X127766665Y-85923810D01*
X140090476Y-72152381D02*
X140423810Y-71676190D01*
X140661905Y-72152381D02*
X140661905Y-71152381D01*
X140280952Y-71152381D01*
X140185714Y-71200000D01*
X140138095Y-71247619D01*
X140090476Y-71342857D01*
X140090476Y-71485714D01*
X140138095Y-71580952D01*
X140185714Y-71628571D01*
X140280952Y-71676190D01*
X140661905Y-71676190D01*
X139138095Y-72152381D02*
X139709524Y-72152381D01*
X139423810Y-72152381D02*
X139423810Y-71152381D01*
X139519048Y-71295238D01*
X139614286Y-71390476D01*
X139709524Y-71438095D01*
X138519048Y-71152381D02*
X138423809Y-71152381D01*
X138328571Y-71200000D01*
X138280952Y-71247619D01*
X138233333Y-71342857D01*
X138185714Y-71533333D01*
X138185714Y-71771429D01*
X138233333Y-71961905D01*
X138280952Y-72057143D01*
X138328571Y-72104762D01*
X138423809Y-72152381D01*
X138519048Y-72152381D01*
X138614286Y-72104762D01*
X138661905Y-72057143D01*
X138709524Y-71961905D01*
X138757143Y-71771429D01*
X138757143Y-71533333D01*
X138709524Y-71342857D01*
X138661905Y-71247619D01*
X138614286Y-71200000D01*
X138519048Y-71152381D01*
X137566667Y-71152381D02*
X137471428Y-71152381D01*
X137376190Y-71200000D01*
X137328571Y-71247619D01*
X137280952Y-71342857D01*
X137233333Y-71533333D01*
X137233333Y-71771429D01*
X137280952Y-71961905D01*
X137328571Y-72057143D01*
X137376190Y-72104762D01*
X137471428Y-72152381D01*
X137566667Y-72152381D01*
X137661905Y-72104762D01*
X137709524Y-72057143D01*
X137757143Y-71961905D01*
X137804762Y-71771429D01*
X137804762Y-71533333D01*
X137757143Y-71342857D01*
X137709524Y-71247619D01*
X137661905Y-71200000D01*
X137566667Y-71152381D01*
X136852381Y-71247619D02*
X136804762Y-71200000D01*
X136709524Y-71152381D01*
X136471428Y-71152381D01*
X136376190Y-71200000D01*
X136328571Y-71247619D01*
X136280952Y-71342857D01*
X136280952Y-71438095D01*
X136328571Y-71580952D01*
X136900000Y-72152381D01*
X136280952Y-72152381D01*
X135185714Y-71485714D02*
X134947619Y-72152381D01*
X134709523Y-71485714D01*
X133804761Y-72152381D02*
X134376190Y-72152381D01*
X134090476Y-72152381D02*
X134090476Y-71152381D01*
X134185714Y-71295238D01*
X134280952Y-71390476D01*
X134376190Y-71438095D01*
X133376190Y-72057143D02*
X133328571Y-72104762D01*
X133376190Y-72152381D01*
X133423809Y-72104762D01*
X133376190Y-72057143D01*
X133376190Y-72152381D01*
X132709524Y-71152381D02*
X132614285Y-71152381D01*
X132519047Y-71200000D01*
X132471428Y-71247619D01*
X132423809Y-71342857D01*
X132376190Y-71533333D01*
X132376190Y-71771429D01*
X132423809Y-71961905D01*
X132471428Y-72057143D01*
X132519047Y-72104762D01*
X132614285Y-72152381D01*
X132709524Y-72152381D01*
X132804762Y-72104762D01*
X132852381Y-72057143D01*
X132900000Y-71961905D01*
X132947619Y-71771429D01*
X132947619Y-71533333D01*
X132900000Y-71342857D01*
X132852381Y-71247619D01*
X132804762Y-71200000D01*
X132709524Y-71152381D01*
X131947619Y-72057143D02*
X131900000Y-72104762D01*
X131947619Y-72152381D01*
X131995238Y-72104762D01*
X131947619Y-72057143D01*
X131947619Y-72152381D01*
X131280953Y-71152381D02*
X131185714Y-71152381D01*
X131090476Y-71200000D01*
X131042857Y-71247619D01*
X130995238Y-71342857D01*
X130947619Y-71533333D01*
X130947619Y-71771429D01*
X130995238Y-71961905D01*
X131042857Y-72057143D01*
X131090476Y-72104762D01*
X131185714Y-72152381D01*
X131280953Y-72152381D01*
X131376191Y-72104762D01*
X131423810Y-72057143D01*
X131471429Y-71961905D01*
X131519048Y-71771429D01*
X131519048Y-71533333D01*
X131471429Y-71342857D01*
X131423810Y-71247619D01*
X131376191Y-71200000D01*
X131280953Y-71152381D01*
X130519048Y-71771429D02*
X129757143Y-71771429D01*
X129280953Y-72152381D02*
X129280953Y-71152381D01*
X129280953Y-71533333D02*
X129185715Y-71485714D01*
X128995238Y-71485714D01*
X128900000Y-71533333D01*
X128852381Y-71580952D01*
X128804762Y-71676190D01*
X128804762Y-71961905D01*
X128852381Y-72057143D01*
X128900000Y-72104762D01*
X128995238Y-72152381D01*
X129185715Y-72152381D01*
X129280953Y-72104762D01*
X127995238Y-72104762D02*
X128090476Y-72152381D01*
X128280953Y-72152381D01*
X128376191Y-72104762D01*
X128423810Y-72009524D01*
X128423810Y-71628571D01*
X128376191Y-71533333D01*
X128280953Y-71485714D01*
X128090476Y-71485714D01*
X127995238Y-71533333D01*
X127947619Y-71628571D01*
X127947619Y-71723810D01*
X128423810Y-71819048D01*
X127661905Y-71485714D02*
X127280953Y-71485714D01*
X127519048Y-71152381D02*
X127519048Y-72009524D01*
X127471429Y-72104762D01*
X127376191Y-72152381D01*
X127280953Y-72152381D01*
X126519047Y-72152381D02*
X126519047Y-71628571D01*
X126566666Y-71533333D01*
X126661904Y-71485714D01*
X126852381Y-71485714D01*
X126947619Y-71533333D01*
X126519047Y-72104762D02*
X126614285Y-72152381D01*
X126852381Y-72152381D01*
X126947619Y-72104762D01*
X126995238Y-72009524D01*
X126995238Y-71914286D01*
X126947619Y-71819048D01*
X126852381Y-71771429D01*
X126614285Y-71771429D01*
X126519047Y-71723810D01*
X140138095Y-73752381D02*
X140709524Y-73752381D01*
X140423810Y-73752381D02*
X140423810Y-72752381D01*
X140519048Y-72895238D01*
X140614286Y-72990476D01*
X140709524Y-73038095D01*
X139757143Y-73466667D02*
X139280952Y-73466667D01*
X139852381Y-73752381D02*
X139519048Y-72752381D01*
X139185714Y-73752381D01*
X138090476Y-73752381D02*
X138090476Y-72752381D01*
X137519047Y-73752381D01*
X137519047Y-72752381D01*
X136709523Y-73228571D02*
X137042857Y-73228571D01*
X137042857Y-73752381D02*
X137042857Y-72752381D01*
X136566666Y-72752381D01*
X136185714Y-73228571D02*
X135852380Y-73228571D01*
X135709523Y-73752381D02*
X136185714Y-73752381D01*
X136185714Y-72752381D01*
X135709523Y-72752381D01*
X135423809Y-72752381D02*
X134852380Y-72752381D01*
X135138095Y-73752381D02*
X135138095Y-72752381D01*
X133757142Y-73752381D02*
X133757142Y-72752381D01*
X133519047Y-72752381D01*
X133376189Y-72800000D01*
X133280951Y-72895238D01*
X133233332Y-72990476D01*
X133185713Y-73180952D01*
X133185713Y-73323810D01*
X133233332Y-73514286D01*
X133280951Y-73609524D01*
X133376189Y-73704762D01*
X133519047Y-73752381D01*
X133757142Y-73752381D01*
X132757142Y-73752381D02*
X132757142Y-73085714D01*
X132757142Y-73276190D02*
X132709523Y-73180952D01*
X132661904Y-73133333D01*
X132566666Y-73085714D01*
X132471427Y-73085714D01*
X132138094Y-73752381D02*
X132138094Y-73085714D01*
X132138094Y-72752381D02*
X132185713Y-72800000D01*
X132138094Y-72847619D01*
X132090475Y-72800000D01*
X132138094Y-72752381D01*
X132138094Y-72847619D01*
X131757142Y-73085714D02*
X131519047Y-73752381D01*
X131280951Y-73085714D01*
X130519046Y-73704762D02*
X130614284Y-73752381D01*
X130804761Y-73752381D01*
X130899999Y-73704762D01*
X130947618Y-73609524D01*
X130947618Y-73228571D01*
X130899999Y-73133333D01*
X130804761Y-73085714D01*
X130614284Y-73085714D01*
X130519046Y-73133333D01*
X130471427Y-73228571D01*
X130471427Y-73323810D01*
X130947618Y-73419048D01*
X130042856Y-73752381D02*
X130042856Y-73085714D01*
X130042856Y-73276190D02*
X129995237Y-73180952D01*
X129947618Y-73133333D01*
X129852380Y-73085714D01*
X129757141Y-73085714D01*
X129471427Y-73704762D02*
X129376189Y-73752381D01*
X129185713Y-73752381D01*
X129090474Y-73704762D01*
X129042855Y-73609524D01*
X129042855Y-73561905D01*
X129090474Y-73466667D01*
X129185713Y-73419048D01*
X129328570Y-73419048D01*
X129423808Y-73371429D01*
X129471427Y-73276190D01*
X129471427Y-73228571D01*
X129423808Y-73133333D01*
X129328570Y-73085714D01*
X129185713Y-73085714D01*
X129090474Y-73133333D01*
X140661905Y-75352381D02*
X140661905Y-74352381D01*
X140233333Y-75352381D02*
X140233333Y-74828571D01*
X140280952Y-74733333D01*
X140376190Y-74685714D01*
X140519048Y-74685714D01*
X140614286Y-74733333D01*
X140661905Y-74780952D01*
X139900000Y-74685714D02*
X139519048Y-74685714D01*
X139757143Y-74352381D02*
X139757143Y-75209524D01*
X139709524Y-75304762D01*
X139614286Y-75352381D01*
X139519048Y-75352381D01*
X139328571Y-74685714D02*
X138947619Y-74685714D01*
X139185714Y-74352381D02*
X139185714Y-75209524D01*
X139138095Y-75304762D01*
X139042857Y-75352381D01*
X138947619Y-75352381D01*
X138614285Y-74685714D02*
X138614285Y-75685714D01*
X138614285Y-74733333D02*
X138519047Y-74685714D01*
X138328570Y-74685714D01*
X138233332Y-74733333D01*
X138185713Y-74780952D01*
X138138094Y-74876190D01*
X138138094Y-75161905D01*
X138185713Y-75257143D01*
X138233332Y-75304762D01*
X138328570Y-75352381D01*
X138519047Y-75352381D01*
X138614285Y-75304762D01*
X137709523Y-75257143D02*
X137661904Y-75304762D01*
X137709523Y-75352381D01*
X137757142Y-75304762D01*
X137709523Y-75257143D01*
X137709523Y-75352381D01*
X137709523Y-74733333D02*
X137661904Y-74780952D01*
X137709523Y-74828571D01*
X137757142Y-74780952D01*
X137709523Y-74733333D01*
X137709523Y-74828571D01*
X136519047Y-74304762D02*
X137376190Y-75590476D01*
X135471428Y-74304762D02*
X136328571Y-75590476D01*
X135138095Y-74685714D02*
X135138095Y-75685714D01*
X135138095Y-74733333D02*
X135042857Y-74685714D01*
X134852380Y-74685714D01*
X134757142Y-74733333D01*
X134709523Y-74780952D01*
X134661904Y-74876190D01*
X134661904Y-75161905D01*
X134709523Y-75257143D01*
X134757142Y-75304762D01*
X134852380Y-75352381D01*
X135042857Y-75352381D01*
X135138095Y-75304762D01*
X134090476Y-75352381D02*
X134185714Y-75304762D01*
X134233333Y-75209524D01*
X134233333Y-74352381D01*
X133280951Y-74685714D02*
X133280951Y-75352381D01*
X133709523Y-74685714D02*
X133709523Y-75209524D01*
X133661904Y-75304762D01*
X133566666Y-75352381D01*
X133423808Y-75352381D01*
X133328570Y-75304762D01*
X133280951Y-75257143D01*
X132376189Y-74685714D02*
X132376189Y-75495238D01*
X132423808Y-75590476D01*
X132471427Y-75638095D01*
X132566666Y-75685714D01*
X132709523Y-75685714D01*
X132804761Y-75638095D01*
X132376189Y-75304762D02*
X132471427Y-75352381D01*
X132661904Y-75352381D01*
X132757142Y-75304762D01*
X132804761Y-75257143D01*
X132852380Y-75161905D01*
X132852380Y-74876190D01*
X132804761Y-74780952D01*
X132757142Y-74733333D01*
X132661904Y-74685714D01*
X132471427Y-74685714D01*
X132376189Y-74733333D01*
X131471427Y-74685714D02*
X131471427Y-75495238D01*
X131519046Y-75590476D01*
X131566665Y-75638095D01*
X131661904Y-75685714D01*
X131804761Y-75685714D01*
X131899999Y-75638095D01*
X131471427Y-75304762D02*
X131566665Y-75352381D01*
X131757142Y-75352381D01*
X131852380Y-75304762D01*
X131899999Y-75257143D01*
X131947618Y-75161905D01*
X131947618Y-74876190D01*
X131899999Y-74780952D01*
X131852380Y-74733333D01*
X131757142Y-74685714D01*
X131566665Y-74685714D01*
X131471427Y-74733333D01*
X130995237Y-75257143D02*
X130947618Y-75304762D01*
X130995237Y-75352381D01*
X131042856Y-75304762D01*
X130995237Y-75257143D01*
X130995237Y-75352381D01*
X130138094Y-75304762D02*
X130233332Y-75352381D01*
X130423809Y-75352381D01*
X130519047Y-75304762D01*
X130566666Y-75209524D01*
X130566666Y-74828571D01*
X130519047Y-74733333D01*
X130423809Y-74685714D01*
X130233332Y-74685714D01*
X130138094Y-74733333D01*
X130090475Y-74828571D01*
X130090475Y-74923810D01*
X130566666Y-75019048D01*
X129280951Y-75304762D02*
X129376189Y-75352381D01*
X129566666Y-75352381D01*
X129661904Y-75304762D01*
X129709523Y-75209524D01*
X129709523Y-74828571D01*
X129661904Y-74733333D01*
X129566666Y-74685714D01*
X129376189Y-74685714D01*
X129280951Y-74733333D01*
X129233332Y-74828571D01*
X129233332Y-74923810D01*
X129709523Y-75019048D01*
D12*
X148900180Y-97500640D02*
X148900180Y-94300240D01*
X148900180Y-94300240D02*
X147099320Y-94300240D01*
X147099320Y-94300240D02*
X147099320Y-97500640D01*
X160200640Y-97500640D02*
X148900180Y-97500640D01*
X148900180Y-97500640D02*
X148900180Y-103299460D01*
X148900180Y-103299460D02*
X160200640Y-103299460D01*
X160200640Y-103299460D02*
X160200640Y-97500640D01*
X139799360Y-97500640D02*
X147099320Y-97500640D01*
X147099320Y-103299460D02*
X139799360Y-103299460D01*
X147099320Y-97500640D02*
X147099320Y-103299460D01*
X139799360Y-97500640D02*
X139799360Y-103299460D01*
X154476000Y-90556000D02*
X151428000Y-90556000D01*
X151428000Y-90556000D02*
X151428000Y-83444000D01*
X151428000Y-83444000D02*
X154476000Y-83444000D01*
X157524000Y-90556000D02*
X158286000Y-90556000D01*
X158286000Y-90556000D02*
X160572000Y-89032000D01*
X160572000Y-89032000D02*
X160572000Y-84968000D01*
X160572000Y-84968000D02*
X158286000Y-83444000D01*
X158286000Y-83444000D02*
X157524000Y-83444000D01*
X154476000Y-80556000D02*
X151428000Y-80556000D01*
X151428000Y-80556000D02*
X151428000Y-73444000D01*
X151428000Y-73444000D02*
X154476000Y-73444000D01*
X157524000Y-80556000D02*
X158286000Y-80556000D01*
X158286000Y-80556000D02*
X160572000Y-79032000D01*
X160572000Y-79032000D02*
X160572000Y-74968000D01*
X160572000Y-74968000D02*
X158286000Y-73444000D01*
X158286000Y-73444000D02*
X157524000Y-73444000D01*
X149000000Y-85425000D02*
X150000000Y-85425000D01*
X150000000Y-84075000D02*
X149000000Y-84075000D01*
X149000000Y-75425000D02*
X150000000Y-75425000D01*
X150000000Y-74075000D02*
X149000000Y-74075000D01*
D13*
G36*
X130178161Y-78234483D02*
X128134483Y-78234483D01*
X128134483Y-79986207D01*
X128426437Y-79986207D01*
X128426437Y-78526437D01*
X129886207Y-78526437D01*
X129886207Y-79986207D01*
X128426437Y-79986207D01*
X128134483Y-79986207D01*
X128134483Y-80278161D01*
X130178161Y-80278161D01*
X130178161Y-78234483D01*
X130178161Y-78234483D01*
G37*
X130178161Y-78234483D02*
X128134483Y-78234483D01*
X128134483Y-79986207D01*
X128426437Y-79986207D01*
X128426437Y-78526437D01*
X129886207Y-78526437D01*
X129886207Y-79986207D01*
X128426437Y-79986207D01*
X128134483Y-79986207D01*
X128134483Y-80278161D01*
X130178161Y-80278161D01*
X130178161Y-78234483D01*
G36*
X131054023Y-78526437D02*
X131345977Y-78526437D01*
X131345977Y-78234483D01*
X130470115Y-78234483D01*
X130470115Y-78818391D01*
X130762069Y-78818391D01*
X130762069Y-79110345D01*
X131054023Y-79110345D01*
X131054023Y-78526437D01*
X131054023Y-78526437D01*
G37*
X131054023Y-78526437D02*
X131345977Y-78526437D01*
X131345977Y-78234483D01*
X130470115Y-78234483D01*
X130470115Y-78818391D01*
X130762069Y-78818391D01*
X130762069Y-79110345D01*
X131054023Y-79110345D01*
X131054023Y-78526437D01*
G36*
X133389655Y-78526437D02*
X133097701Y-78526437D01*
X133097701Y-78818391D01*
X133389655Y-78818391D01*
X133389655Y-78526437D01*
X133389655Y-78526437D01*
G37*
X133389655Y-78526437D02*
X133097701Y-78526437D01*
X133097701Y-78818391D01*
X133389655Y-78818391D01*
X133389655Y-78526437D01*
G36*
X133681609Y-79402299D02*
X134265517Y-79402299D01*
X134265517Y-78818391D01*
X133973563Y-78818391D01*
X133973563Y-79110345D01*
X133681609Y-79110345D01*
X133681609Y-79402299D01*
X133681609Y-79402299D01*
G37*
X133681609Y-79402299D02*
X134265517Y-79402299D01*
X134265517Y-78818391D01*
X133973563Y-78818391D01*
X133973563Y-79110345D01*
X133681609Y-79110345D01*
X133681609Y-79402299D01*
G36*
X130762069Y-79110345D02*
X130470115Y-79110345D01*
X130470115Y-79402299D01*
X130762069Y-79402299D01*
X130762069Y-79110345D01*
X130762069Y-79110345D01*
G37*
X130762069Y-79110345D02*
X130470115Y-79110345D01*
X130470115Y-79402299D01*
X130762069Y-79402299D01*
X130762069Y-79110345D01*
G36*
X134265517Y-79694253D02*
X133973563Y-79694253D01*
X133973563Y-79986207D01*
X134265517Y-79986207D01*
X134265517Y-79694253D01*
X134265517Y-79694253D01*
G37*
X134265517Y-79694253D02*
X133973563Y-79694253D01*
X133973563Y-79986207D01*
X134265517Y-79986207D01*
X134265517Y-79694253D01*
G36*
X134265517Y-80278161D02*
X133973563Y-80278161D01*
X133973563Y-80570115D01*
X134265517Y-80570115D01*
X134265517Y-80278161D01*
X134265517Y-80278161D01*
G37*
X134265517Y-80278161D02*
X133973563Y-80278161D01*
X133973563Y-80570115D01*
X134265517Y-80570115D01*
X134265517Y-80278161D01*
G36*
X134265517Y-80862069D02*
X133681609Y-80862069D01*
X133681609Y-81154023D01*
X133973563Y-81154023D01*
X133973563Y-81737931D01*
X134265517Y-81737931D01*
X134265517Y-80862069D01*
X134265517Y-80862069D01*
G37*
X134265517Y-80862069D02*
X133681609Y-80862069D01*
X133681609Y-81154023D01*
X133973563Y-81154023D01*
X133973563Y-81737931D01*
X134265517Y-81737931D01*
X134265517Y-80862069D01*
G36*
X128718391Y-81737931D02*
X128426437Y-81737931D01*
X128426437Y-81154023D01*
X128134483Y-81154023D01*
X128134483Y-82029885D01*
X128718391Y-82029885D01*
X128718391Y-81737931D01*
X128718391Y-81737931D01*
G37*
X128718391Y-81737931D02*
X128426437Y-81737931D01*
X128426437Y-81154023D01*
X128134483Y-81154023D01*
X128134483Y-82029885D01*
X128718391Y-82029885D01*
X128718391Y-81737931D01*
G36*
X133681609Y-81154023D02*
X133389655Y-81154023D01*
X133389655Y-81445977D01*
X133681609Y-81445977D01*
X133681609Y-81154023D01*
X133681609Y-81154023D01*
G37*
X133681609Y-81154023D02*
X133389655Y-81154023D01*
X133389655Y-81445977D01*
X133681609Y-81445977D01*
X133681609Y-81154023D01*
G36*
X133973563Y-81737931D02*
X133389655Y-81737931D01*
X133389655Y-82029885D01*
X133973563Y-82029885D01*
X133973563Y-81737931D01*
X133973563Y-81737931D01*
G37*
X133973563Y-81737931D02*
X133389655Y-81737931D01*
X133389655Y-82029885D01*
X133973563Y-82029885D01*
X133973563Y-81737931D01*
G36*
X131929885Y-82321839D02*
X131637931Y-82321839D01*
X131637931Y-82613793D01*
X131929885Y-82613793D01*
X131929885Y-82321839D01*
X131929885Y-82321839D01*
G37*
X131929885Y-82321839D02*
X131637931Y-82321839D01*
X131637931Y-82613793D01*
X131929885Y-82613793D01*
X131929885Y-82321839D01*
G36*
X131637931Y-82613793D02*
X131345977Y-82613793D01*
X131345977Y-82905747D01*
X131637931Y-82905747D01*
X131637931Y-82613793D01*
X131637931Y-82613793D01*
G37*
X131637931Y-82613793D02*
X131345977Y-82613793D01*
X131345977Y-82905747D01*
X131637931Y-82905747D01*
X131637931Y-82613793D01*
G36*
X131054023Y-83197701D02*
X130762069Y-83197701D01*
X130762069Y-83489655D01*
X130470115Y-83489655D01*
X130470115Y-84073563D01*
X130762069Y-84073563D01*
X130762069Y-84365517D01*
X131054023Y-84365517D01*
X131054023Y-83197701D01*
X131054023Y-83197701D01*
G37*
X131054023Y-83197701D02*
X130762069Y-83197701D01*
X130762069Y-83489655D01*
X130470115Y-83489655D01*
X130470115Y-84073563D01*
X130762069Y-84073563D01*
X130762069Y-84365517D01*
X131054023Y-84365517D01*
X131054023Y-83197701D01*
G36*
X128718391Y-80862069D02*
X129010345Y-80862069D01*
X129010345Y-80570115D01*
X128134483Y-80570115D01*
X128134483Y-80862069D01*
X128426437Y-80862069D01*
X128426437Y-81154023D01*
X128718391Y-81154023D01*
X128718391Y-80862069D01*
X128718391Y-80862069D01*
G37*
X128718391Y-80862069D02*
X129010345Y-80862069D01*
X129010345Y-80570115D01*
X128134483Y-80570115D01*
X128134483Y-80862069D01*
X128426437Y-80862069D01*
X128426437Y-81154023D01*
X128718391Y-81154023D01*
X128718391Y-80862069D01*
G36*
X133681609Y-78818391D02*
X133389655Y-78818391D01*
X133389655Y-79110345D01*
X133681609Y-79110345D01*
X133681609Y-78818391D01*
X133681609Y-78818391D01*
G37*
X133681609Y-78818391D02*
X133389655Y-78818391D01*
X133389655Y-79110345D01*
X133681609Y-79110345D01*
X133681609Y-78818391D01*
G36*
X133973563Y-80278161D02*
X133973563Y-79986207D01*
X133097701Y-79986207D01*
X133097701Y-79694253D01*
X133389655Y-79694253D01*
X133389655Y-79402299D01*
X133097701Y-79402299D01*
X133097701Y-78818391D01*
X132805747Y-78818391D01*
X132805747Y-78526437D01*
X132513793Y-78526437D01*
X132513793Y-78234483D01*
X132221839Y-78234483D01*
X132221839Y-78526437D01*
X131929885Y-78526437D01*
X131929885Y-78234483D01*
X131637931Y-78234483D01*
X131637931Y-78818391D01*
X132221839Y-78818391D01*
X132221839Y-78526437D01*
X132513793Y-78526437D01*
X132513793Y-78818391D01*
X132221839Y-78818391D01*
X131637931Y-78818391D01*
X131345977Y-78818391D01*
X131345977Y-79110345D01*
X131637931Y-79110345D01*
X131637931Y-79402299D01*
X131345977Y-79402299D01*
X131345977Y-79694253D01*
X131637931Y-79694253D01*
X131637931Y-79986207D01*
X131054023Y-79986207D01*
X131054023Y-79402299D01*
X130762069Y-79402299D01*
X130762069Y-79986207D01*
X130470115Y-79986207D01*
X130470115Y-80278161D01*
X130762069Y-80278161D01*
X130762069Y-79986207D01*
X131054023Y-79986207D01*
X131054023Y-80278161D01*
X130762069Y-80278161D01*
X130470115Y-80278161D01*
X130470115Y-80570115D01*
X129594253Y-80570115D01*
X129594253Y-81154023D01*
X129886207Y-81154023D01*
X129886207Y-80862069D01*
X130178161Y-80862069D01*
X130178161Y-81154023D01*
X129886207Y-81154023D01*
X129594253Y-81154023D01*
X128718391Y-81154023D01*
X128718391Y-81445977D01*
X130178161Y-81445977D01*
X130178161Y-81737931D01*
X129886207Y-81737931D01*
X129886207Y-82029885D01*
X130470115Y-82029885D01*
X130470115Y-81445977D01*
X130762069Y-81445977D01*
X130762069Y-81154023D01*
X130470115Y-81154023D01*
X130470115Y-80570115D01*
X131054023Y-80570115D01*
X131054023Y-80278161D01*
X131345977Y-80278161D01*
X131929885Y-80278161D01*
X131929885Y-79110345D01*
X132221839Y-79110345D01*
X132513793Y-79110345D01*
X132513793Y-78818391D01*
X132805747Y-78818391D01*
X132805747Y-79110345D01*
X132513793Y-79110345D01*
X132221839Y-79110345D01*
X132221839Y-79402299D01*
X132513793Y-79402299D01*
X132513793Y-79694253D01*
X132805747Y-79694253D01*
X132805747Y-80278161D01*
X131929885Y-80278161D01*
X131345977Y-80278161D01*
X131345977Y-80570115D01*
X131054023Y-80570115D01*
X131054023Y-80862069D01*
X131637931Y-80862069D01*
X131637931Y-80570115D01*
X132513793Y-80570115D01*
X132513793Y-80862069D01*
X132221839Y-80862069D01*
X132221839Y-81154023D01*
X132513793Y-81154023D01*
X132513793Y-80862069D01*
X132805747Y-80862069D01*
X132805747Y-81154023D01*
X132513793Y-81154023D01*
X132221839Y-81154023D01*
X131929885Y-81154023D01*
X131929885Y-80862069D01*
X131637931Y-80862069D01*
X131637931Y-81154023D01*
X131054023Y-81154023D01*
X131054023Y-81445977D01*
X131345977Y-81445977D01*
X131345977Y-81737931D01*
X130762069Y-81737931D01*
X130762069Y-82029885D01*
X130470115Y-82029885D01*
X130470115Y-83197701D01*
X130762069Y-83197701D01*
X130762069Y-82321839D01*
X131054023Y-82321839D01*
X131054023Y-82613793D01*
X131345977Y-82613793D01*
X131345977Y-81737931D01*
X131637931Y-81737931D01*
X131637931Y-82029885D01*
X131929885Y-82029885D01*
X131929885Y-81737931D01*
X132221839Y-81737931D01*
X132221839Y-81445977D01*
X132805747Y-81445977D01*
X132805747Y-81737931D01*
X132221839Y-81737931D01*
X132221839Y-82029885D01*
X133097701Y-82029885D01*
X133097701Y-81445977D01*
X132805747Y-81445977D01*
X132805747Y-81154023D01*
X133389655Y-81154023D01*
X133389655Y-80570115D01*
X133097701Y-80570115D01*
X133097701Y-80862069D01*
X132805747Y-80862069D01*
X132805747Y-80278161D01*
X133973563Y-80278161D01*
X133973563Y-80278161D01*
G37*
X133973563Y-80278161D02*
X133973563Y-79986207D01*
X133097701Y-79986207D01*
X133097701Y-79694253D01*
X133389655Y-79694253D01*
X133389655Y-79402299D01*
X133097701Y-79402299D01*
X133097701Y-78818391D01*
X132805747Y-78818391D01*
X132805747Y-78526437D01*
X132513793Y-78526437D01*
X132513793Y-78234483D01*
X132221839Y-78234483D01*
X132221839Y-78526437D01*
X131929885Y-78526437D01*
X131929885Y-78234483D01*
X131637931Y-78234483D01*
X131637931Y-78818391D01*
X132221839Y-78818391D01*
X132221839Y-78526437D01*
X132513793Y-78526437D01*
X132513793Y-78818391D01*
X132221839Y-78818391D01*
X131637931Y-78818391D01*
X131345977Y-78818391D01*
X131345977Y-79110345D01*
X131637931Y-79110345D01*
X131637931Y-79402299D01*
X131345977Y-79402299D01*
X131345977Y-79694253D01*
X131637931Y-79694253D01*
X131637931Y-79986207D01*
X131054023Y-79986207D01*
X131054023Y-79402299D01*
X130762069Y-79402299D01*
X130762069Y-79986207D01*
X130470115Y-79986207D01*
X130470115Y-80278161D01*
X130762069Y-80278161D01*
X130762069Y-79986207D01*
X131054023Y-79986207D01*
X131054023Y-80278161D01*
X130762069Y-80278161D01*
X130470115Y-80278161D01*
X130470115Y-80570115D01*
X129594253Y-80570115D01*
X129594253Y-81154023D01*
X129886207Y-81154023D01*
X129886207Y-80862069D01*
X130178161Y-80862069D01*
X130178161Y-81154023D01*
X129886207Y-81154023D01*
X129594253Y-81154023D01*
X128718391Y-81154023D01*
X128718391Y-81445977D01*
X130178161Y-81445977D01*
X130178161Y-81737931D01*
X129886207Y-81737931D01*
X129886207Y-82029885D01*
X130470115Y-82029885D01*
X130470115Y-81445977D01*
X130762069Y-81445977D01*
X130762069Y-81154023D01*
X130470115Y-81154023D01*
X130470115Y-80570115D01*
X131054023Y-80570115D01*
X131054023Y-80278161D01*
X131345977Y-80278161D01*
X131929885Y-80278161D01*
X131929885Y-79110345D01*
X132221839Y-79110345D01*
X132513793Y-79110345D01*
X132513793Y-78818391D01*
X132805747Y-78818391D01*
X132805747Y-79110345D01*
X132513793Y-79110345D01*
X132221839Y-79110345D01*
X132221839Y-79402299D01*
X132513793Y-79402299D01*
X132513793Y-79694253D01*
X132805747Y-79694253D01*
X132805747Y-80278161D01*
X131929885Y-80278161D01*
X131345977Y-80278161D01*
X131345977Y-80570115D01*
X131054023Y-80570115D01*
X131054023Y-80862069D01*
X131637931Y-80862069D01*
X131637931Y-80570115D01*
X132513793Y-80570115D01*
X132513793Y-80862069D01*
X132221839Y-80862069D01*
X132221839Y-81154023D01*
X132513793Y-81154023D01*
X132513793Y-80862069D01*
X132805747Y-80862069D01*
X132805747Y-81154023D01*
X132513793Y-81154023D01*
X132221839Y-81154023D01*
X131929885Y-81154023D01*
X131929885Y-80862069D01*
X131637931Y-80862069D01*
X131637931Y-81154023D01*
X131054023Y-81154023D01*
X131054023Y-81445977D01*
X131345977Y-81445977D01*
X131345977Y-81737931D01*
X130762069Y-81737931D01*
X130762069Y-82029885D01*
X130470115Y-82029885D01*
X130470115Y-83197701D01*
X130762069Y-83197701D01*
X130762069Y-82321839D01*
X131054023Y-82321839D01*
X131054023Y-82613793D01*
X131345977Y-82613793D01*
X131345977Y-81737931D01*
X131637931Y-81737931D01*
X131637931Y-82029885D01*
X131929885Y-82029885D01*
X131929885Y-81737931D01*
X132221839Y-81737931D01*
X132221839Y-81445977D01*
X132805747Y-81445977D01*
X132805747Y-81737931D01*
X132221839Y-81737931D01*
X132221839Y-82029885D01*
X133097701Y-82029885D01*
X133097701Y-81445977D01*
X132805747Y-81445977D01*
X132805747Y-81154023D01*
X133389655Y-81154023D01*
X133389655Y-80570115D01*
X133097701Y-80570115D01*
X133097701Y-80862069D01*
X132805747Y-80862069D01*
X132805747Y-80278161D01*
X133973563Y-80278161D01*
G36*
X133973563Y-78234483D02*
X133681609Y-78234483D01*
X133681609Y-78526437D01*
X133973563Y-78526437D01*
X133973563Y-78234483D01*
X133973563Y-78234483D01*
G37*
X133973563Y-78234483D02*
X133681609Y-78234483D01*
X133681609Y-78526437D01*
X133973563Y-78526437D01*
X133973563Y-78234483D01*
G36*
X129302299Y-81737931D02*
X129010345Y-81737931D01*
X129010345Y-82029885D01*
X129302299Y-82029885D01*
X129302299Y-81737931D01*
X129302299Y-81737931D01*
G37*
X129302299Y-81737931D02*
X129010345Y-81737931D01*
X129010345Y-82029885D01*
X129302299Y-82029885D01*
X129302299Y-81737931D01*
G36*
X130178161Y-82321839D02*
X128134483Y-82321839D01*
X128134483Y-84073563D01*
X128426437Y-84073563D01*
X128426437Y-82613793D01*
X129886207Y-82613793D01*
X129886207Y-84073563D01*
X128426437Y-84073563D01*
X128134483Y-84073563D01*
X128134483Y-84365517D01*
X130178161Y-84365517D01*
X130178161Y-82321839D01*
X130178161Y-82321839D01*
G37*
X130178161Y-82321839D02*
X128134483Y-82321839D01*
X128134483Y-84073563D01*
X128426437Y-84073563D01*
X128426437Y-82613793D01*
X129886207Y-82613793D01*
X129886207Y-84073563D01*
X128426437Y-84073563D01*
X128134483Y-84073563D01*
X128134483Y-84365517D01*
X130178161Y-84365517D01*
X130178161Y-82321839D01*
G36*
X134265517Y-82321839D02*
X132221839Y-82321839D01*
X132221839Y-84073563D01*
X132513793Y-84073563D01*
X132513793Y-82613793D01*
X133973563Y-82613793D01*
X133973563Y-84073563D01*
X132513793Y-84073563D01*
X132221839Y-84073563D01*
X132221839Y-84365517D01*
X134265517Y-84365517D01*
X134265517Y-82321839D01*
X134265517Y-82321839D01*
G37*
X134265517Y-82321839D02*
X132221839Y-82321839D01*
X132221839Y-84073563D01*
X132513793Y-84073563D01*
X132513793Y-82613793D01*
X133973563Y-82613793D01*
X133973563Y-84073563D01*
X132513793Y-84073563D01*
X132221839Y-84073563D01*
X132221839Y-84365517D01*
X134265517Y-84365517D01*
X134265517Y-82321839D01*
G36*
X131929885Y-83489655D02*
X131637931Y-83489655D01*
X131637931Y-83781609D01*
X131929885Y-83781609D01*
X131929885Y-83489655D01*
X131929885Y-83489655D01*
G37*
X131929885Y-83489655D02*
X131637931Y-83489655D01*
X131637931Y-83781609D01*
X131929885Y-83781609D01*
X131929885Y-83489655D01*
G36*
X131637931Y-83781609D02*
X131345977Y-83781609D01*
X131345977Y-84073563D01*
X131637931Y-84073563D01*
X131637931Y-83781609D01*
X131637931Y-83781609D01*
G37*
X131637931Y-83781609D02*
X131345977Y-83781609D01*
X131345977Y-84073563D01*
X131637931Y-84073563D01*
X131637931Y-83781609D01*
G36*
X131929885Y-84073563D02*
X131637931Y-84073563D01*
X131637931Y-84365517D01*
X131929885Y-84365517D01*
X131929885Y-84073563D01*
X131929885Y-84073563D01*
G37*
X131929885Y-84073563D02*
X131637931Y-84073563D01*
X131637931Y-84365517D01*
X131929885Y-84365517D01*
X131929885Y-84073563D01*
G36*
X129594253Y-78818391D02*
X128718391Y-78818391D01*
X128718391Y-79694253D01*
X129594253Y-79694253D01*
X129594253Y-78818391D01*
X129594253Y-78818391D01*
G37*
X129594253Y-78818391D02*
X128718391Y-78818391D01*
X128718391Y-79694253D01*
X129594253Y-79694253D01*
X129594253Y-78818391D01*
G36*
X131054023Y-80862069D02*
X130762069Y-80862069D01*
X130762069Y-81154023D01*
X131054023Y-81154023D01*
X131054023Y-80862069D01*
X131054023Y-80862069D01*
G37*
X131054023Y-80862069D02*
X130762069Y-80862069D01*
X130762069Y-81154023D01*
X131054023Y-81154023D01*
X131054023Y-80862069D01*
G36*
X129594253Y-82905747D02*
X128718391Y-82905747D01*
X128718391Y-83781609D01*
X129594253Y-83781609D01*
X129594253Y-82905747D01*
X129594253Y-82905747D01*
G37*
X129594253Y-82905747D02*
X128718391Y-82905747D01*
X128718391Y-83781609D01*
X129594253Y-83781609D01*
X129594253Y-82905747D01*
G36*
X133681609Y-82905747D02*
X132805747Y-82905747D01*
X132805747Y-83781609D01*
X133681609Y-83781609D01*
X133681609Y-82905747D01*
X133681609Y-82905747D01*
G37*
X133681609Y-82905747D02*
X132805747Y-82905747D01*
X132805747Y-83781609D01*
X133681609Y-83781609D01*
X133681609Y-82905747D01*
D12*
X154778333Y-95642381D02*
X154778333Y-96356667D01*
X154825953Y-96499524D01*
X154921191Y-96594762D01*
X155064048Y-96642381D01*
X155159286Y-96642381D01*
X153778333Y-96642381D02*
X154349762Y-96642381D01*
X154064048Y-96642381D02*
X154064048Y-95642381D01*
X154159286Y-95785238D01*
X154254524Y-95880476D01*
X154349762Y-95928095D01*
X151047619Y-89654762D02*
X151000000Y-89559524D01*
X150904762Y-89464286D01*
X150761905Y-89321429D01*
X150714286Y-89226190D01*
X150714286Y-89130952D01*
X150952381Y-89178571D02*
X150904762Y-89083333D01*
X150809524Y-88988095D01*
X150619048Y-88940476D01*
X150285714Y-88940476D01*
X150095238Y-88988095D01*
X150000000Y-89083333D01*
X149952381Y-89178571D01*
X149952381Y-89369048D01*
X150000000Y-89464286D01*
X150095238Y-89559524D01*
X150285714Y-89607143D01*
X150619048Y-89607143D01*
X150809524Y-89559524D01*
X150904762Y-89464286D01*
X150952381Y-89369048D01*
X150952381Y-89178571D01*
X150047619Y-89988095D02*
X150000000Y-90035714D01*
X149952381Y-90130952D01*
X149952381Y-90369048D01*
X150000000Y-90464286D01*
X150047619Y-90511905D01*
X150142857Y-90559524D01*
X150238095Y-90559524D01*
X150380952Y-90511905D01*
X150952381Y-89940476D01*
X150952381Y-90559524D01*
X151047619Y-79654762D02*
X151000000Y-79559524D01*
X150904762Y-79464286D01*
X150761905Y-79321429D01*
X150714286Y-79226190D01*
X150714286Y-79130952D01*
X150952381Y-79178571D02*
X150904762Y-79083333D01*
X150809524Y-78988095D01*
X150619048Y-78940476D01*
X150285714Y-78940476D01*
X150095238Y-78988095D01*
X150000000Y-79083333D01*
X149952381Y-79178571D01*
X149952381Y-79369048D01*
X150000000Y-79464286D01*
X150095238Y-79559524D01*
X150285714Y-79607143D01*
X150619048Y-79607143D01*
X150809524Y-79559524D01*
X150904762Y-79464286D01*
X150952381Y-79369048D01*
X150952381Y-79178571D01*
X149952381Y-79940476D02*
X149952381Y-80559524D01*
X150333333Y-80226190D01*
X150333333Y-80369048D01*
X150380952Y-80464286D01*
X150428571Y-80511905D01*
X150523810Y-80559524D01*
X150761905Y-80559524D01*
X150857143Y-80511905D01*
X150904762Y-80464286D01*
X150952381Y-80369048D01*
X150952381Y-80083333D01*
X150904762Y-79988095D01*
X150857143Y-79940476D01*
X150142857Y-86702381D02*
X150476191Y-86226190D01*
X150714286Y-86702381D02*
X150714286Y-85702381D01*
X150333333Y-85702381D01*
X150238095Y-85750000D01*
X150190476Y-85797619D01*
X150142857Y-85892857D01*
X150142857Y-86035714D01*
X150190476Y-86130952D01*
X150238095Y-86178571D01*
X150333333Y-86226190D01*
X150714286Y-86226190D01*
X149190476Y-86702381D02*
X149761905Y-86702381D01*
X149476191Y-86702381D02*
X149476191Y-85702381D01*
X149571429Y-85845238D01*
X149666667Y-85940476D01*
X149761905Y-85988095D01*
X148571429Y-85702381D02*
X148476190Y-85702381D01*
X148380952Y-85750000D01*
X148333333Y-85797619D01*
X148285714Y-85892857D01*
X148238095Y-86083333D01*
X148238095Y-86321429D01*
X148285714Y-86511905D01*
X148333333Y-86607143D01*
X148380952Y-86654762D01*
X148476190Y-86702381D01*
X148571429Y-86702381D01*
X148666667Y-86654762D01*
X148714286Y-86607143D01*
X148761905Y-86511905D01*
X148809524Y-86321429D01*
X148809524Y-86083333D01*
X148761905Y-85892857D01*
X148714286Y-85797619D01*
X148666667Y-85750000D01*
X148571429Y-85702381D01*
X150142857Y-76702381D02*
X150476191Y-76226190D01*
X150714286Y-76702381D02*
X150714286Y-75702381D01*
X150333333Y-75702381D01*
X150238095Y-75750000D01*
X150190476Y-75797619D01*
X150142857Y-75892857D01*
X150142857Y-76035714D01*
X150190476Y-76130952D01*
X150238095Y-76178571D01*
X150333333Y-76226190D01*
X150714286Y-76226190D01*
X149190476Y-76702381D02*
X149761905Y-76702381D01*
X149476191Y-76702381D02*
X149476191Y-75702381D01*
X149571429Y-75845238D01*
X149666667Y-75940476D01*
X149761905Y-75988095D01*
X148238095Y-76702381D02*
X148809524Y-76702381D01*
X148523810Y-76702381D02*
X148523810Y-75702381D01*
X148619048Y-75845238D01*
X148714286Y-75940476D01*
X148809524Y-75988095D01*
M02*
